<?xml version="1.0" standalone="yes"?>
<svg xmlns="http://www.w3.org/2000/svg" width="750" height="500">
<path style="fill:#9d0769; stroke:none;" d="M0 0L0 500L120 500L149 500C153.206 500 157.518 500.829 160 497L153 496L153 493L160 492L160 490L159 489L153 489L154 485L160 485L160 482L153 482L160 477L160 475L159 474L153 473L153 472L160 470L153 463L160 463L160 460L153 456L160 455L160 453L159 452L153 452L153 449L160 446L153 445L154 441C157.038 441.376 158.824 440.963 160 438L153 438L153 435L160 433L153 426C156.363 426 159.204 426.716 160 423L154 423L153 419L160 418L160 416L159 415L153 415L153 412L160 409L153 408L160 401L153 401L160 396L153 392L153 391L160 389L160 387L159 386L153 382L160 382L160 379L154 379L153 375L160 372L153 371L153 368L160 367L160 365L159 364L153 364L154 360L160 360L160 357L153 357L160 352L160 350L159 349L153 348L153 347L160 345L153 338L160 338L160 335L153 331L160 330L160 328L159 327L153 327L153 324L160 321L153 320L154 316C157.038 316.376 158.824 315.963 160 313L153 313L153 310L160 308L153 301C156.363 301 159.204 301.716 160 298L154 298L153 294L160 293L160 291L159 290L153 290L153 287L160 284L153 283L160 276L153 276L160 271L153 267L153 266L160 264L160 262L159 261L153 257L160 257L160 254L154 254L153 250L160 247L153 246L153 243L160 242L160 240L159 239L153 239L154 235L160 235L160 232L153 232L160 227L160 225L159 224L153 223L153 222L160 220L153 213L160 213L160 210L153 206L160 205L160 203L159 202L153 202L153 199L160 196L153 195L154 191C157.038 191.376 158.824 190.963 160 188L153 188L153 185L160 183L153 176C156.363 176 159.204 176.716 160 173L154 173L153 169L160 168L160 166L159 165L153 165L153 162L160 159L153 158L160 151L153 151L160 146L153 142L153 141L160 139L160 137L159 136L153 132L160 132L160 129L154 129L153 125L160 122L153 121L153 118L160 117L160 115L159 114L153 114L154 110L160 110L160 107L153 107L160 102L160 100L159 99L153 98L153 97L160 95L153 88L160 88L160 85L153 81L160 80L160 78L159 77L153 77L153 74L160 71L153 70L154 66C157.038 66.3764 158.824 65.9634 160 63L153 63L153 60L160 58L153 51C156.363 51 159.204 51.7159 160 48L154 48L153 44L160 43L160 41L159 40L153 40L153 37L160 34L153 33L160 26L153 26L160 21L153 17L153 16L160 14L160 12L159 11L153 7L160 7L160 4L154 4L153 0L0 0z"/>
<path style="fill:#920767; stroke:none;" d="M153 0L154 4L160 4L160 7L153 7C154.19 10.6741 156.362 11.3133 160 12L160 14L159 15L153 16L153 17L160 21C156.332 21.6476 154.189 22.3034 153 26L160 26L153 33L160 34L153 37L153 40L160 41L160 43L159 44L153 44L154 48L160 48L153 51L160 58L153 60L153 63L160 63L159 66L154 66L153 70L160 71L153 74L153 77L160 78L160 80L159 81L153 81C154.039 84.5514 156.53 84.7518 160 85L160 88L153 88L160 95L153 97L153 98L160 100L160 102L159 103C155.492 102.872 154.093 103.626 153 107L160 107L160 110L154 110L153 114L160 115L160 117L159 118L153 118L153 121L160 122L153 125L154 129L160 129L160 132L153 132C154.19 135.674 156.362 136.313 160 137L160 139L159 140L153 141L153 142L160 146C156.332 146.648 154.189 147.303 153 151L160 151L153 158L160 159L153 162L153 165L160 166L160 168L159 169L153 169L154 173L160 173L153 176L160 183L153 185L153 188L160 188L159 191L154 191L153 195L160 196L153 199L153 202L160 203L160 205L159 206L153 206C154.039 209.551 156.53 209.752 160 210L160 213L153 213L160 220L153 222L153 223L160 225L160 227L159 228C155.492 227.872 154.093 228.626 153 232L160 232L160 235L154 235L153 239L160 240L160 242L159 243L153 243L153 246L160 247L153 250L154 254L160 254L160 257L153 257C154.19 260.674 156.362 261.313 160 262L160 264L159 265L153 266L153 267L160 271C156.332 271.648 154.189 272.303 153 276L160 276L153 283L160 284L153 287L153 290L160 291L160 293L159 294L153 294L154 298L160 298L153 301L160 308L153 310L153 313L160 313L159 316L154 316L153 320L160 321L153 324L153 327L160 328L160 330L159 331L153 331C154.039 334.551 156.53 334.752 160 335L160 338L153 338L160 345L153 347L153 348L160 350L160 352L159 353C155.492 352.872 154.093 353.626 153 357L160 357L160 360L154 360L153 364L160 365L160 367L159 368L153 368L153 371L160 372L153 375L154 379L160 379L160 382L153 382C154.19 385.674 156.362 386.313 160 387L160 389L159 390L153 391L153 392L160 396C156.332 396.648 154.189 397.303 153 401L160 401L153 408L160 409L153 412L153 415L160 416L160 418L159 419L153 419L154 423L160 423L153 426L160 433L153 435L153 438L160 438L159 441L154 441L153 445L160 446L153 449L153 452L160 453L160 455L159 456L153 456C154.039 459.551 156.53 459.752 160 460L160 463L153 463L160 470L153 472L153 473L160 475L160 477L159 478C155.492 477.872 154.093 478.626 153 482L160 482L160 485L154 485L153 489L160 490L160 492L159 493L153 493L153 496C156.358 496.353 158.771 496.269 159 500L280 500L280 497L276 496L276 493L280 493L280 492L280 490L276 489L280 484L280 483L276 482L276 478L280 477L280 475L280 474L276 474L280 470L280 467L276 463L280 463L280 460L276 460L276 456L280 456L280 453L276 449L280 449L280 448L280 446L276 445L276 441L280 440L280 439L276 438L280 433L280 431L280 430L276 426L280 426L280 423L276 423L276 419L280 419L280 416L276 412L280 412L280 411L280 409L276 408L276 404L280 403L280 402L276 401L280 396L280 394L280 393L276 392L276 390L280 389L280 386L276 386L276 382L280 382L280 379L276 375L280 375L280 372L276 371L276 368L280 368L280 367L280 365L276 364L280 359L280 358L276 357L276 353L280 352L280 350L280 349L276 349L280 345L280 342L276 338L280 338L280 335L276 335L276 331L280 331L280 328L276 324L280 324L280 323L280 321L276 320L276 316L280 315L280 314L276 313L280 308L280 306L280 305L276 301L280 301L280 298L276 298L276 294L280 294L280 291L276 287L280 287L280 286L280 284L276 283L276 279L280 278L280 277L276 276L280 271L280 269L280 268L276 267L276 265L280 264L280 261L276 261L276 257L280 257L280 254L276 250L280 250L280 247L276 246L276 243L280 243L280 242L280 240L276 239L280 234L280 233L276 232L276 228L280 227L280 225L280 224L276 224L280 220L280 217L276 213L280 213L280 210L276 210L276 206L280 206L280 203L276 199L280 199L280 198L280 196L276 195L276 191L280 190L280 189L276 188L280 183L280 181L280 180L276 176L280 176L280 173L276 173L276 169L280 169L280 166L276 162L280 162L280 161L280 159L276 158L276 154L280 153L280 152L276 151L280 146L280 144L280 143L276 142L276 140L280 139L280 136L276 136L276 132L280 132L280 129L276 125L280 125L280 122L276 121L276 118L280 118L280 117L280 115L276 114L280 109L280 108L276 107L276 103L280 102L280 100L280 99L276 99L280 95L280 92L276 88L280 88L280 85L276 85L276 81L280 81L280 78L276 74L280 74L280 73L280 71L276 70L276 66L280 65L280 64L276 63L280 58L280 56L280 55L276 51L280 51L280 48L276 48L276 44L280 44L280 41L276 37L280 37L280 36L280 34L276 33L276 29L280 28L280 27L276 26L280 21L280 19L280 18L276 17L276 15L280 14L280 11L276 11L276 7L280 7L280 4L274 0L274 4L273 4L273 0L153 0z"/>
<path style="fill:#8a0666; stroke:none;" d="M273 0L273 4L274 4L273 0M276 0L280 4L280 7L276 7L276 11L280 11L280 14L276 15L276 17L280 18L280 19C277.163 19.5673 277.926 19.3411 280 21L276 26L280 27L280 28L276 29L276 33L280 34C277.927 35.6588 277.163 35.4327 280 36L280 37L276 37L280 41L280 44L276 44L276 48L280 48L280 51L276 51L280 55L280 56C277.163 56.5673 277.926 56.3411 280 58L276 63L280 64L280 65L276 66L276 70L280 71C277.927 72.6588 277.163 72.4326 280 73L280 74L276 74L280 78L280 81L276 81L276 85L280 85L280 88L276 88L280 92L280 95L276 99L280 99L280 100C277.163 100.567 277.926 100.341 280 102L276 103L276 107L280 108L280 109L276 114L280 115C277.927 116.659 277.163 116.433 280 117L280 118L276 118L276 121L280 122L280 125L276 125L280 129L280 132L276 132L276 136L280 136L280 139L276 140L276 142L280 143L280 144C277.163 144.567 277.926 144.341 280 146L276 151L280 152L280 153L276 154L276 158L280 159C277.927 160.659 277.163 160.433 280 161L280 162L276 162L280 166L280 169L276 169L276 173L280 173L280 176L276 176L280 180L280 181C277.163 181.567 277.926 181.341 280 183L276 188L280 189L280 190L276 191L276 195L280 196C277.926 197.659 277.163 197.433 280 198L280 199L276 199L280 203L280 206L276 206L276 210L280 210L280 213L276 213L280 217L280 220L276 224L280 224L280 225C277.163 225.567 277.926 225.341 280 227L276 228L276 232L280 233L280 234L276 239L280 240C277.926 241.659 277.163 241.433 280 242L280 243L276 243L276 246L280 247L280 250L276 250L280 254L280 257L276 257L276 261L280 261L280 264L276 265L276 267L280 268L280 269C277.163 269.567 277.926 269.341 280 271L276 276L280 277L280 278L276 279L276 283L280 284C277.926 285.659 277.163 285.433 280 286L280 287L276 287L280 291L280 294L276 294L276 298L280 298L280 301L276 301L280 305L280 306C277.163 306.567 277.926 306.341 280 308L276 313L280 314L280 315L276 316L276 320L280 321C277.926 322.659 277.163 322.433 280 323L280 324L276 324L280 328L280 331L276 331L276 335L280 335L280 338L276 338L280 342L280 345L276 349L280 349L280 350C277.163 350.567 277.926 350.341 280 352L276 353L276 357L280 358L280 359L276 364L280 365C277.926 366.659 277.163 366.433 280 367L280 368L276 368L276 371L280 372L280 375L276 375L280 379L280 382L276 382L276 386L280 386L280 389L276 390L276 392L280 393L280 394C277.163 394.567 277.926 394.341 280 396L276 401L280 402L280 403L276 404L276 408L280 409C277.926 410.659 277.163 410.433 280 411L280 412L276 412L280 416L280 419L276 419L276 423L280 423L280 426L276 426L280 430L280 431C277.163 431.567 277.926 431.341 280 433L276 438L280 439L280 440L276 441L276 445L280 446C277.926 447.659 277.163 447.433 280 448L280 449L276 449L280 453L280 456L276 456L276 460L280 460L280 463L276 463L280 467L280 470L276 474L280 474L280 475C277.163 475.567 277.926 475.341 280 477L276 478L276 482L280 483L280 484L276 489L280 490C277.926 491.659 277.163 491.433 280 492L280 493L276 493L276 496L280 497C280.699 502.561 301.876 500 307 500L380 500C386.218 500 400.379 502.714 404 497L403 496L396 496L404 490L396 486L404 484L404 483L396 482L396 481L397 479L403 478L404 477L403 474L396 473L396 472L404 470L404 467L396 464L396 463L404 463L404 460L396 459L403 456L404 453L403 452L396 449L404 446L396 445L404 440L397 438L396 435L403 434L404 433L396 427L396 426L404 426L404 423L396 422L404 419L404 416L396 412L404 409L403 408L396 408L405 403L405 402L397 401L396 398L404 396L397 392L397 391L403 390L404 389L403 386L396 385L397 382L404 382L404 379L396 375L404 372L403 371L396 371L404 365L396 361L404 359L404 358L396 357L396 356L397 354L403 353L404 352L403 349L396 348L396 347L404 345L404 342L396 339L396 338L404 338L404 335L396 334L403 331L404 328L403 327L396 324L404 321L396 320L404 315L397 313L396 310L403 309L404 308L396 302L396 301L404 301L404 298L396 297L404 294L404 291L396 287L404 284L403 283L396 283L405 278L405 277L397 276L396 273L404 271L397 267L397 266L403 265L404 264L403 261L396 260L397 257L404 257L404 254L396 250L404 247L403 246L396 246L404 240L396 236L404 234L404 233L396 232L396 231L397 229L403 228L404 227L403 224L396 223L396 222L404 220L404 217L396 214L396 213L404 213L404 210L396 209L403 206L404 203L403 202L396 199L404 196L396 195L404 190L397 188L396 185L403 184L404 183L396 177L396 176L404 176L404 173L396 172L404 169L404 166L396 162L404 159L403 158L396 158L405 153L405 152L397 151L396 148L404 146L397 142L397 141L403 140L404 139L403 136L396 135L397 132L404 132L404 129L396 125L404 122L403 121L396 121L404 115L396 111L404 109L404 108L396 107L396 106L397 104L403 103L404 102L403 99L396 98L396 97L404 95L404 92L396 89L396 88L404 88L404 85L396 84L403 81L404 78L403 77L396 74L404 71L396 70L404 65L397 63L396 60L403 59L404 58L396 52L396 51L404 51L404 48L396 47L404 44L404 41L396 37L404 34L403 33L396 33L405 28L405 27L397 26L396 23L404 21L397 17L397 16L403 15L404 14L403 11L396 10L397 7L404 7L404 4L391.985 0.0586243L276 0z"/>
<path style="fill:#7e0564; stroke:none;" d="M396 0C398.085 3.40091 400.098 3.87311 404 4L404 7L397 7L396 10L403 11L404 14L403 15L397 16L397 17L404 21L396 23L397 26L405 27L405 28C400.666 28.4142 398.271 29.0988 396 33L403 33L404 34L396 37L404 41L404 44C400.326 43.6288 398.172 43.9123 396 47L404 48L404 51L396 51L396 52L397 54L404 58L403 59L396 60L397 63L404 65L396 70L404 71L396 74C397.977 76.9008 399.544 77.4875 403 77L404 78L403 81L396 84L404 85L404 88L396 88L396 89L397 91L404 92L404 95L396 97L396 98L403 99L404 102L403 103L396 106L396 107L404 108L404 109L396 111L404 115L396 121L403 121L404 122L396 125C398.085 128.401 400.098 128.873 404 129L404 132L397 132L396 135L403 136L404 139L403 140L397 141L397 142L404 146L396 148L397 151L405 152L405 153C400.666 153.414 398.271 154.099 396 158L403 158L404 159L396 162L404 166L404 169C400.326 168.629 398.172 168.912 396 172L404 173L404 176L396 176L396 177L397 179L404 183L403 184L396 185L397 188L404 190L396 195L404 196L396 199C397.977 201.901 399.544 202.487 403 202L404 203L403 206L396 209L404 210L404 213L396 213L396 214L397 216L404 217L404 220L396 222L396 223L403 224L404 227L403 228L396 231L396 232L404 233L404 234L396 236L404 240L396 246L403 246L404 247L396 250C398.085 253.401 400.098 253.873 404 254L404 257L397 257L396 260L403 261L404 264L403 265L397 266L397 267L404 271L396 273L397 276L405 277L405 278C400.666 278.414 398.271 279.099 396 283L403 283L404 284L396 287L404 291L404 294C400.326 293.629 398.172 293.912 396 297L404 298L404 301L396 301L396 302L397 304L404 308L403 309L396 310L397 313L404 315L396 320L404 321L396 324C397.977 326.901 399.544 327.487 403 327L404 328L403 331L396 334L404 335L404 338L396 338L396 339L397 341L404 342L404 345L396 347L396 348L403 349L404 352L403 353L396 356L396 357L404 358L404 359L396 361L404 365L396 371L403 371L404 372L396 375C398.085 378.401 400.098 378.873 404 379L404 382L397 382L396 385L403 386L404 389L403 390L397 391L397 392L404 396L396 398L397 401L405 402L405 403C400.666 403.414 398.271 404.099 396 408L403 408L404 409L396 412L404 416L404 419C400.326 418.629 398.172 418.912 396 422L404 423L404 426L396 426L396 427L397 429L404 433L403 434L396 435L397 438L404 440L396 445L404 446L396 449C397.977 451.901 399.543 452.487 403 452L404 453L403 456L396 459L404 460L404 463L396 463L396 464L397 466L404 467L404 470L396 472L396 473L403 474L404 477L403 478L396 481L396 482L404 483L404 484L396 486L404 490L396 496L403 496L404 497L403 500C459.486 500 517.698 495.902 574 500L574 497L567 493L570 491L574 492L574 489L567 489L567 486L574 485L574 482L567 482L567 479L574 478L567 473L567 472L571 469L574 470L574 467L567 466L567 463L574 463L574 460L567 459L567 456L574 456L573 452L567 452L567 449L571 447L574 448L574 445L567 445L567 442L574 441L574 438L567 438L567 435L573 434L574 430L567 429L567 426L574 426L574 423L567 422L567 419L574 419L574 416L571 417L567 415L567 412L573 412L574 408L567 408L567 405L570 403L574 404L574 401L567 401L567 398L574 397L574 394L570 395L567 392L567 391L574 386L567 385L567 382L574 382L574 379L567 378L567 375L574 375L574 372L567 368L570 366L574 367L574 364L567 364L567 361L574 360L574 357L567 357L567 354L574 353L567 348L567 347L571 344L574 345L574 342L567 341L567 338L574 338L574 335L567 334L567 331L574 331L573 327L567 327L567 324L571 322L574 323L574 320L567 320L567 317L574 316L574 313L567 313L567 310L573 309L574 305L567 304L567 301L574 301L574 298L567 297L567 294L574 294L574 291L571 292L567 290L567 287L573 287L574 283L567 283L567 280L570 278L574 279L574 276L567 276L567 273L574 272L574 269L570 270L567 267L567 266L574 261L567 260L567 257L574 257L574 254L567 253L567 250L574 250L574 247L567 243L570 241L574 242L574 239L567 239L567 236L574 235L574 232L567 232L567 229L574 228L567 223L567 222L571 219L574 220L574 217L567 216L567 213L574 213L574 210L567 209L567 206L574 206L573 202L567 202L567 199L571 197L574 198L574 195L567 195L567 192L574 191L574 188L567 188L567 185L573 184L574 180L567 179L567 176L574 176L574 173L567 172L567 169L574 169L574 166L571 167L567 165L567 162L573 162L574 158L567 158L567 155L570 153L574 154L574 151L567 151L567 148L574 147L574 144L570 145L567 142L567 141L574 136L567 135L567 132L574 132L574 129L567 128L567 125L574 125L574 122L567 118L570 116L574 117L574 114L567 114L567 111L574 110L574 107L567 107L567 104L574 103L567 98L567 97L571 94L574 95L574 92L567 91L567 88L574 88L574 85L567 84L567 81L574 81L573 77L567 77L567 74L571 72L574 73L574 70L567 70L567 67L574 66L574 63L567 63L567 60L573 59L574 55L567 54L567 51L574 51L574 48L567 47L567 44L574 44L574 41L571 42L567 40L567 37L573 37L574 33L567 33L567 30L570 28L574 29L574 26L567 26L567 23L574 22L574 19L570 20L567 17L567 16L574 11L567 10L567 7L574 7L574 4L567 3C566.461 -1.29117 560.577 0 557 0L527 0L396 0z"/>
<path style="fill:#6f0562; stroke:none;" d="M567 0L567 3L574 4L574 7L567 7L567 10L574 11L567 16L567 17L570 20L574 19L574 22L567 23L567 26L574 26L574 29L570 28L567 30L567 33L574 33L573 37L567 37L567 40L571 42L574 41L574 44L567 44L567 47L574 48L574 51L567 51L567 54L574 55L573 59L567 60L567 63L574 63L574 66L567 67L567 70L574 70L574 73L571 72L567 74L567 77L573 77L574 81L567 81L567 84L574 85L574 88L567 88L567 91L574 92L574 95L571 94L567 97L567 98L574 103L567 104L567 107L574 107L574 110L567 111L567 114L574 114L574 117L570 116L567 118C568.255 121.492 570.422 122.077 574 122L574 125L567 125L567 128L574 129L574 132L567 132L567 135L574 136L567 141L567 142L570 145L574 144L574 147L567 148L567 151L574 151L574 154L570 153L567 155L567 158L574 158L573 162L567 162L567 165L571 167L574 166L574 169L567 169L567 172L574 173L574 176L567 176L567 179L574 180L573 184L567 185L567 188L574 188L574 191L567 192L567 195L574 195L574 198L571 197L567 199L567 202L573 202L574 206L567 206L567 209L574 210L574 213L567 213L567 216L574 217L574 220L571 219L567 222L567 223L574 228L567 229L567 232L574 232L574 235L567 236L567 239L574 239L574 242L570 241L567 243C568.255 246.492 570.422 247.077 574 247L574 250L567 250L567 253L574 254L574 257L567 257L567 260L574 261L567 266L567 267L570 270L574 269L574 272L567 273L567 276L574 276L574 279L570 278L567 280L567 283L574 283L573 287L567 287L567 290L571 292L574 291L574 294L567 294L567 297L574 298L574 301L567 301L567 304L574 305L573 309L567 310L567 313L574 313L574 316L567 317L567 320L574 320L574 323L571 322L567 324L567 327L573 327L574 331L567 331L567 334L574 335L574 338L567 338L567 341L574 342L574 345L571 344L567 347L567 348L574 353L567 354L567 357L574 357L574 360L567 361L567 364L574 364L574 367L570 366L567 368C568.255 371.492 570.422 372.077 574 372L574 375L567 375L567 378L574 379L574 382L567 382L567 385L574 386L567 391L567 392L570 395L574 394L574 397L567 398L567 401L574 401L574 404L570 403L567 405L567 408L574 408L573 412L567 412L567 415L571 417L574 416L574 419L567 419L567 422L574 423L574 426L567 426L567 429L574 430L573 434L567 435L567 438L574 438L574 441L567 442L567 445L574 445L574 448L571 447L567 449L567 452L573 452L574 456L567 456L567 459L574 460L574 463L567 463L567 466L574 467L574 470L571 469L567 472L567 473L574 478L567 479L567 482L574 482L574 485L567 486L567 489L574 489L574 492L570 491L567 493C568.255 496.492 570.422 497.077 574 497C574.946 501.416 580.23 500 584 500L616 500L750 500L750 0L567 0z"/>
<path style="fill:#7e0564; stroke:none;" d="M400 5L401 6L400 5z"/>
<path style="fill:#6f0562; stroke:none;" d="M570 5L571 6L570 5z"/>
<path style="fill:#8a0666; stroke:none;" d="M273 7L273 11L274 11L273 7z"/>
<path style="fill:#7e0564; stroke:none;" d="M400 12L401 13L400 12z"/>
<path style="fill:#8a0666; stroke:none;" d="M273 15L273 18L275 17L275 16L273 15z"/>
<path style="fill:#7e0564; stroke:none;" d="M393 16L394 17L393 16M400 19L401 20L400 19z"/>
<path style="fill:#8a0666; stroke:none;" d="M273 22L273 26L274 26L273 22M273 30L273 33L275 30L273 30z"/>
<path style="fill:#7e0564; stroke:none;" d="M400 35L401 36L400 35z"/>
<path style="fill:#8a0666; stroke:none;" d="M273 37L275 40L273 37z"/>
<path style="fill:#7e0564; stroke:none;" d="M400 42L401 43L400 42z"/>
<path style="fill:#6f0562; stroke:none;" d="M570 42L571 43L570 42z"/>
<path style="fill:#8a0666; stroke:none;" d="M273 44L273 48L274 48L273 44z"/>
<path style="fill:#7e0564; stroke:none;" d="M400 49L401 50L400 49z"/>
<path style="fill:#8a0666; stroke:none;" d="M273 52L273 55L275 52L273 52z"/>
<path style="fill:#7e0564; stroke:none;" d="M400 56L401 57L400 56z"/>
<path style="fill:#6f0562; stroke:none;" d="M570 56L571 57L570 56z"/>
<path style="fill:#8a0666; stroke:none;" d="M273 59L275 62L273 59M273 66L273 70L274 70L273 66z"/>
<path style="fill:#7e0564; stroke:none;" d="M400 72L401 73L400 72z"/>
<path style="fill:#8a0666; stroke:none;" d="M273 74L273 77L275 74L273 74z"/>
<path style="fill:#7e0564; stroke:none;" d="M400 79L401 80L400 79z"/>
<path style="fill:#6f0562; stroke:none;" d="M570 79L571 80L570 79z"/>
<path style="fill:#8a0666; stroke:none;" d="M273 81L275 84L273 81z"/>
<path style="fill:#7e0564; stroke:none;" d="M400 86L401 87L400 86z"/>
<path style="fill:#8a0666; stroke:none;" d="M273 88L273 92L274 92L273 88z"/>
<path style="fill:#7e0564; stroke:none;" d="M400 93L401 94L400 93z"/>
<path style="fill:#6f0562; stroke:none;" d="M570 93L571 94L570 93z"/>
<path style="fill:#8a0666; stroke:none;" d="M273 96L273 99L275 96L273 96z"/>
<path style="fill:#7e0564; stroke:none;" d="M400 100L401 101L400 100z"/>
<path style="fill:#8a0666; stroke:none;" d="M273 103L273 107L274 107L273 103M273 110L273 114L274 114L273 110z"/>
<path style="fill:#7e0564; stroke:none;" d="M400 116L401 117L400 116z"/>
<path style="fill:#8a0666; stroke:none;" d="M273 118L273 121L275 120L275 119L273 118z"/>
<path style="fill:#7e0564; stroke:none;" d="M400 123L401 124L400 123z"/>
<path style="fill:#8a0666; stroke:none;" d="M273 125L273 129L274 129L273 125z"/>
<path style="fill:#7e0564; stroke:none;" d="M400 130L401 131L400 130z"/>
<path style="fill:#6f0562; stroke:none;" d="M570 130L571 131L570 130z"/>
<path style="fill:#8a0666; stroke:none;" d="M273 132L273 136L274 136L273 132z"/>
<path style="fill:#7e0564; stroke:none;" d="M400 137L401 138L400 137z"/>
<path style="fill:#8a0666; stroke:none;" d="M273 140L273 143L275 142L275 141L273 140z"/>
<path style="fill:#7e0564; stroke:none;" d="M393 141L394 142L393 141M400 144L401 145L400 144z"/>
<path style="fill:#8a0666; stroke:none;" d="M273 147L273 151L274 151L273 147M273 155L273 158L275 155L273 155z"/>
<path style="fill:#7e0564; stroke:none;" d="M400 160L401 161L400 160z"/>
<path style="fill:#8a0666; stroke:none;" d="M273 162L275 165L273 162z"/>
<path style="fill:#7e0564; stroke:none;" d="M400 167L401 168L400 167z"/>
<path style="fill:#6f0562; stroke:none;" d="M570 167L571 168L570 167z"/>
<path style="fill:#8a0666; stroke:none;" d="M273 169L273 173L274 173L273 169z"/>
<path style="fill:#7e0564; stroke:none;" d="M400 174L401 175L400 174z"/>
<path style="fill:#8a0666; stroke:none;" d="M273 177L273 180L275 177L273 177z"/>
<path style="fill:#7e0564; stroke:none;" d="M400 181L401 182L400 181z"/>
<path style="fill:#6f0562; stroke:none;" d="M570 181L571 182L570 181z"/>
<path style="fill:#8a0666; stroke:none;" d="M273 184L275 187L273 184M273 191L273 195L274 195L273 191z"/>
<path style="fill:#7e0564; stroke:none;" d="M400 197L401 198L400 197z"/>
<path style="fill:#8a0666; stroke:none;" d="M273 199L273 202L275 199L273 199z"/>
<path style="fill:#7e0564; stroke:none;" d="M400 204L401 205L400 204z"/>
<path style="fill:#6f0562; stroke:none;" d="M570 204L571 205L570 204z"/>
<path style="fill:#8a0666; stroke:none;" d="M273 206L275 209L273 206z"/>
<path style="fill:#7e0564; stroke:none;" d="M400 211L401 212L400 211z"/>
<path style="fill:#8a0666; stroke:none;" d="M273 213L273 217L274 217L273 213z"/>
<path style="fill:#7e0564; stroke:none;" d="M400 218L401 219L400 218z"/>
<path style="fill:#6f0562; stroke:none;" d="M570 218L571 219L570 218z"/>
<path style="fill:#8a0666; stroke:none;" d="M273 221L273 224L275 221L273 221z"/>
<path style="fill:#7e0564; stroke:none;" d="M400 225L401 226L400 225z"/>
<path style="fill:#8a0666; stroke:none;" d="M273 228L273 232L274 232L273 228M273 235L273 239L274 239L273 235z"/>
<path style="fill:#7e0564; stroke:none;" d="M400 241L401 242L400 241z"/>
<path style="fill:#8a0666; stroke:none;" d="M273 243L273 246L275 245L275 244L273 243z"/>
<path style="fill:#7e0564; stroke:none;" d="M400 248L401 249L400 248z"/>
<path style="fill:#8a0666; stroke:none;" d="M273 250L273 254L274 254L273 250z"/>
<path style="fill:#7e0564; stroke:none;" d="M400 255L401 256L400 255z"/>
<path style="fill:#6f0562; stroke:none;" d="M570 255L571 256L570 255z"/>
<path style="fill:#8a0666; stroke:none;" d="M273 257L273 261L274 261L273 257z"/>
<path style="fill:#7e0564; stroke:none;" d="M400 262L401 263L400 262z"/>
<path style="fill:#8a0666; stroke:none;" d="M273 265L273 268L275 267L275 266L273 265z"/>
<path style="fill:#7e0564; stroke:none;" d="M393 266L394 267L393 266M400 269L401 270L400 269z"/>
<path style="fill:#8a0666; stroke:none;" d="M273 272L273 276L274 276L273 272M273 280L273 283L275 280L273 280z"/>
<path style="fill:#7e0564; stroke:none;" d="M400 285L401 286L400 285z"/>
<path style="fill:#8a0666; stroke:none;" d="M273 287L275 290L273 287z"/>
<path style="fill:#7e0564; stroke:none;" d="M400 292L401 293L400 292z"/>
<path style="fill:#6f0562; stroke:none;" d="M570 292L571 293L570 292z"/>
<path style="fill:#8a0666; stroke:none;" d="M273 294L273 298L274 298L273 294z"/>
<path style="fill:#7e0564; stroke:none;" d="M400 299L401 300L400 299z"/>
<path style="fill:#8a0666; stroke:none;" d="M273 302L273 305L275 302L273 302z"/>
<path style="fill:#7e0564; stroke:none;" d="M400 306L401 307L400 306z"/>
<path style="fill:#6f0562; stroke:none;" d="M570 306L571 307L570 306z"/>
<path style="fill:#8a0666; stroke:none;" d="M273 309L275 312L273 309M273 316L273 320L274 320L273 316z"/>
<path style="fill:#7e0564; stroke:none;" d="M400 322L401 323L400 322z"/>
<path style="fill:#8a0666; stroke:none;" d="M273 324L273 327L275 324L273 324z"/>
<path style="fill:#7e0564; stroke:none;" d="M400 329L401 330L400 329z"/>
<path style="fill:#6f0562; stroke:none;" d="M570 329L571 330L570 329z"/>
<path style="fill:#8a0666; stroke:none;" d="M273 331L275 334L273 331z"/>
<path style="fill:#7e0564; stroke:none;" d="M400 336L401 337L400 336z"/>
<path style="fill:#8a0666; stroke:none;" d="M273 338L273 342L274 342L273 338z"/>
<path style="fill:#7e0564; stroke:none;" d="M400 343L401 344L400 343z"/>
<path style="fill:#6f0562; stroke:none;" d="M570 343L571 344L570 343z"/>
<path style="fill:#8a0666; stroke:none;" d="M273 346L273 349L275 346L273 346z"/>
<path style="fill:#7e0564; stroke:none;" d="M400 350L401 351L400 350z"/>
<path style="fill:#8a0666; stroke:none;" d="M273 353L273 357L274 357L273 353M273 360L273 364L274 364L273 360z"/>
<path style="fill:#7e0564; stroke:none;" d="M400 366L401 367L400 366z"/>
<path style="fill:#8a0666; stroke:none;" d="M273 368L273 371L275 370L275 369L273 368z"/>
<path style="fill:#7e0564; stroke:none;" d="M400 373L401 374L400 373z"/>
<path style="fill:#8a0666; stroke:none;" d="M273 375L273 379L274 379L273 375z"/>
<path style="fill:#7e0564; stroke:none;" d="M400 380L401 381L400 380z"/>
<path style="fill:#6f0562; stroke:none;" d="M570 380L571 381L570 380z"/>
<path style="fill:#8a0666; stroke:none;" d="M273 382L273 386L274 386L273 382z"/>
<path style="fill:#7e0564; stroke:none;" d="M400 387L401 388L400 387z"/>
<path style="fill:#8a0666; stroke:none;" d="M273 390L273 393L275 392L275 391L273 390z"/>
<path style="fill:#7e0564; stroke:none;" d="M393 391L394 392L393 391M400 394L401 395L400 394z"/>
<path style="fill:#8a0666; stroke:none;" d="M273 397L273 401L274 401L273 397M273 405L273 408L275 405L273 405z"/>
<path style="fill:#7e0564; stroke:none;" d="M400 410L401 411L400 410z"/>
<path style="fill:#8a0666; stroke:none;" d="M273 412L275 415L273 412z"/>
<path style="fill:#7e0564; stroke:none;" d="M400 417L401 418L400 417z"/>
<path style="fill:#6f0562; stroke:none;" d="M570 417L571 418L570 417z"/>
<path style="fill:#8a0666; stroke:none;" d="M273 419L273 423L274 423L273 419z"/>
<path style="fill:#7e0564; stroke:none;" d="M400 424L401 425L400 424z"/>
<path style="fill:#8a0666; stroke:none;" d="M273 427L273 430L275 427L273 427z"/>
<path style="fill:#7e0564; stroke:none;" d="M400 431L401 432L400 431z"/>
<path style="fill:#6f0562; stroke:none;" d="M570 431L571 432L570 431z"/>
<path style="fill:#8a0666; stroke:none;" d="M273 434L275 437L273 434M273 441L273 445L274 445L273 441z"/>
<path style="fill:#7e0564; stroke:none;" d="M400 447L401 448L400 447z"/>
<path style="fill:#8a0666; stroke:none;" d="M273 449L273 452L275 449L273 449z"/>
<path style="fill:#7e0564; stroke:none;" d="M400 454L401 455L400 454z"/>
<path style="fill:#6f0562; stroke:none;" d="M570 454L571 455L570 454z"/>
<path style="fill:#8a0666; stroke:none;" d="M273 456L275 459L273 456z"/>
<path style="fill:#7e0564; stroke:none;" d="M400 461L401 462L400 461z"/>
<path style="fill:#8a0666; stroke:none;" d="M273 463L273 467L274 467L273 463z"/>
<path style="fill:#7e0564; stroke:none;" d="M400 468L401 469L400 468z"/>
<path style="fill:#6f0562; stroke:none;" d="M570 468L571 469L570 468z"/>
<path style="fill:#8a0666; stroke:none;" d="M273 471L273 474L275 471L273 471z"/>
<path style="fill:#7e0564; stroke:none;" d="M400 475L401 476L400 475z"/>
<path style="fill:#8a0666; stroke:none;" d="M273 478L273 482L274 482L273 478M273 485L273 489L274 489L273 485z"/>
<path style="fill:#7e0564; stroke:none;" d="M400 491L401 492L400 491z"/>
<path style="fill:#8a0666; stroke:none;" d="M273 493L273 496L275 495L275 494L273 493z"/>
<path style="fill:#7e0564; stroke:none;" d="M400 498L401 499L400 498z"/>
<path style="fill:#6f0562; stroke:none;" d="M571 499L572 500L571 499z"/>
</svg>
