<?xml version="1.0" standalone="yes"?>
<svg xmlns="http://www.w3.org/2000/svg" width="750" height="500">
<path style="fill:#2db0d1; stroke:none;" d="M0 0L0 500L167 500L167 497L164 498L161 496L161 493L167 491L167 490L161 489L161 486L167 484L167 483L161 479L167 477L161 473L161 472L164 469L167 470L167 467L161 466L167 463L167 460L161 459L161 456L167 456L167 453L166 452L161 452L161 449L167 446L161 442L167 440L167 439L161 435L166 434L167 433L167 430L161 429L167 426L167 423L161 422L167 419L167 416L161 415L161 412L167 409L161 408L161 405L167 403L167 402L161 398L167 396L161 392L161 391L167 389L167 386L161 385L167 382L167 379L161 378L161 375L167 375L167 372L164 373L161 371L161 368L167 366L167 365L161 364L161 361L167 359L167 358L161 354L167 352L161 348L161 347L164 344L167 345L167 342L161 341L167 338L167 335L161 334L161 331L167 331L167 328L166 327L161 327L161 324L167 321L161 317L167 315L167 314L161 310L166 309L167 308L167 305L161 304L167 301L167 298L161 297L167 294L167 291L161 290L161 287L167 284L161 283L161 280L167 278L167 277L161 273L167 271L161 267L161 266L167 264L167 261L161 260L167 257L167 254L161 253L161 250L167 250L167 247L164 248L161 246L161 243L167 241L167 240L161 239L161 236L167 234L167 233L161 229L167 227L161 223L161 222L164 219L167 220L167 217L161 216L167 213L167 210L161 209L161 206L167 206L167 203L166 202L161 202L161 199L167 196L161 192L167 190L167 189L161 185L166 184L167 183L167 180L161 179L167 176L167 173L161 172L167 169L167 166L161 165L161 162L167 159L161 158L161 155L167 153L167 152L161 148L167 146L161 142L161 141L167 139L167 136L161 135L167 132L167 129L161 128L161 125L167 125L167 122L164 123L161 121L161 118L167 116L167 115L161 114L161 111L167 109L167 108L161 104L167 102L161 98L161 97L164 94L167 95L167 92L161 91L167 88L167 85L161 84L161 81L167 81L167 78L166 77L161 77L161 74L167 71L161 67L167 65L167 64L161 60L166 59L167 58L167 55L161 54L167 51L167 48L161 47L167 44L167 41L161 40L161 37L167 34L161 33L161 30L167 28L167 27L161 23L167 21L161 17L161 16L167 14L167 11L161 10L167 7L167 4L161 3L162 1C146.74 -3.51053 125.926 0 110 0L0 0z"/>
<path style="fill:#349dc7; stroke:none;" d="M161 0L161 3L167 4L167 7L161 10L167 11L167 14L161 16L161 17L167 21L161 23L167 27L167 28L161 30L161 33L167 34L161 37L161 40L167 41L167 44L161 47L167 48L167 51L161 54L167 55L167 58L166 59L161 60L167 64L167 65L161 67L167 71L161 74L161 77L166 77L167 78L167 81L161 81L161 84L167 85L167 88L161 91L167 92L167 95L164 94L161 97L161 98L167 102L161 104L167 108L167 109L161 111L161 114L167 115L167 116L164 116L161 118L161 121L164 123L167 122L167 125L161 125L161 128L167 129L167 132L161 135L167 136L167 139L161 141L161 142L167 146L161 148L167 152L167 153L161 155L161 158L167 159L161 162L161 165L167 166L167 169L161 172L167 173L167 176L161 179L167 180L167 183L166 184L161 185L167 189L167 190L161 192L167 196L161 199L161 202L166 202L167 203L167 206L161 206L161 209L167 210L167 213L161 216L167 217L167 220L164 219L161 222L161 223L167 227L161 229L167 233L167 234L161 236L161 239L167 240L167 241L164 241L161 243L161 246L164 248L167 247L167 250L161 250L161 253L167 254L167 257L161 260L167 261L167 264L161 266L161 267L167 271L161 273L167 277L167 278L161 280L161 283L167 284L161 287L161 290L167 291L167 294L161 297L167 298L167 301L161 304L167 305L167 308L166 309L161 310L167 314L167 315L161 317L167 321L161 324L161 327L166 327L167 328L167 331L161 331L161 334L167 335L167 338L161 341L167 342L167 345L164 344L161 347L161 348L167 352L161 354L167 358L167 359L161 361L161 364L167 365L167 366L164 366L161 368L161 371L164 373L167 372L167 375L161 375L161 378L167 379L167 382L161 385L167 386L167 389L161 391L161 392L167 396L161 398L167 402L167 403L161 405L161 408L167 409L161 412L161 415L167 416L167 419L161 422L167 423L167 426L161 429L167 430L167 433L166 434L161 435L167 439L167 440L161 442L167 446L161 449L161 452L166 452L167 453L167 456L161 456L161 459L167 460L167 463L161 466L167 467L167 470L164 469L161 472L161 473L167 477L161 479L167 483L167 484L161 486L161 489L167 490L167 491L164 491L161 493L161 496L164 498L167 497C167.699 502.561 188.876 500 194 500L280 500L280 497L277 496L277 493L280 493L280 492L280 490L277 489L280 483L277 482L280 474L277 473L280 467L277 466L277 463L280 463L280 462L280 460L277 459L277 456L280 456L280 455L280 453L277 452L277 449L280 449L280 448L280 446L277 445L280 439L277 438L280 430L277 429L277 426L280 426L280 425L280 423L277 422L277 419L280 419L280 418L280 416L277 415L277 412L280 412L280 411L280 409L277 408L280 402L277 401L280 393L277 392L280 386L277 385L277 382L280 382L280 381L280 379L277 378L277 375L280 375L280 374L280 372L277 371L277 368L280 368L280 367L280 365L277 364L280 358L277 357L280 349L277 348L280 342L277 341L277 338L280 338L280 337L280 335L277 334L277 331L280 331L280 330L280 328L277 327L277 324L280 324L280 323L280 321L277 320L280 314L277 313L280 305L277 304L277 301L280 301L280 300L280 298L277 297L277 294L280 294L280 293L280 291L277 290L277 287L280 287L280 286L280 284L277 283L280 277L277 276L280 268L277 267L280 261L277 260L277 257L280 257L280 256L280 254L277 253L277 250L280 250L280 249L280 247L277 246L277 243L280 243L280 242L280 240L277 239L280 233L277 232L280 224L277 223L280 217L277 216L277 213L280 213L280 212L280 210L277 209L277 206L280 206L280 205L280 203L277 202L277 199L280 199L280 198L280 196L277 195L280 189L277 188L280 180L277 179L277 176L280 176L280 175L280 173L277 172L277 169L280 169L280 168L280 166L277 165L277 162L280 162L280 161L280 159L277 158L280 152L277 151L280 143L277 142L280 136L277 135L277 132L280 132L280 131L280 129L277 128L277 125L280 125L280 124L280 122L277 121L277 118L280 118L280 117L280 115L277 114L280 108L277 107L280 99L277 98L280 92L277 91L277 88L280 88L280 87L280 85L277 84L277 81L280 81L280 80L280 78L277 77L277 74L280 74L280 73L280 71L277 70L280 64L277 63L280 55L277 54L277 51L280 51L280 50L280 48L277 47L277 44L280 44L280 43L280 41L277 40L277 37L280 37L280 36L280 34L277 33L280 27L277 26L280 18L277 17L280 11L277 10L277 7L280 7L280 6L280 4L277 3L278 1L240 0L161 0z"/>
<path style="fill:#398fc0; stroke:none;" d="M277 0L277 3L280 4L280 7L277 7L277 8L277 10L280 11L277 17L280 18L277 26L280 27L277 33L280 34L280 37L277 37L277 38L277 40L280 41L280 44L277 44L277 45L277 47L280 48L280 51L277 51L277 52L277 54L280 55L277 63L280 64L277 70L280 71L280 74L277 74L277 75L277 77L280 78L280 81L277 81L277 82L277 84L280 85L280 88L277 88L277 89L277 91L280 92L277 98L280 99L277 107L280 108L277 114L280 115L280 118L277 118L277 119L277 121L280 122L280 125L277 125L277 126L277 128L280 129L280 132L277 132L277 133L277 135L280 136L277 142L280 143L277 151L280 152L277 158L280 159L280 162L277 162L277 163L277 165L280 166L280 169L277 169L277 170L277 172L280 173L280 176L277 176L277 177L277 179L280 180L277 188L280 189L277 195L280 196L280 199L277 199L277 200L277 202L280 203L280 206L277 206L277 207L277 209L280 210L280 213L277 213L277 214L277 216L280 217L277 223L280 224L277 232L280 233L277 239L280 240L280 243L277 243L277 244L277 246L280 247L280 250L277 250L277 251L277 253L280 254L280 257L277 257L277 258L277 260L280 261L277 267L280 268L277 276L280 277L277 283L280 284L280 287L277 287L277 288L277 290L280 291L280 294L277 294L277 295L277 297L280 298L280 301L277 301L277 302L277 304L280 305L277 313L280 314L277 320L280 321L280 324L277 324L277 325L277 327L280 328L280 331L277 331L277 332L277 334L280 335L280 338L277 338L277 339L277 341L280 342L277 348L280 349L277 357L280 358L277 364L280 365L280 368L277 368L277 369L277 371L280 372L280 375L277 375L277 376L277 378L280 379L280 382L277 382L277 383L277 385L280 386L277 392L280 393L277 401L280 402L277 408L280 409L280 412L277 412L277 413L277 415L280 416L280 419L277 419L277 420L277 422L280 423L280 426L277 426L277 427L277 429L280 430L277 438L280 439L277 445L280 446L280 449L277 449L277 450L277 452L280 453L280 456L277 456L277 457L277 459L280 460L280 463L277 463L277 464L277 466L280 467L277 473L280 474L277 482L280 483L277 489L280 490L280 493L277 493L277 494L277 496L280 497L279 499L314 500L396 500L394 497L394 496L401 495L401 494L397 494L394 490L394 489L401 486L395 486L395 482L401 479L394 478L394 477L401 473L401 472L394 471L395 466L400 467L401 466L401 464L395 462L401 458L401 457L397 457L394 453L394 452L401 451L401 450L394 449L395 445L401 444L401 442L400 441L395 441L395 438L397 436L401 436L401 435L394 434L395 429L401 429L395 425L400 423L401 420L400 419L394 416L394 415L401 414L401 413L394 409L394 408L401 407L401 406L397 406L395 404L395 401L397 399L401 400L400 397L394 397L395 392L401 392L401 391L394 390L394 389L401 385L401 384L395 384L395 383L397 382L395 378L401 378L394 372L394 371L401 370L401 369L397 369L394 365L394 364L401 361L395 361L395 357L401 354L394 353L394 352L401 348L401 347L394 346L395 341L400 342L401 341L401 339L395 337L401 333L401 332L397 332L394 328L394 327L401 326L401 325L394 324L395 320L401 319L401 317L400 316L395 316L395 313L397 311L401 311L401 310L394 309L395 304L401 304L395 300L400 298L401 295L400 294L394 291L394 290L401 289L401 288L394 284L394 283L401 282L401 281L397 281L395 279L395 276L397 274L401 275L400 272L394 272L395 267L401 267L401 266L394 265L394 264L401 260L401 259L395 259L395 258L397 257L395 253L401 253L394 247L394 246L401 245L401 244L397 244L394 240L394 239L401 236L395 236L395 232L401 229L394 228L394 227L401 223L401 222L394 221L395 216L400 217L401 216L401 214L395 212L401 208L401 207L397 207L394 203L394 202L401 201L401 200L394 199L395 195L401 194L401 192L400 191L395 191L395 188L397 186L401 186L401 185L394 184L395 179L401 179L395 175L400 173L401 170L400 169L394 166L394 165L401 164L401 163L394 159L394 158L401 157L401 156L397 156L395 154L395 151L397 149L401 150L400 147L394 147L395 142L401 142L401 141L394 140L394 139L401 135L401 134L395 134L395 133L397 132L395 128L401 128L394 122L394 121L401 120L401 119L397 119L394 115L394 114L401 111L395 111L395 107L401 104L394 103L394 102L401 98L401 97L394 96L395 91L400 92L401 91L401 89L395 87L401 83L401 82L397 82L394 78L394 77L401 76L401 75L394 74L395 70L401 69L401 67L400 66L395 66L395 63L397 61L401 61L401 60L394 59L395 54L401 54L395 50L400 48L401 45L400 44L394 41L394 40L401 39L401 38L394 34L394 33L401 32L401 31L397 31L395 29L395 26L397 24L401 25L400 22L394 22L395 17L401 17L401 16L394 15L394 14L401 10L401 9L395 9L395 8L397 7L395 3L401 3C396.875 -3.36319 377.121 0 370 0L277 0z"/>
<path style="fill:#407bb6; stroke:none;" d="M400 0L401 3L395 3L395 8L395 9L401 9L401 10L394 14L394 15L401 16L401 17L395 17L394 22L401 25L397 24L395 26L395 29L397 31L401 31L401 32L394 33L394 34L395 36L401 38L401 39L394 40L394 41L400 44L401 45L400 48L395 50L401 54L395 54L394 59L401 60L401 61L397 61L395 63L395 66L400 66L401 67L401 69L395 70L394 74L401 75L401 76L394 77L394 78L401 82L401 83L395 87L401 89L401 91L400 92L395 91L394 96L401 97L401 98L394 102L394 103L401 104L395 107L395 111L401 111L400 114L394 114L394 115L401 119L401 120L394 121L394 122L395 124L401 128L395 128L395 133L395 134L401 134L401 135L394 139L394 140L401 141L401 142L395 142L394 147L401 150L397 149L395 151L395 154L397 156L401 156L401 157L394 158L394 159L395 161L401 163L401 164L394 165L394 166L400 169L401 170L400 173L395 175L401 179L395 179L394 184L401 185L401 186L397 186L395 188L395 191L400 191L401 192L401 194L395 195L394 199L401 200L401 201L394 202L394 203L401 207L401 208L395 212L401 214L401 216L400 217L395 216L394 221L401 222L401 223L394 227L394 228L401 229L395 232L395 236L401 236L400 239L394 239L394 240L401 244L401 245L394 246L394 247L395 249L401 253L395 253L395 258L395 259L401 259L401 260L394 264L394 265L401 266L401 267L395 267L394 272L401 275L397 274L395 276L395 279L397 281L401 281L401 282L394 283L394 284L395 286L401 288L401 289L394 290L394 291L400 294L401 295L400 298L395 300L401 304L395 304L394 309L401 310L401 311L397 311L395 313L395 316L400 316L401 317L401 319L395 320L394 324L401 325L401 326L394 327L394 328L401 332L401 333L395 337L401 339L401 341L400 342L395 341L394 346L401 347L401 348L394 352L394 353L401 354L395 357L395 361L401 361L400 364L394 364L394 365L401 369L401 370L394 371L394 372L395 374L401 378L395 378L395 383L395 384L401 384L401 385L394 389L394 390L401 391L401 392L395 392L394 397L401 400L397 399L395 401L395 404L397 406L401 406L401 407L394 408L394 409L395 411L401 413L401 414L394 415L394 416L400 419L401 420L400 423L395 425L401 429L395 429L394 434L401 435L401 436L397 436L395 438L395 441L400 441L401 442L401 444L395 445L394 449L401 450L401 451L394 452L394 453L401 457L401 458L395 462L401 464L401 466L400 467L395 466L394 471L401 472L401 473L394 477L394 478L401 479L395 482L395 486L401 486L400 489L394 489L394 490L401 494L401 495L394 496L394 497L395 499C411.095 503.757 433.198 500 450 500L567 500L562 493L565 495L567 493L565 487L563 489L562 489L567 482L563 482L563 481L565 481L565 480L562 481L562 478L563 478L567 474L562 474L562 471L563 471L567 467L563 464L563 463L567 463L562 456L565 458L567 456L565 450L562 452L567 449L567 445L563 445L563 444L564 442C570.03 439.99 564.49 438.041 565 436L562 437L562 434L563 434L567 430L562 430L562 427L565 428L565 427L563 427L563 426L567 426L562 420L565 421L567 419L565 413L562 415L567 412L562 405L565 407L567 404L565 399L562 400L562 397L563 397L567 393L562 393L562 390L563 390L567 386L562 386L562 383L565 384L567 382L565 376L562 378L567 375L562 368L565 370L567 368L565 362L563 364L562 364L567 357L563 357L563 356L565 356L565 355L562 356L562 353L563 353L567 349L562 349L562 346L563 346L567 342L563 339L563 338L567 338L562 331L565 333L567 331L565 325L562 327L567 324L567 320L563 320L563 319L564 317C570.03 314.99 564.49 313.041 565 311L562 312L562 309L563 309L567 305L562 305L562 302L565 303L565 302L563 302L563 301L567 301L562 295L565 296L567 294L565 288L562 290L567 287L562 280L565 282L567 279L565 274L562 275L562 272L563 272L567 268L562 268L562 265L563 265L567 261L562 261L562 258L565 259L567 257L565 251L562 253L567 250L562 243L565 245L567 243L565 237L563 239L562 239L567 232L563 232L563 231L565 231L565 230L562 231L562 228L563 228L567 224L562 224L562 221L563 221L567 217L563 214L563 213L567 213L562 206L565 208L567 206L565 200L562 202L567 199L567 195L563 195L563 194L564 192C570.03 189.99 564.49 188.041 565 186L562 187L562 184L563 184L567 180L562 180L562 177L565 178L565 177L563 177L563 176L567 176L562 170L565 171L567 169L565 163L562 165L567 162L562 155L565 157L567 154L565 149L562 150L562 147L563 147L567 143L562 143L562 140L563 140L567 136L562 136L562 133L565 134L567 132L565 126L562 128L567 125L562 118L565 120L567 118L565 112L563 114L562 114L567 107L563 107L563 106L565 106L565 105L562 106L562 103L563 103L567 99L562 99L562 96L563 96L567 92L563 89L563 88L567 88L562 81L565 83L567 81L565 75L562 77L567 74L567 70L563 70L563 69L564 67C570.03 64.99 564.49 63.0408 565 61L562 62L562 59L563 59L567 55L562 55L562 52L565 53L565 52L563 52L563 51L567 51L562 45L565 46L567 44L565 38L562 40L567 37L562 30L565 32L567 29L565 24L562 25L562 22L563 22L567 18L562 18L562 15L563 15L567 11L562 11L562 8L565 9L567 7L565 1L562 3C561.096 -1.22095 556.654 0 553 0L524 0L400 0z"/>
<path style="fill:#4961a9; stroke:none;" d="M562 3L565 1L565 9L562 8L562 11L563 11L567 11L562 15L562 18L563 18L567 18L562 22L562 25L565 24L567 26L565 32L562 30L567 37C564.007 37.0642 562.654 36.9461 562 40L565 38L565 46L562 45L567 51L563 51L563 52L565 52L565 53L562 52L562 55L563 55L567 55L562 59L562 62L565 61L567 63L563 69L563 70L567 70L567 74C564.007 74.0642 562.654 73.9461 562 77L565 75L565 83L562 81L567 88L563 88L563 89L564 91L567 92L562 96L562 99L563 99L567 99L562 103L562 106L565 105L565 106L563 106L563 107L567 107L562 114L563 114L565 112L565 120L562 118L567 125C564.007 125.064 562.654 124.946 562 128L565 126L565 134L562 133L562 136L563 136L567 136L562 140L562 143L563 143L567 143L562 147L562 150L565 149L567 151L565 157L562 155L567 162C564.007 162.064 562.654 161.946 562 165L565 163L565 171L562 170L567 176L563 176L563 177L565 177L565 178L562 177L562 180L563 180L567 180L562 184L562 187L565 186L567 188L563 194L563 195L567 195L567 199C564.007 199.064 562.654 198.946 562 202L565 200L565 208L562 206L567 213L563 213L563 214L564 216L567 217L562 221L562 224L563 224L567 224L562 228L562 231L565 230L565 231L563 231L563 232L567 232L562 239L563 239L565 237L565 245L562 243L567 250C564.007 250.064 562.654 249.946 562 253L565 251L565 259L562 258L562 261L563 261L567 261L562 265L562 268L563 268L567 268L562 272L562 275L565 274L567 276L565 282L562 280L567 287C564.007 287.064 562.654 286.946 562 290L565 288L565 296L562 295L567 301L563 301L563 302L565 302L565 303L562 302L562 305L563 305L567 305L562 309L562 312L565 311L567 313L563 319L563 320L567 320L567 324C564.007 324.064 562.654 323.946 562 327L565 325L565 333L562 331L567 338L563 338L563 339L564 341L567 342L562 346L562 349L563 349L567 349L562 353L562 356L565 355L565 356L563 356L563 357L567 357L562 364L563 364L565 362L565 370L562 368L567 375C564.007 375.064 562.654 374.946 562 378L565 376L565 384L562 383L562 386L563 386L567 386L562 390L562 393L563 393L567 393L562 397L562 400L565 399L567 401L565 407L562 405L567 412C564.007 412.064 562.654 411.946 562 415L565 413L565 421L562 420L567 426L563 426L563 427L565 427L565 428L562 427L562 430L563 430L567 430L562 434L562 437L565 436L567 438L563 444L563 445L567 445L567 449C564.006 449.064 562.654 448.946 562 452L565 450L565 458L562 456L567 463L563 463L563 464L564 466L567 467L562 471L562 474L563 474L567 474L562 478L562 481L565 480L565 481L563 481L563 482L567 482L562 489L563 489L565 487L565 495L562 493L567 500L750 500L750 0L606 0L573 0C569.12 0 562.982 -1.58282 562 3z"/>
<path style="fill:#407bb6; stroke:none;" d="M393 6L394 7L393 6M393.667 11.3333L394.333 11.6667L393.667 11.3333z"/>
<path style="fill:#4961a9; stroke:none;" d="M564 14L565 15L564 14z"/>
<path style="fill:#407bb6; stroke:none;" d="M394 18L395 19L394 18z"/>
<path style="fill:#349dc7; stroke:none;" d="M164 19L165 20L164 19z"/>
<path style="fill:#407bb6; stroke:none;" d="M393 20L394 21L393 20M395.667 31.3333L396.333 31.6667L395.667 31.3333M393 34L394 35L393 34M394 36L395 37L394 36M393 43L394 44L393 43M395.667 45.3333L396.333 45.6667L395.667 45.3333M393 48L394 49L393 48M397 52L398 53L397 52M394 55L395 56L394 55M393 57L394 58L393 57z"/>
<path style="fill:#4961a9; stroke:none;" d="M564 65L565 66L564 65M562.333 67.6667L562.667 68.3333L562.333 67.6667z"/>
<path style="fill:#407bb6; stroke:none;" d="M395.667 68.3333L396.333 68.6667L395.667 68.3333M393 71L394 72L393 71z"/>
<path style="fill:#349dc7; stroke:none;" d="M164 72L165 73L164 72z"/>
<path style="fill:#407bb6; stroke:none;" d="M393.667 80.3333L394.333 80.6667L393.667 80.3333M395.667 82.3333L396.333 82.6667L395.667 82.3333M393 85L394 86L393 85M397 89L398 90L397 89z"/>
<path style="fill:#4961a9; stroke:none;" d="M562 89L562 92L563 92L562 89z"/>
<path style="fill:#407bb6; stroke:none;" d="M393 94L394 95L393 94M393.667 99.3333L394.333 99.6667L393.667 99.3333z"/>
<path style="fill:#4961a9; stroke:none;" d="M564 102L565 103L564 102z"/>
<path style="fill:#407bb6; stroke:none;" d="M395 105L395 106L398 106L395 105M393 108L394 109L393 108M393.667 117.333L394.333 117.667L393.667 117.333M395.667 119.333L396.333 119.667L395.667 119.333M393 122L394 123L393 122M394 124L395 125L394 124M393 131L394 132L393 131M393.667 136.333L394.333 136.667L393.667 136.333z"/>
<path style="fill:#4961a9; stroke:none;" d="M564 139L565 140L564 139z"/>
<path style="fill:#407bb6; stroke:none;" d="M394 143L395 144L394 143z"/>
<path style="fill:#349dc7; stroke:none;" d="M164 144L165 145L164 144z"/>
<path style="fill:#407bb6; stroke:none;" d="M393 145L394 146L393 145M395.667 156.333L396.333 156.667L395.667 156.333M393 159L394 160L393 159M394 161L395 162L394 161M393 168L394 169L393 168M395.667 170.333L396.333 170.667L395.667 170.333M393 173L394 174L393 173M397 177L398 178L397 177M394 180L395 181L394 180M393 182L394 183L393 182z"/>
<path style="fill:#4961a9; stroke:none;" d="M564 190L565 191L564 190M562.333 192.667L562.667 193.333L562.333 192.667z"/>
<path style="fill:#407bb6; stroke:none;" d="M395.667 193.333L396.333 193.667L395.667 193.333M393 196L394 197L393 196z"/>
<path style="fill:#349dc7; stroke:none;" d="M164 197L165 198L164 197z"/>
<path style="fill:#407bb6; stroke:none;" d="M393.667 205.333L394.333 205.667L393.667 205.333M395.667 207.333L396.333 207.667L395.667 207.333M393 210L394 211L393 210M397 214L398 215L397 214z"/>
<path style="fill:#4961a9; stroke:none;" d="M562 214L562 217L563 217L562 214z"/>
<path style="fill:#407bb6; stroke:none;" d="M393 219L394 220L393 219M393.667 224.333L394.333 224.667L393.667 224.333z"/>
<path style="fill:#4961a9; stroke:none;" d="M564 227L565 228L564 227z"/>
<path style="fill:#407bb6; stroke:none;" d="M395 230L395 231L398 231L395 230M393 233L394 234L393 233M393.667 242.333L394.333 242.667L393.667 242.333M395.667 244.333L396.333 244.667L395.667 244.333M393 247L394 248L393 247M394 249L395 250L394 249M393 256L394 257L393 256M393.667 261.333L394.333 261.667L393.667 261.333z"/>
<path style="fill:#4961a9; stroke:none;" d="M564 264L565 265L564 264z"/>
<path style="fill:#407bb6; stroke:none;" d="M394 268L395 269L394 268z"/>
<path style="fill:#349dc7; stroke:none;" d="M164 269L165 270L164 269z"/>
<path style="fill:#407bb6; stroke:none;" d="M393 270L394 271L393 270M395.667 281.333L396.333 281.667L395.667 281.333M393 284L394 285L393 284M394 286L395 287L394 286M393 293L394 294L393 293M395.667 295.333L396.333 295.667L395.667 295.333M393 298L394 299L393 298M397 302L398 303L397 302M394 305L395 306L394 305M393 307L394 308L393 307z"/>
<path style="fill:#4961a9; stroke:none;" d="M564 315L565 316L564 315M562.333 317.667L562.667 318.333L562.333 317.667z"/>
<path style="fill:#407bb6; stroke:none;" d="M395.667 318.333L396.333 318.667L395.667 318.333M393 321L394 322L393 321z"/>
<path style="fill:#349dc7; stroke:none;" d="M164 322L165 323L164 322z"/>
<path style="fill:#407bb6; stroke:none;" d="M393.667 330.333L394.333 330.667L393.667 330.333M395.667 332.333L396.333 332.667L395.667 332.333M393 335L394 336L393 335M397 339L398 340L397 339z"/>
<path style="fill:#4961a9; stroke:none;" d="M562 339L562 342L563 342L562 339z"/>
<path style="fill:#407bb6; stroke:none;" d="M393 344L394 345L393 344M393.667 349.333L394.333 349.667L393.667 349.333z"/>
<path style="fill:#4961a9; stroke:none;" d="M564 352L565 353L564 352z"/>
<path style="fill:#407bb6; stroke:none;" d="M395 355L395 356L398 356L395 355M393 358L394 359L393 358M393.667 367.333L394.333 367.667L393.667 367.333M395.667 369.333L396.333 369.667L395.667 369.333M393 372L394 373L393 372M394 374L395 375L394 374M393 381L394 382L393 381M393.667 386.333L394.333 386.667L393.667 386.333z"/>
<path style="fill:#4961a9; stroke:none;" d="M564 389L565 390L564 389z"/>
<path style="fill:#407bb6; stroke:none;" d="M394 393L395 394L394 393z"/>
<path style="fill:#349dc7; stroke:none;" d="M164 394L165 395L164 394z"/>
<path style="fill:#407bb6; stroke:none;" d="M393 395L394 396L393 395M395.667 406.333L396.333 406.667L395.667 406.333M393 409L394 410L393 409M394 411L395 412L394 411M393 418L394 419L393 418M395.667 420.333L396.333 420.667L395.667 420.333M393 423L394 424L393 423M397 427L398 428L397 427M394 430L395 431L394 430M393 432L394 433L393 432z"/>
<path style="fill:#4961a9; stroke:none;" d="M564 440L565 441L564 440M562.333 442.667L562.667 443.333L562.333 442.667z"/>
<path style="fill:#407bb6; stroke:none;" d="M395.667 443.333L396.333 443.667L395.667 443.333M393 446L394 447L393 446z"/>
<path style="fill:#349dc7; stroke:none;" d="M164 447L165 448L164 447z"/>
<path style="fill:#407bb6; stroke:none;" d="M393.667 455.333L394.333 455.667L393.667 455.333M395.667 457.333L396.333 457.667L395.667 457.333M393 460L394 461L393 460M397 464L398 465L397 464z"/>
<path style="fill:#4961a9; stroke:none;" d="M562 464L562 467L563 467L562 464z"/>
<path style="fill:#407bb6; stroke:none;" d="M393 469L394 470L393 469M393.667 474.333L394.333 474.667L393.667 474.333z"/>
<path style="fill:#4961a9; stroke:none;" d="M564 477L565 478L564 477z"/>
<path style="fill:#407bb6; stroke:none;" d="M395 480L395 481L398 481L395 480M393 483L394 484L393 483M393.667 492.333L394.333 492.667L393.667 492.333M395.667 494.333L396.333 494.667L395.667 494.333M393 497L394 498L393 497M394 499L395 500L394 499z"/>
</svg>
