<?xml version="1.0" standalone="yes"?>
<svg xmlns="http://www.w3.org/2000/svg" width="750" height="500">
<path style="fill:#27292a; stroke:none;" d="M0 0L0 500L41 500C44.8708 500 53.4056 501.73 54 497L56 500L61 499L59 498L59 497L69 496L69 493L59 493L59 492C61.8366 491.433 61.0736 491.659 59 490L69 489L69 486L59 484L59 483L69 482L69 481L69 479L59 477L59 476C61.5285 475.494 61.5286 475.506 59 475L59 474L69 473L69 472L59 470C61.0736 468.341 61.8366 468.567 59 468L59 467L69 466L69 463L59 463L59 462C61.5285 461.494 61.5286 461.506 59 461L59 460L69 459L69 456L59 456L59 455C61.8366 454.433 61.0736 454.659 59 453L69 452L69 449L59 449L59 448C61.8366 447.433 61.0736 447.659 59 446L69 445L69 442L59 440L59 439L69 438L69 437L69 435L59 433C61.0736 431.341 61.8366 431.567 59 431L59 430L69 429L69 427L69 426L59 426L59 425C61.5285 424.494 61.5286 424.506 59 424L59 423L69 422L69 419L59 419L59 418C61.8366 417.433 61.0736 417.659 59 416L69 415L69 412L59 412L59 411C61.5285 410.494 61.5286 410.506 59 410L59 409L69 408L69 405L59 403L59 402L69 401L69 398L59 396C61.0736 394.341 61.8366 394.567 59 394L59 393L69 392L69 391L59 389L59 388C61.5285 387.494 61.5286 387.506 59 387L59 386L69 385L69 383L69 382L59 382L59 381C61.5285 380.494 61.5286 380.506 59 380L59 379L69 378L69 375L59 375L59 374C61.5285 373.494 61.5286 373.506 59 373L59 372L69 371L69 368L59 368L59 367C61.8366 366.433 61.0736 366.659 59 365L69 364L69 361L59 359L59 358L69 357L69 356L69 354L59 352L59 351C61.5285 350.494 61.5286 350.506 59 350L59 349L69 348L69 347L59 345C61.0736 343.341 61.8366 343.567 59 343L59 342L69 341L69 338L59 338L59 337C61.5285 336.494 61.5286 336.506 59 336L59 335L69 334L69 331L59 331L59 330C61.8366 329.433 61.0736 329.659 59 328L69 327L69 324L59 324L59 323C61.8366 322.433 61.0736 322.659 59 321L69 320L69 317L59 315L59 314L69 313L69 312L69 310L59 308C61.0736 306.341 61.8366 306.567 59 306L59 305L69 304L69 302L69 301L59 301L59 300C61.5285 299.494 61.5286 299.506 59 299L59 298L69 297L69 294L59 294L59 293C61.8366 292.433 61.0736 292.659 59 291L69 290L69 287L59 287L59 286C61.5285 285.494 61.5286 285.506 59 285L59 284L69 283L69 280L59 278L59 277L69 276L69 273L59 271C61.0736 269.341 61.8366 269.567 59 269L59 268L69 267L69 266L59 264L59 263C61.5285 262.494 61.5286 262.506 59 262L59 261L69 260L69 258L69 257L59 257L59 256C61.5285 255.494 61.5286 255.506 59 255L59 254L69 253L69 250L59 250L59 249C61.5285 248.494 61.5286 248.506 59 248L59 247L69 246L69 243L59 243L59 242C61.8366 241.433 61.0736 241.659 59 240L69 239L69 236L59 234L59 233L69 232L69 231L69 229L59 227L59 226C61.5285 225.494 61.5286 225.506 59 225L59 224L69 223L69 222L59 220C61.0736 218.341 61.8366 218.567 59 218L59 217L69 216L69 213L59 213L59 212C61.5285 211.494 61.5286 211.506 59 211L59 210L69 209L69 206L59 206L59 205C61.8367 204.433 61.0736 204.659 59 203L69 202L69 199L59 199L59 198C61.8367 197.433 61.0736 197.659 59 196L69 195L69 192L59 190L59 189L69 188L69 187L69 185L59 183C61.0737 181.341 61.8366 181.567 59 181L59 180L69 179L69 177L69 176L59 176L59 175C61.5285 174.494 61.5286 174.506 59 174L59 173L69 172L69 169L59 169L59 168C61.8367 167.433 61.0735 167.659 59 166L69 165L69 162L59 162L59 161C61.5285 160.494 61.5286 160.506 59 160L59 159L69 158L69 155L59 153L59 152L69 151L69 148L59 146C61.0736 144.341 61.8366 144.567 59 144L59 143L69 142L69 141L59 139L59 138C61.5285 137.494 61.5286 137.506 59 137L59 136L69 135L69 133L69 132L59 132L59 131C61.5285 130.494 61.5286 130.506 59 130L59 129L69 128L69 125L59 125L59 124C61.5285 123.494 61.5286 123.506 59 123L59 122L69 121L69 118L59 118L59 117C61.8366 116.433 61.0736 116.659 59 115L69 114L69 111L59 109L59 108L69 107L69 106L69 104L59 102L59 101C61.5285 100.494 61.5286 100.506 59 100L59 99L69 98L69 97L59 95C61.0737 93.3411 61.8366 93.5673 59 93L59 92L69 91L69 88L59 88L59 87C61.5285 86.4943 61.5286 86.5057 59 86L59 85L69 84L69 81L59 81L59 80C61.8367 79.4327 61.0735 79.6588 59 78L69 77L69 74L59 74L59 73C61.8367 72.4327 61.0735 72.6588 59 71L69 70L69 67L59 65L59 64L69 63L69 62L69 60L59 58C61.0737 56.3411 61.8366 56.5673 59 56L59 55L69 54L69 52L69 51L59 51L59 50C61.5285 49.4943 61.5286 49.5057 59 49L59 48L69 47L69 44L59 44L59 43C61.8366 42.4327 61.0736 42.6589 59 41L69 40L69 37L59 37L59 36C61.5285 35.4943 61.5286 35.5057 59 35L59 34L69 33L69 30L59 28L59 27L69 26L69 23L59 21C61.0737 19.341 61.8365 19.5673 59 19L59 18L69 17L69 16L59 14L59 13C61.5285 12.4943 61.5286 12.5057 59 12L59 11L69 10L69 8L69 7L59 7L59 6C61.5285 5.49429 61.5286 5.50571 59 5L59 4L69 3L69 0L0 0z"/>
<path style="fill:#2a2c2d; stroke:none;" d="M69 0L68 1L69 3L59 4L59 5C60.96 5.65335 61.554 6 59 6L59 7L69 7L69 8C66.1634 8.56732 66.9264 8.34113 69 10L59 11L59 12C60.9601 12.6534 61.554 13 59 13L59 14L69 16L69 17L59 18L59 19L59 21L69 23L69 26L59 27L59 28L69 30L69 33L59 34L59 35C60.9601 35.6534 61.554 36 59 36L59 37L69 37L69 40L59 41L59 43L59 44L69 44L69 47L59 48L59 49C60.9601 49.6534 61.554 50 59 50L59 51L69 51L69 52C66.1634 52.5673 66.9264 52.3411 69 54L59 55L59 56L59 58L69 60C66.9265 61.6588 66.1633 61.4327 69 62L69 63L59 64L59 65L69 67L69 70L59 71L59 73L59 74L69 74L69 77L59 78L59 80L59 81L69 81L69 84L59 85L59 86C60.9601 86.6534 61.554 87 59 87L59 88L69 88L69 91L59 92L59 93L59 95L69 97L69 98L59 99L59 100C60.9601 100.653 61.554 101 59 101L59 102L69 104C66.9265 105.659 66.1633 105.433 69 106L69 107L59 108L59 109L69 111L69 114L59 115L59 117L59 118L69 118L69 121L59 122L59 123C60.96 123.653 61.554 124 59 124L59 125L69 125L69 128L59 129L59 130C60.9601 130.653 61.554 131 59 131L59 132L69 132L69 133C66.1634 133.567 66.9264 133.341 69 135L59 136L59 137C60.9601 137.653 61.554 138 59 138L59 139L69 141L69 142L59 143L59 144L59 146L69 148L69 151L59 152L59 153L69 155L69 158L59 159L59 160C60.9601 160.653 61.554 161 59 161L59 162L69 162L69 165L59 166L59 168L59 169L69 169L69 172L59 173L59 174C60.9601 174.653 61.554 175 59 175L59 176L69 176L69 177C66.1634 177.567 66.9264 177.341 69 179L59 180L59 181L59 183L69 185C66.9265 186.659 66.1633 186.433 69 187L69 188L59 189L59 190L69 192L69 195L59 196L59 198L59 199L69 199L69 202L59 203L59 205L59 206L69 206L69 209L59 210L59 211C60.9601 211.653 61.554 212 59 212L59 213L69 213L69 216L59 217L59 218L59 220L69 222L69 223L59 224L59 225C60.9601 225.653 61.554 226 59 226L59 227L69 229C66.9265 230.659 66.1633 230.433 69 231L69 232L59 233L59 234L69 236L69 239L59 240L59 242L59 243L69 243L69 246L59 247L59 248C60.9601 248.653 61.554 249 59 249L59 250L69 250L69 253L59 254L59 255C60.9601 255.653 61.554 256 59 256L59 257L69 257L69 258C66.1634 258.567 66.9264 258.341 69 260L59 261L59 262C60.96 262.653 61.554 263 59 263L59 264L69 266L69 267L59 268L59 269L59 271L69 273L69 276L59 277L59 278L69 280L69 283L59 284L59 285C60.9601 285.653 61.554 286 59 286L59 287L69 287L69 290L59 291L59 293L59 294L69 294L69 297L59 298L59 299C60.9601 299.653 61.554 300 59 300L59 301L69 301L69 302C66.1634 302.567 66.9264 302.341 69 304L59 305L59 306L59 308L69 310C66.9264 311.659 66.1634 311.433 69 312L69 313L59 314L59 315L69 317L69 320L59 321L59 323L59 324L69 324L69 327L59 328L59 330L59 331L69 331L69 334L59 335L59 336C60.9601 336.653 61.554 337 59 337L59 338L69 338L69 341L59 342L59 343L59 345L69 347L69 348L59 349L59 350C60.9601 350.653 61.554 351 59 351L59 352L69 354C66.9264 355.659 66.1634 355.433 69 356L69 357L59 358L59 359L69 361L69 364L59 365L59 367L59 368L69 368L69 371L59 372L59 373C60.9601 373.653 61.554 374 59 374L59 375L69 375L69 378L59 379L59 380C60.9601 380.653 61.554 381 59 381L59 382L69 382L69 383C66.1634 383.567 66.9264 383.341 69 385L59 386L59 387C60.9601 387.653 61.554 388 59 388L59 389L69 391L69 392L59 393L59 394L59 396L69 398L69 401L59 402L59 403L69 405L69 408L59 409L59 410C60.9601 410.653 61.554 411 59 411L59 412L69 412L69 415L59 416L59 418L59 419L69 419L69 422L59 423L59 424C60.9601 424.653 61.554 425 59 425L59 426L69 426L69 427C66.1634 427.567 66.9264 427.341 69 429L59 430L59 431L59 433L69 435C66.9264 436.659 66.1634 436.433 69 437L69 438L59 439L59 440L69 442L69 445L59 446L59 448L59 449L69 449L69 452L59 453L59 455L59 456L69 456L69 459L59 460L59 461C60.9601 461.653 61.554 462 59 462L59 463L69 463L69 466L59 467L59 468L59 470L69 472L69 473L59 474L59 475C60.9601 475.653 61.554 476 59 476L59 477L69 479C66.9264 480.659 66.1634 480.433 69 481L69 482L59 483L59 484L69 486L69 489L59 490L59 492L59 493L69 493L69 496L59 497L59 498C60.9601 498.653 61.554 499 59 499L59 500L173 500L173 496L174 500L179 499L177 498L177 497L189 496L189 495L187 493L177 493L177 492C179.837 491.433 179.074 491.659 177 490L187 489L189 487L189 486L177 484L177 483L189 482L189 481L186 481C185.471 477.112 180.415 477.247 177 477L177 476C179.529 475.494 179.529 475.506 177 475L177 474L189 473L189 472L177 470C179.074 468.341 179.837 468.567 177 468L177 467L189 464L189 463L177 463L177 462C179.529 461.494 179.529 461.506 177 461L177 460L189 459L189 458L187 456L177 456L177 455C179.837 454.433 179.074 454.659 177 453L187 452L189 450L189 449L177 449L177 448C179.529 447.494 179.529 447.506 177 447L177 446L189 445L189 444L186 444C185.493 440.327 180.294 440.393 177 440L177 439L187 438L189 436L189 435L177 433C179.074 431.341 179.837 431.567 177 431L177 430L189 427L189 426L177 426L177 425C179.529 424.494 179.529 424.506 177 424L177 423L189 422L189 421L187 419L177 419L177 418C179.837 417.433 179.074 417.659 177 416L187 415L189 413L189 412L177 412L177 411C179.529 410.494 179.529 410.506 177 410L177 409L189 408L189 407L186 407C185.493 403.327 180.294 403.393 177 403L177 402L187 401L189 399L189 398L177 396C179.074 394.341 179.837 394.567 177 394L177 393L187 392L187 391L177 389L177 388C179.529 387.494 179.529 387.506 177 387L177 386L189 385L189 384L187 382L177 382L177 381C179.529 380.494 179.529 380.506 177 380L177 379L189 376L189 375L177 375L177 374C179.529 373.494 179.529 373.506 177 373L177 372L189 371L189 370L187 368L177 368L177 367C179.837 366.433 179.074 366.659 177 365L187 364L189 362L189 361L177 359L177 358L189 357L189 356L186 356C185.471 352.112 180.415 352.247 177 352L177 351C179.529 350.494 179.529 350.506 177 350L177 349L189 348L189 347L177 345C179.074 343.341 179.837 343.567 177 343L177 342L189 339L189 338L177 338L177 337C179.529 336.494 179.529 336.506 177 336L177 335L189 334L189 333L187 331L177 331L177 330C179.837 329.433 179.074 329.659 177 328L187 327L189 325L189 324L177 324L177 323C179.529 322.494 179.529 322.506 177 322L177 321L189 320L189 319L186 319C185.493 315.327 180.294 315.393 177 315L177 314L187 313L189 311L189 310L177 308C179.074 306.341 179.837 306.567 177 306L177 305L189 302L189 301L177 301L177 300C179.529 299.494 179.529 299.506 177 299L177 298L189 297L189 296L187 294L177 294L177 293C179.837 292.433 179.074 292.659 177 291L187 290L189 288L189 287L177 287L177 286C179.529 285.494 179.529 285.506 177 285L177 284L189 283L189 282L186 282C185.493 278.327 180.294 278.393 177 278L177 277L187 276L189 274L189 273L177 271C179.074 269.341 179.837 269.567 177 269L177 268L187 267L187 266L177 264L177 263C179.529 262.494 179.529 262.506 177 262L177 261L189 260L189 259L187 257L177 257L177 256C179.529 255.494 179.529 255.506 177 255L177 254L189 251L189 250L177 250L177 249C179.529 248.494 179.529 248.506 177 248L177 247L189 246L189 245L187 243L177 243L177 242C179.837 241.433 179.074 241.659 177 240L187 239L189 237L189 236L177 234L177 233L189 232L189 231L186 231C185.471 227.112 180.415 227.247 177 227L177 226C179.529 225.494 179.529 225.506 177 225L177 224L189 223L189 222L177 220C179.074 218.341 179.837 218.567 177 218L177 217L189 214L189 213L177 213L177 212C179.529 211.494 179.529 211.506 177 211L177 210L189 209L189 208L187 206L177 206L177 205C179.837 204.433 179.074 204.659 177 203L187 202L189 200L189 199L177 199L177 198C179.529 197.494 179.529 197.506 177 197L177 196L189 195L189 194L186 194C185.493 190.327 180.294 190.393 177 190L177 189L187 188L189 186L189 185L177 183C179.074 181.341 179.837 181.567 177 181L177 180L189 177L189 176L177 176L177 175C179.529 174.494 179.529 174.506 177 174L177 173L189 172L189 171L187 169L177 169L177 168C179.837 167.433 179.074 167.659 177 166L187 165L189 163L189 162L177 162L177 161C179.529 160.494 179.529 160.506 177 160L177 159L189 158L189 157L186 157C185.493 153.327 180.294 153.393 177 153L177 152L187 151L189 149L189 148L177 146C179.074 144.341 179.837 144.567 177 144L177 143L187 142L187 141L177 139L177 138C179.529 137.494 179.529 137.506 177 137L177 136L189 135L189 134L187 132L177 132L177 131C179.529 130.494 179.529 130.506 177 130L177 129L189 126L189 125L177 125L177 124C179.529 123.494 179.529 123.506 177 123L177 122L189 121L189 120L187 118L177 118L177 117C179.837 116.433 179.074 116.659 177 115L187 114L189 112L189 111L177 109L177 108L189 107L189 106L186 106C185.471 102.112 180.415 102.247 177 102L177 101C179.529 100.494 179.529 100.506 177 100L177 99L189 98L189 97L177 95C179.074 93.3411 179.837 93.5673 177 93L177 92L189 89L189 88L177 88L177 87C179.529 86.4943 179.529 86.5057 177 86L177 85L189 84L189 83L187 81L177 81L177 80C179.837 79.4327 179.074 79.6588 177 78L187 77L189 75L189 74L177 74L177 73C179.529 72.4943 179.529 72.5057 177 72L177 71L189 70L189 69L186 69C185.493 65.3269 180.294 65.3934 177 65L177 64L187 63L189 61L189 60L177 58C179.074 56.3411 179.837 56.5673 177 56L177 55L189 52L189 51L177 51L177 50C179.529 49.4943 179.529 49.5057 177 49L177 48L189 47L189 46L187 44L177 44L177 43C179.837 42.4327 179.074 42.6588 177 41L187 40L189 38L189 37L177 37L177 36C179.529 35.4943 179.529 35.5057 177 35L177 34L189 33L189 32L186 32C185.493 28.3269 180.294 28.3934 177 28L177 27L187 26L189 24L189 23L177 21C179.074 19.341 179.837 19.5673 177 19L177 18L187 17L187 16L177 14L177 13C179.529 12.4943 179.529 12.5057 177 12L177 11L189 10L189 9L187 7L177 7L177 6C179.529 5.49429 179.529 5.50571 177 5L177 4L189 1L154 0L69 0z"/>
<path style="fill:#27292a; stroke:none;" d="M70 0L71 1L70 0M73 0L74 1L73 0z"/>
<path style="fill:#2f3132; stroke:none;" d="M186 1C186 5.03189 180.111 4 177 4L177 5C178.96 5.65335 179.554 6 177 6L177 7L187 7L189 9L189 10L177 11L177 12C178.96 12.6534 179.554 13 177 13L177 14L187 16L187 17L177 18L177 19L177 21L189 23L189 24L187 26L177 27L177 28L189 32L189 33L177 34L177 35C178.96 35.6534 179.554 36 177 36L177 37L189 37L189 38L187 40L177 41L177 43L177 44L187 44L189 46L189 47L177 48L177 49C178.96 49.6534 179.554 50 177 50L177 51L189 51L189 52L186 52C186 56.0319 180.111 55 177 55L177 56L177 58L189 60L189 61L187 63L177 64L177 65L189 69L189 70L177 71L177 72C178.96 72.6534 179.554 73 177 73L177 74L189 74L189 75L187 77L177 78L177 80L177 81L187 81L189 83L189 84L177 85L177 86C178.96 86.6534 179.554 87 177 87L177 88L189 88L189 89L186 89C186 93.0319 180.111 92 177 92L177 93L177 95L189 97L189 98L177 99L177 100C178.96 100.653 179.554 101 177 101L177 102L189 106L189 107L177 108L177 109L189 111L189 112L187 114L177 115L177 117L177 118L187 118L189 120L189 121L177 122L177 123C178.96 123.653 179.554 124 177 124L177 125L189 125L189 126L186 126C186 130.032 180.111 129 177 129L177 130C178.96 130.653 179.554 131 177 131L177 132L187 132L189 134L189 135L177 136L177 137C178.96 137.653 179.554 138 177 138L177 139L187 141L187 142L177 143L177 144L177 146L189 148L189 149L187 151L177 152L177 153L189 157L189 158L177 159L177 160C178.96 160.653 179.554 161 177 161L177 162L189 162L189 163L187 165L177 166L177 168L177 169L187 169L189 171L189 172L177 173L177 174C178.96 174.653 179.554 175 177 175L177 176L189 176L189 177L186 177C186 181.032 180.111 180 177 180L177 181L177 183L189 185L189 186L187 188L177 189L177 190L189 194L189 195L177 196L177 197C178.96 197.653 179.554 198 177 198L177 199L189 199L189 200L187 202L177 203L177 205L177 206L187 206L189 208L189 209L177 210L177 211C178.96 211.653 179.554 212 177 212L177 213L189 213L189 214L186 214C186 218.032 180.111 217 177 217L177 218L177 220L189 222L189 223L177 224L177 225C178.96 225.653 179.554 226 177 226L177 227L189 231L189 232L177 233L177 234L189 236L189 237L187 239L177 240L177 242L177 243L187 243L189 245L189 246L177 247L177 248C178.96 248.653 179.554 249 177 249L177 250L189 250L189 251L186 251C186 255.032 180.111 254 177 254L177 255C178.96 255.653 179.554 256 177 256L177 257L187 257L189 259L189 260L177 261L177 262C178.96 262.653 179.554 263 177 263L177 264L187 266L187 267L177 268L177 269L177 271L189 273L189 274L187 276L177 277L177 278L189 282L189 283L177 284L177 285C178.96 285.653 179.554 286 177 286L177 287L189 287L189 288L187 290L177 291L177 293L177 294L187 294L189 296L189 297L177 298L177 299C178.96 299.653 179.554 300 177 300L177 301L189 301L189 302L186 302C186 306.032 180.111 305 177 305L177 306L177 308L189 310L189 311L187 313L177 314L177 315L189 319L189 320L177 321L177 322C178.96 322.653 179.554 323 177 323L177 324L189 324L189 325L187 327L177 328L177 330L177 331L187 331L189 333L189 334L177 335L177 336C178.96 336.653 179.554 337 177 337L177 338L189 338L189 339L186 339C186 343.032 180.111 342 177 342L177 343L177 345L189 347L189 348L177 349L177 350C178.96 350.653 179.554 351 177 351L177 352L189 356L189 357L177 358L177 359L189 361L189 362L187 364L177 365L177 367L177 368L187 368L189 370L189 371L177 372L177 373C178.96 373.653 179.554 374 177 374L177 375L189 375L189 376L186 376C186 380.032 180.111 379 177 379L177 380C178.96 380.653 179.554 381 177 381L177 382L187 382L189 384L189 385L177 386L177 387C178.96 387.653 179.554 388 177 388L177 389L187 391L187 392L177 393L177 394L177 396L189 398L189 399L187 401L177 402L177 403L189 407L189 408L177 409L177 410C178.96 410.653 179.554 411 177 411L177 412L189 412L189 413L187 415L177 416L177 418L177 419L187 419L189 421L189 422L177 423L177 424C178.96 424.653 179.554 425 177 425L177 426L189 426L189 427L186 427C186 431.032 180.111 430 177 430L177 431L177 433L189 435L189 436L187 438L177 439L177 440L189 444L189 445L177 446L177 447C178.96 447.653 179.554 448 177 448L177 449L189 449L189 450L187 452L177 453L177 455L177 456L187 456L189 458L189 459L177 460L177 461C178.96 461.653 179.554 462 177 462L177 463L189 463L189 464L186 464C186 468.032 180.111 467 177 467L177 468L177 470L189 472L189 473L177 474L177 475C178.96 475.653 179.554 476 177 476L177 477L189 481L189 482L177 483L177 484L189 486L189 487L187 489L177 490L177 492L177 493L187 493L189 495L189 496L177 497L177 498C178.96 498.653 179.554 499 177 499L177 500L309 500L340 500C343.577 500 349.461 501.291 350 497L352 500L357 499L355 498L355 497L365 496L365 493L355 493L355 492C357.837 491.433 357.074 491.659 355 490L365 489L365 486L355 484L355 483L365 482L365 481L365 479L355 477L355 476C357.529 475.494 357.529 475.506 355 475L355 474L365 473L365 472L355 470C357.074 468.341 357.837 468.567 355 468L355 467L365 466L365 463L355 463L355 462C357.529 461.494 357.529 461.506 355 461L355 460L365 459L365 456L355 456L355 455C357.837 454.433 357.074 454.659 355 453L365 452L365 449L355 449L355 448C357.837 447.433 357.074 447.659 355 446L365 445L365 442L355 440L355 439L365 438L365 437L365 435L355 433C357.074 431.341 357.837 431.567 355 431L355 430L365 429L365 427L365 426L355 426L355 425C357.529 424.494 357.529 424.506 355 424L355 423L365 422L365 419L355 419L355 418C357.837 417.433 357.074 417.659 355 416L365 415L365 412L355 412L355 411C357.529 410.494 357.529 410.506 355 410L355 409L365 408L365 405L355 403L355 402L365 401L365 398L355 396C357.074 394.341 357.837 394.567 355 394L355 393L365 392L365 391L355 389L355 388C357.529 387.494 357.529 387.506 355 387L355 386L365 385L365 383L365 382L355 382L355 381C357.529 380.494 357.529 380.506 355 380L355 379L365 378L365 375L355 375L355 374C357.529 373.494 357.529 373.506 355 373L355 372L365 371L365 368L355 368L355 367C357.837 366.433 357.074 366.659 355 365L365 364L365 361L355 359L355 358L365 357L365 356L365 354L355 352L355 351C357.529 350.494 357.529 350.506 355 350L355 349L365 348L365 347L355 345C357.074 343.341 357.837 343.567 355 343L355 342L365 341L365 338L355 338L355 337C357.529 336.494 357.529 336.506 355 336L355 335L365 334L365 331L355 331L355 330C357.837 329.433 357.074 329.659 355 328L365 327L365 324L355 324L355 323C357.837 322.433 357.074 322.659 355 321L365 320L365 317L355 315L355 314L365 313L365 312L365 310L355 308C357.074 306.341 357.837 306.567 355 306L355 305L365 304L365 302L365 301L355 301L355 300C357.529 299.494 357.529 299.506 355 299L355 298L365 297L365 294L355 294L355 293C357.837 292.433 357.074 292.659 355 291L365 290L365 287L355 287L355 286C357.529 285.494 357.529 285.506 355 285L355 284L365 283L365 280L355 278L355 277L365 276L365 273L355 271C357.074 269.341 357.837 269.567 355 269L355 268L365 267L365 266L355 264L355 263C357.529 262.494 357.529 262.506 355 262L355 261L365 260L365 258L365 257L355 257L355 256C357.529 255.494 357.529 255.506 355 255L355 254L365 253L365 250L355 250L355 249C357.529 248.494 357.529 248.506 355 248L355 247L365 246L365 243L355 243L355 242C357.837 241.433 357.074 241.659 355 240L365 239L365 236L355 234L355 233L365 232L365 231L365 229L355 227L355 226C357.529 225.494 357.529 225.506 355 225L355 224L365 223L365 222L355 220C357.074 218.341 357.837 218.567 355 218L355 217L365 216L365 213L355 213L355 212C357.529 211.494 357.529 211.506 355 211L355 210L365 209L365 206L355 206L355 205C357.837 204.433 357.074 204.659 355 203L365 202L365 199L355 199L355 198C357.837 197.433 357.074 197.659 355 196L365 195L365 192L355 190L355 189L365 188L365 187L365 185L355 183C357.074 181.341 357.837 181.567 355 181L355 180L365 179L365 177L365 176L355 176L355 175C357.529 174.494 357.529 174.506 355 174L355 173L365 172L365 169L355 169L355 168C357.837 167.433 357.074 167.659 355 166L365 165L365 162L355 162L355 161C357.529 160.494 357.529 160.506 355 160L355 159L365 158L365 155L355 153L355 152L365 151L365 148L355 146C357.074 144.341 357.837 144.567 355 144L355 143L365 142L365 141L355 139L355 138C357.529 137.494 357.529 137.506 355 137L355 136L365 135L365 133L365 132L355 132L355 131C357.529 130.494 357.529 130.506 355 130L355 129L365 128L365 125L355 125L355 124C357.529 123.494 357.529 123.506 355 123L355 122L365 121L365 118L355 118L355 117C357.837 116.433 357.074 116.659 355 115L365 114L365 111L355 109L355 108L365 107L365 106L365 104L355 102L355 101C357.529 100.494 357.529 100.506 355 100L355 99L365 98L365 97L355 95C357.074 93.3411 357.837 93.5673 355 93L355 92L365 91L365 88L355 88L355 87C357.529 86.4943 357.529 86.5057 355 86L355 85L365 84L365 81L355 81L355 80C357.837 79.4327 357.074 79.6588 355 78L365 77L365 74L355 74L355 73C357.837 72.4327 357.074 72.6588 355 71L365 70L365 67L355 65L355 64L365 63L365 62L365 60L355 58C357.074 56.3411 357.837 56.5673 355 56L355 55L365 54L365 52L365 51L355 51L355 50C357.529 49.4943 357.529 49.5057 355 49L355 48L365 47L365 44L355 44L355 43C357.837 42.4327 357.074 42.6588 355 41L365 40L365 37L355 37L355 36C357.529 35.4943 357.529 35.5057 355 35L355 34L365 33L365 30L355 28L355 27L365 26L365 23L355 21C357.074 19.341 357.837 19.5673 355 19L355 18L365 17L365 16L355 14L355 13C357.529 12.4943 357.529 12.5057 355 12L355 11L365 10L365 8L365 7L355 7L355 6C357.529 5.49429 357.529 5.50571 355 5L355 4L365 3L365 0L244 0C227.734 0 204.592 -4.17838 190 3L191 0L186 1z"/>
<path style="fill:#2a2c2d; stroke:none;" d="M191 0L190 1L190 2L190 3L193 0L191 0z"/>
<path style="fill:#353739; stroke:none;" d="M365 0L364 1L365 3L355 4L355 5C356.96 5.65335 357.554 6 355 6L355 7L365 7L365 8C362.163 8.56732 362.926 8.34116 365 10L355 11L355 12C356.96 12.6534 357.554 13 355 13L355 14L365 16L365 17L355 18L355 19L355 21L365 23L365 26L355 27L355 28L365 30L365 33L355 34L355 35C356.96 35.6534 357.554 36 355 36L355 37L365 37L365 40L355 41L355 43L355 44L365 44L365 47L355 48L355 49C356.96 49.6534 357.554 50 355 50L355 51L365 51L365 52C362.163 52.5673 362.926 52.3412 365 54L355 55L355 56L355 58L365 60C362.927 61.6588 362.163 61.4327 365 62L365 63L355 64L355 65L365 67L365 70L355 71L355 73L355 74L365 74L365 77L355 78L355 80L355 81L365 81L365 84L355 85L355 86C356.96 86.6534 357.554 87 355 87L355 88L365 88L365 91L355 92L355 93L355 95L365 97L365 98L355 99L355 100C356.96 100.653 357.554 101 355 101L355 102L365 104C362.927 105.659 362.163 105.433 365 106L365 107L355 108L355 109L365 111L365 114L355 115L355 117L355 118L365 118L365 121L355 122L355 123C356.96 123.653 357.554 124 355 124L355 125L365 125L365 128L355 129L355 130C356.96 130.653 357.554 131 355 131L355 132L365 132L365 133C362.163 133.567 362.926 133.341 365 135L355 136L355 137C356.96 137.653 357.554 138 355 138L355 139L365 141L365 142L355 143L355 144L355 146L365 148L365 151L355 152L355 153L365 155L365 158L355 159L355 160C356.96 160.653 357.554 161 355 161L355 162L365 162L365 165L355 166L355 168L355 169L365 169L365 172L355 173L355 174C356.96 174.653 357.554 175 355 175L355 176L365 176L365 177C362.163 177.567 362.926 177.341 365 179L355 180L355 181L355 183L365 185C362.927 186.659 362.163 186.433 365 187L365 188L355 189L355 190L365 192L365 195L355 196L355 198L355 199L365 199L365 202L355 203L355 205L355 206L365 206L365 209L355 210L355 211C356.96 211.653 357.554 212 355 212L355 213L365 213L365 216L355 217L355 218L355 220L365 222L365 223L355 224L355 225C356.96 225.653 357.554 226 355 226L355 227L365 229C362.927 230.659 362.163 230.433 365 231L365 232L355 233L355 234L365 236L365 239L355 240L355 242L355 243L365 243L365 246L355 247L355 248C356.96 248.653 357.554 249 355 249L355 250L365 250L365 253L355 254L355 255C356.96 255.653 357.554 256 355 256L355 257L365 257L365 258C362.163 258.567 362.926 258.341 365 260L355 261L355 262C356.96 262.653 357.554 263 355 263L355 264L365 266L365 267L355 268L355 269L355 271L365 273L365 276L355 277L355 278L365 280L365 283L355 284L355 285C356.96 285.653 357.554 286 355 286L355 287L365 287L365 290L355 291L355 293L355 294L365 294L365 297L355 298L355 299C356.96 299.653 357.554 300 355 300L355 301L365 301L365 302C362.163 302.567 362.926 302.341 365 304L355 305L355 306L355 308L365 310C362.926 311.659 362.163 311.433 365 312L365 313L355 314L355 315L365 317L365 320L355 321L355 323L355 324L365 324L365 327L355 328L355 330L355 331L365 331L365 334L355 335L355 336C356.96 336.653 357.554 337 355 337L355 338L365 338L365 341L355 342L355 343L355 345L365 347L365 348L355 349L355 350C356.96 350.653 357.554 351 355 351L355 352L365 354C362.926 355.659 362.163 355.433 365 356L365 357L355 358L355 359L365 361L365 364L355 365L355 367L355 368L365 368L365 371L355 372L355 373C356.96 373.653 357.554 374 355 374L355 375L365 375L365 378L355 379L355 380C356.96 380.653 357.554 381 355 381L355 382L365 382L365 383C362.163 383.567 362.926 383.341 365 385L355 386L355 387C356.96 387.653 357.554 388 355 388L355 389L365 391L365 392L355 393L355 394L355 396L365 398L365 401L355 402L355 403L365 405L365 408L355 409L355 410C356.96 410.653 357.554 411 355 411L355 412L365 412L365 415L355 416L355 418L355 419L365 419L365 422L355 423L355 424C356.96 424.653 357.554 425 355 425L355 426L365 426L365 427C362.163 427.567 362.926 427.341 365 429L355 430L355 431L355 433L365 435C362.926 436.659 362.163 436.433 365 437L365 438L355 439L355 440L365 442L365 445L355 446L355 448L355 449L365 449L365 452L355 453L355 455L355 456L365 456L365 459L355 460L355 461C356.96 461.653 357.554 462 355 462L355 463L365 463L365 466L355 467L355 468L355 470L365 472L365 473L355 474L355 475C356.96 475.653 357.554 476 355 476L355 477L365 479C362.926 480.659 362.163 480.433 365 481L365 482L355 483L355 484L365 486L365 489L355 490L355 492L355 493L365 493L365 496L355 497L355 498C356.96 498.653 357.554 499 355 499L355 500L474 500L533 500L534 499L533 497L543 496L543 495C541.04 494.347 540.446 494 543 494L543 493L533 493L533 492C535.837 491.433 535.074 491.659 533 490L543 489L543 488C541.04 487.347 540.446 487 543 487L543 486L533 484L533 483L543 482L543 481L543 479L533 477L533 474L543 473L543 472L533 470L533 467L543 466L543 465C541.04 464.347 540.446 464 543 464L543 463L533 463L533 460L543 459L543 457L543 456L533 456L533 453L543 452L543 451C541.04 450.347 540.446 450 543 450L543 449L533 449L533 448C535.837 447.433 535.074 447.659 533 446L543 445L543 444L543 442L533 440L533 439L543 438L543 437L543 435L533 433L533 430L543 429L543 427L543 426L533 426L533 423L543 422L543 420L543 419L533 419L533 416L543 415L543 414C541.04 413.347 540.446 413 543 413L543 412L533 412L533 409L543 408L543 407L543 405L533 403L533 402L543 401L543 400C541.04 399.347 540.446 399 543 399L543 398L533 396C535.074 394.341 535.837 394.567 533 394L533 393L543 392L543 391L533 389L533 386L543 385L543 383L543 382L533 382L533 379L543 378L543 377C541.04 376.347 540.446 376 543 376L543 375L533 375L533 372L543 371L543 370C541.04 369.347 540.446 369 543 369L543 368L533 368L533 367C535.837 366.433 535.074 366.659 533 365L543 364L543 363C541.04 362.347 540.446 362 543 362L543 361L533 359L533 358L543 357L543 356L543 354L533 352L533 349L543 348L543 347L533 345L533 342L543 341L543 340C541.04 339.347 540.446 339 543 339L543 338L533 338L533 335L543 334L543 332L543 331L533 331L533 328L543 327L543 326C541.04 325.347 540.446 325 543 325L543 324L533 324L533 323C535.837 322.433 535.074 322.659 533 321L543 320L543 319L543 317L533 315L533 314L543 313L543 312L543 310L533 308L533 305L543 304L543 302L543 301L533 301L533 298L543 297L543 295L543 294L533 294L533 291L543 290L543 289C541.04 288.347 540.446 288 543 288L543 287L533 287L533 284L543 283L543 282L543 280L533 278L533 277L543 276L543 275C541.04 274.347 540.446 274 543 274L543 273L533 271C535.074 269.341 535.837 269.567 533 269L533 268L543 267L543 266L533 264L533 261L543 260L543 258L543 257L533 257L533 254L543 253L543 252C541.04 251.347 540.446 251 543 251L543 250L533 250L533 247L543 246L543 245C541.04 244.347 540.446 244 543 244L543 243L533 243L533 242C535.837 241.433 535.074 241.659 533 240L543 239L543 238C541.04 237.347 540.446 237 543 237L543 236L533 234L533 233L543 232L543 231L543 229L533 227L533 224L543 223L543 222L533 220L533 217L543 216L543 215C541.04 214.347 540.446 214 543 214L543 213L533 213L533 210L543 209L543 207L543 206L533 206L533 203L543 202L543 201C541.04 200.347 540.446 200 543 200L543 199L533 199L533 198C535.837 197.433 535.074 197.659 533 196L543 195L543 194L543 192L533 190L533 189L543 188L543 187L543 185L533 183L533 180L543 179L543 177L543 176L533 176L533 173L543 172L543 170L543 169L533 169L533 166L543 165L543 164C541.04 163.347 540.446 163 543 163L543 162L533 162L533 159L543 158L543 157L543 155L533 153L533 152L543 151L543 150C541.04 149.347 540.446 149 543 149L543 148L533 146C535.074 144.341 535.837 144.567 533 144L533 143L543 142L543 141L533 139L533 136L543 135L543 133L543 132L533 132L533 129L543 128L543 127C541.04 126.347 540.446 126 543 126L543 125L533 125L533 122L543 121L543 120C541.04 119.347 540.446 119 543 119L543 118L533 118L533 117C535.837 116.433 535.074 116.659 533 115L543 114L543 113C541.04 112.347 540.446 112 543 112L543 111L533 109L533 108L543 107L543 106L543 104L533 102L533 99L543 98L543 97L533 95L533 92L543 91L543 90C541.04 89.3466 540.446 89 543 89L543 88L533 88L533 85L543 84L543 82L543 81L533 81L533 78L543 77L543 76C541.04 75.3466 540.446 75 543 75L543 74L533 74L533 73C535.837 72.4326 535.074 72.6588 533 71L543 70L543 69L543 67L533 65L533 64L543 63L543 62L543 60L533 58L533 55L543 54L543 52L543 51L533 51L533 48L543 47L543 45L543 44L533 44L533 41L543 40L543 39C541.04 38.3466 540.446 38 543 38L543 37L533 37L533 34L543 33L543 32L543 30L533 28L533 27L543 26L543 25C541.04 24.3466 540.446 24 543 24L543 23L533 21C535.074 19.341 535.837 19.5673 533 19L533 18L543 17L543 16L533 14L533 11L543 10L543 8L543 7L533 7L533 4L543 3L543 2C541.04 1.34665 540.446 1 543 1C529.879 -4.50571 506.3 0 492 0C450.433 0 406.289 4.29111 365 0z"/>
<path style="fill:#2f3132; stroke:none;" d="M366 0L367 1L366 0M369 0L370 1L369 0z"/>
<path style="fill:#3c3e40; stroke:none;" d="M541 1L543 2L543 3L533 4L533 7L543 7L543 8C540.163 8.56732 540.926 8.34109 543 10L533 11L533 14L543 16L543 17L533 18L533 19L533 21L543 23L543 24C540.471 24.5057 540.471 24.4943 543 25L543 26L533 27L533 28L543 30C540.927 31.6588 540.163 31.4327 543 32L543 33L533 34L533 37L543 37L543 38C540.471 38.5057 540.471 38.4943 543 39L543 40L533 41L533 44L543 44L543 45C540.163 45.5673 540.926 45.3411 543 47L533 48L533 51L543 51L543 52C540.163 52.5673 540.926 52.3411 543 54L533 55L533 58L543 60C540.927 61.6588 540.163 61.4327 543 62L543 63L533 64L533 65L543 67C540.927 68.6588 540.163 68.4327 543 69L543 70L533 71L533 73L533 74L543 74L543 75C540.471 75.5057 540.471 75.4943 543 76L543 77L533 78L533 81L543 81L543 82C540.163 82.5673 540.926 82.3411 543 84L533 85L533 88L543 88L543 89C540.471 89.5057 540.471 89.4943 543 90L543 91L533 92L533 95L543 97L543 98L533 99L533 102L543 104C540.927 105.659 540.163 105.433 543 106L543 107L533 108L533 109L543 111L543 112C540.471 112.506 540.471 112.494 543 113L543 114L533 115L533 117L533 118L543 118L543 119C540.471 119.506 540.471 119.494 543 120L543 121L533 122L533 125L543 125L543 126C540.471 126.506 540.471 126.494 543 127L543 128L533 129L533 132L543 132L543 133C540.163 133.567 540.926 133.341 543 135L533 136L533 139L543 141L543 142L533 143L533 144L533 146L543 148L543 149C540.471 149.506 540.471 149.494 543 150L543 151L533 152L533 153L543 155C540.927 156.659 540.163 156.433 543 157L543 158L533 159L533 162L543 162L543 163C540.471 163.506 540.471 163.494 543 164L543 165L533 166L533 169L543 169L543 170C540.163 170.567 540.926 170.341 543 172L533 173L533 176L543 176L543 177C540.163 177.567 540.926 177.341 543 179L533 180L533 183L543 185C540.927 186.659 540.163 186.433 543 187L543 188L533 189L533 190L543 192C540.927 193.659 540.163 193.433 543 194L543 195L533 196L533 198L533 199L543 199L543 200C540.471 200.506 540.471 200.494 543 201L543 202L533 203L533 206L543 206L543 207C540.163 207.567 540.926 207.341 543 209L533 210L533 213L543 213L543 214C540.471 214.506 540.471 214.494 543 215L543 216L533 217L533 220L543 222L543 223L533 224L533 227L543 229C540.927 230.659 540.163 230.433 543 231L543 232L533 233L533 234L543 236L543 237C540.471 237.506 540.471 237.494 543 238L543 239L533 240L533 242L533 243L543 243L543 244C540.471 244.506 540.471 244.494 543 245L543 246L533 247L533 250L543 250L543 251C540.471 251.506 540.471 251.494 543 252L543 253L533 254L533 257L543 257L543 258C540.163 258.567 540.926 258.341 543 260L533 261L533 264L543 266L543 267L533 268L533 269L533 271L543 273L543 274C540.471 274.506 540.471 274.494 543 275L543 276L533 277L533 278L543 280C540.927 281.659 540.163 281.433 543 282L543 283L533 284L533 287L543 287L543 288C540.471 288.506 540.471 288.494 543 289L543 290L533 291L533 294L543 294L543 295C540.163 295.567 540.926 295.341 543 297L533 298L533 301L543 301L543 302C540.163 302.567 540.926 302.341 543 304L533 305L533 308L543 310C540.927 311.659 540.163 311.433 543 312L543 313L533 314L533 315L543 317C540.927 318.659 540.163 318.433 543 319L543 320L533 321L533 323L533 324L543 324L543 325C540.471 325.506 540.471 325.494 543 326L543 327L533 328L533 331L543 331L543 332C540.163 332.567 540.926 332.341 543 334L533 335L533 338L543 338L543 339C540.471 339.506 540.471 339.494 543 340L543 341L533 342L533 345L543 347L543 348L533 349L533 352L543 354C540.927 355.659 540.163 355.433 543 356L543 357L533 358L533 359L543 361L543 362C540.471 362.506 540.471 362.494 543 363L543 364L533 365L533 367L533 368L543 368L543 369C540.471 369.506 540.471 369.494 543 370L543 371L533 372L533 375L543 375L543 376C540.471 376.506 540.471 376.494 543 377L543 378L533 379L533 382L543 382L543 383C540.163 383.567 540.926 383.341 543 385L533 386L533 389L543 391L543 392L533 393L533 394L533 396L543 398L543 399C540.471 399.506 540.471 399.494 543 400L543 401L533 402L533 403L543 405C540.927 406.659 540.163 406.433 543 407L543 408L533 409L533 412L543 412L543 413C540.471 413.506 540.471 413.494 543 414L543 415L533 416L533 419L543 419L543 420C540.163 420.567 540.926 420.341 543 422L533 423L533 426L543 426L543 427C540.163 427.567 540.926 427.341 543 429L533 430L533 433L543 435C540.927 436.659 540.163 436.433 543 437L543 438L533 439L533 440L543 442C540.927 443.659 540.163 443.433 543 444L543 445L533 446L533 448L533 449L543 449L543 450C540.471 450.506 540.471 450.494 543 451L543 452L533 453L533 456L543 456L543 457C540.163 457.567 540.926 457.341 543 459L533 460L533 463L543 463L543 464C540.471 464.506 540.471 464.494 543 465L543 466L533 467L533 470L543 472L543 473L533 474L533 477L543 479C540.926 480.659 540.163 480.433 543 481L543 482L533 483L533 484L543 486L543 487C540.471 487.506 540.471 487.494 543 488L543 489L533 490L533 492L533 493L543 493L543 494C540.471 494.506 540.471 494.494 543 495L543 496L533 497L533 500L750 500L750 0L604 0L562 0L549 2L549 3L546 0L541 1z"/>
<path style="fill:#353739; stroke:none;" d="M545 1L545 2L549 3L549 2L548 0L545 1z"/>
<path style="fill:#27292a; stroke:none;" d="M72 1C73.1266 3.00595 73.8734 3.00592 75 1L72 1z"/>
<path style="fill:#2f3132; stroke:none;" d="M368 1C369.127 3.00592 369.873 3.00586 371 1L368 1z"/>
<path style="fill:#2a2c2d; stroke:none;" d="M54 4L54 7L57 6L57 5L54 4z"/>
<path style="fill:#2f3132; stroke:none;" d="M172 4L172 7L175 6L175 5L172 4z"/>
<path style="fill:#353739; stroke:none;" d="M350 4L350 7L353 6L353 5L350 4z"/>
<path style="fill:#3c3e40; stroke:none;" d="M527 4L527 5C528.96 5.65338 529.554 6 527 6L527 7L530 4L527 4M531 4L532 5L531 4z"/>
<path style="fill:#27292a; stroke:none;" d="M73 7C72.4254 9.39609 72.5249 9.48703 75 10L75 9L73 7z"/>
<path style="fill:#2f3132; stroke:none;" d="M369 7C368.425 9.39627 368.525 9.48703 371 10L371 9L369 7z"/>
<path style="fill:#2a2c2d; stroke:none;" d="M64 8L65 9L64 8M190 8L194 10L190 8z"/>
<path style="fill:#353739; stroke:none;" d="M360 8L361 9L360 8M545 9L545 10L549 10L545 9z"/>
<path style="fill:#27292a; stroke:none;" d="M70 9L71 10L70 9z"/>
<path style="fill:#2f3132; stroke:none;" d="M366 9L367 10L366 9z"/>
<path style="fill:#2a2c2d; stroke:none;" d="M54 11L53 13L53 14L57 13L57 12L54 11z"/>
<path style="fill:#2f3132; stroke:none;" d="M173 11L173 15L173 11z"/>
<path style="fill:#353739; stroke:none;" d="M350 11L349 13L349 14L353 13L353 12L350 11z"/>
<path style="fill:#3c3e40; stroke:none;" d="M528 11L527 14L530 14L528 11z"/>
<path style="fill:#353739; stroke:none;" d="M528 12L529 13L528 12z"/>
<path style="fill:#3c3e40; stroke:none;" d="M531 13L532 14L531 13z"/>
<path style="fill:#27292a; stroke:none;" d="M72 18L75 15L73 15L72 18z"/>
<path style="fill:#2a2c2d; stroke:none;" d="M190 16L190 17L194 17L190 16z"/>
<path style="fill:#2f3132; stroke:none;" d="M368 18L371 15L369 15L368 18z"/>
<path style="fill:#353739; stroke:none;" d="M545 16L545 17L549 17L545 16z"/>
<path style="fill:#2f3132; stroke:none;" d="M173 18L173 22L173 18z"/>
<path style="fill:#3c3e40; stroke:none;" d="M528 18L527 20L527 21C529.566 20.4493 529.86 19.8602 528 18M531 18L532 19L531 18z"/>
<path style="fill:#2a2c2d; stroke:none;" d="M53 20L53 21L57 21L53 20z"/>
<path style="fill:#353739; stroke:none;" d="M349 20L349 21L353 21L349 20M537 19L538 20L537 19M545 23L545 24L549 24L545 23z"/>
<path style="fill:#27292a; stroke:none;" d="M70 23L71 24L70 23M72 23L73 26L74 26L75 23L72 23z"/>
<path style="fill:#2a2c2d; stroke:none;" d="M190 23L191 26L192 26L193 23L190 23z"/>
<path style="fill:#2f3132; stroke:none;" d="M366 23L367 24L366 23M368 23L369 26L370 26L371 23L368 23z"/>
<path style="fill:#2a2c2d; stroke:none;" d="M73 24L74 25L73 24z"/>
<path style="fill:#353739; stroke:none;" d="M369 24L370 25L369 24z"/>
<path style="fill:#2a2c2d; stroke:none;" d="M53 27L53 28L57 28L53 27z"/>
<path style="fill:#2f3132; stroke:none;" d="M173 26L172 27L175 29L173 26z"/>
<path style="fill:#353739; stroke:none;" d="M349 27L349 28L353 28L349 27z"/>
<path style="fill:#3c3e40; stroke:none;" d="M527 26L530 29L527 26M531 27L532 28L531 27z"/>
<path style="fill:#27292a; stroke:none;" d="M72 30L73 33L74 33L75 31L72 30z"/>
<path style="fill:#2a2c2d; stroke:none;" d="M190 30L193 33L193 32C191.04 31.3466 190.446 31 193 31L190 30z"/>
<path style="fill:#2f3132; stroke:none;" d="M368 30L369 33L370 33L371 31L368 30z"/>
<path style="fill:#353739; stroke:none;" d="M545 31L545 32L548 33L548 30L545 31z"/>
<path style="fill:#27292a; stroke:none;" d="M70 32L71 33L70 32z"/>
<path style="fill:#2f3132; stroke:none;" d="M366 32L367 33L366 32z"/>
<path style="fill:#2a2c2d; stroke:none;" d="M53 34L53 35L57 35L53 34z"/>
<path style="fill:#2f3132; stroke:none;" d="M173 33L174 37L173 33z"/>
<path style="fill:#353739; stroke:none;" d="M349 34L350 37L353 34L349 34z"/>
<path style="fill:#3c3e40; stroke:none;" d="M527 34L528 37L529 37L530 34L527 34z"/>
<path style="fill:#353739; stroke:none;" d="M528 35L529 36L528 35z"/>
<path style="fill:#3c3e40; stroke:none;" d="M531 36L532 37L531 36z"/>
<path style="fill:#27292a; stroke:none;" d="M70 37L71 38L70 37M72 37L72 40L75 40L75 37L72 37z"/>
<path style="fill:#2a2c2d; stroke:none;" d="M190 38L190 39L193 40L193 37L190 38z"/>
<path style="fill:#2f3132; stroke:none;" d="M366 37L367 38L366 37M368 37L368 40L371 40L371 37L368 37z"/>
<path style="fill:#353739; stroke:none;" d="M545 38L545 39L548 40L548 37L545 38z"/>
<path style="fill:#2a2c2d; stroke:none;" d="M73 38L74 39L73 38z"/>
<path style="fill:#353739; stroke:none;" d="M369 38L370 39L369 38z"/>
<path style="fill:#2a2c2d; stroke:none;" d="M54 41L54 44L57 43L57 42L54 41z"/>
<path style="fill:#2f3132; stroke:none;" d="M172 41L172 44L175 41L172 41z"/>
<path style="fill:#353739; stroke:none;" d="M350 41L350 44L353 43L353 42L350 41z"/>
<path style="fill:#3c3e40; stroke:none;" d="M527 41L527 42L528 44L529 44L530 41L527 41M531 41L532 42L531 41z"/>
<path style="fill:#27292a; stroke:none;" d="M73 44C72.4254 46.3961 72.5249 46.487 75 47L75 46L73 44z"/>
<path style="fill:#2a2c2d; stroke:none;" d="M191 44C190.446 46.5679 190.384 47.0271 193 47L191 46L193 45L191 44z"/>
<path style="fill:#2f3132; stroke:none;" d="M369 44C368.425 46.3962 368.525 46.487 371 47L371 46L369 44z"/>
<path style="fill:#353739; stroke:none;" d="M545 45L545 46L549 47L549 46L548 44L545 45z"/>
<path style="fill:#27292a; stroke:none;" d="M70 46L71 47L70 46z"/>
<path style="fill:#2f3132; stroke:none;" d="M366 46L367 47L366 46z"/>
<path style="fill:#2a2c2d; stroke:none;" d="M54 48L54 51L57 50L57 49L54 48z"/>
<path style="fill:#2f3132; stroke:none;" d="M172 48L172 51L175 50L175 49L172 48z"/>
<path style="fill:#353739; stroke:none;" d="M350 48L350 51L353 50L353 49L350 48z"/>
<path style="fill:#3c3e40; stroke:none;" d="M528 48L527 49L527 50L527 51L530 48L528 48z"/>
<path style="fill:#353739; stroke:none;" d="M528 49L529 50L528 49z"/>
<path style="fill:#3c3e40; stroke:none;" d="M531 50L532 51L531 50z"/>
<path style="fill:#27292a; stroke:none;" d="M70 51L71 52L70 51M73 51L72 55C74.1834 53.5806 74.6428 53.0791 73 51z"/>
<path style="fill:#2f3132; stroke:none;" d="M366 51L367 52L366 51M369 51L368 55C370.183 53.5805 370.643 53.0791 369 51z"/>
<path style="fill:#2a2c2d; stroke:none;" d="M73 52L74 53L73 52M190 53L190 54L194 54L190 53z"/>
<path style="fill:#353739; stroke:none;" d="M369 52L370 53L369 52M545 53L545 54L549 54L545 53z"/>
<path style="fill:#2a2c2d; stroke:none;" d="M54 55L53 57L53 58L57 57L57 56L54 55z"/>
<path style="fill:#2f3132; stroke:none;" d="M173 55L173 59L173 55z"/>
<path style="fill:#353739; stroke:none;" d="M350 55L349 57L349 58L353 57L353 56L350 55z"/>
<path style="fill:#3c3e40; stroke:none;" d="M528 55L527 57L527 58C529.566 57.4493 529.86 56.8602 528 55M531 55L532 56L531 55z"/>
<path style="fill:#27292a; stroke:none;" d="M72 59L75 62L72 59z"/>
<path style="fill:#2f3132; stroke:none;" d="M368 59L371 62L368 59z"/>
<path style="fill:#353739; stroke:none;" d="M545 60L545 61L549 61L545 60z"/>
<path style="fill:#27292a; stroke:none;" d="M70 60L71 61L70 60z"/>
<path style="fill:#2a2c2d; stroke:none;" d="M190 60L190 61L194 61L190 60z"/>
<path style="fill:#2f3132; stroke:none;" d="M366 60L367 61L366 60z"/>
<path style="fill:#2a2c2d; stroke:none;" d="M53 64L53 65L57 65L53 64z"/>
<path style="fill:#2f3132; stroke:none;" d="M172 65L173 66L175 63L172 65z"/>
<path style="fill:#353739; stroke:none;" d="M349 64L349 65L353 65L349 64z"/>
<path style="fill:#3c3e40; stroke:none;" d="M527 63L530 66L527 63M531 64L532 65L531 64z"/>
<path style="fill:#2a2c2d; stroke:none;" d="M191 66L191 70L192 70L193 67L191 66z"/>
<path style="fill:#353739; stroke:none;" d="M546 66L548 70L549 67L546 66z"/>
<path style="fill:#27292a; stroke:none;" d="M72 67L73 70L74 70L75 68L72 67z"/>
<path style="fill:#2f3132; stroke:none;" d="M368 67L369 70L370 70L371 68L368 67z"/>
<path style="fill:#27292a; stroke:none;" d="M70 69L71 70L70 69z"/>
<path style="fill:#2f3132; stroke:none;" d="M366 69L367 70L366 69z"/>
<path style="fill:#2a2c2d; stroke:none;" d="M53 71L53 72L57 72L53 71z"/>
<path style="fill:#2f3132; stroke:none;" d="M173 70L172 71L175 73L173 70z"/>
<path style="fill:#353739; stroke:none;" d="M349 71L349 72L353 72L349 71z"/>
<path style="fill:#3c3e40; stroke:none;" d="M529 70L528 74L529 74L529 70z"/>
<path style="fill:#353739; stroke:none;" d="M528 72L529 73L528 72z"/>
<path style="fill:#3c3e40; stroke:none;" d="M531 73L532 74L531 73z"/>
<path style="fill:#27292a; stroke:none;" d="M70 74L71 75L70 74M72 77L75 74L72 77z"/>
<path style="fill:#2a2c2d; stroke:none;" d="M190 75L190 76L193 77L193 74L190 75z"/>
<path style="fill:#2f3132; stroke:none;" d="M366 74L367 75L366 74M368 77L371 74L368 77z"/>
<path style="fill:#353739; stroke:none;" d="M545 75L545 76L548 77L548 74L545 75z"/>
<path style="fill:#2a2c2d; stroke:none;" d="M73 75L74 76L73 75z"/>
<path style="fill:#353739; stroke:none;" d="M369 75L370 76L369 75z"/>
<path style="fill:#2f3132; stroke:none;" d="M173 77L174 81L173 77z"/>
<path style="fill:#2a2c2d; stroke:none;" d="M53 78L53 79L54 81L57 80L57 79L53 78z"/>
<path style="fill:#353739; stroke:none;" d="M349 78L349 79L350 81L353 80L353 79L349 78z"/>
<path style="fill:#3c3e40; stroke:none;" d="M527 78L527 79L528 81L529 81L530 78L527 78M531 78L532 79L531 78z"/>
<path style="fill:#27292a; stroke:none;" d="M73 81C72.4254 83.3961 72.5249 83.487 75 84L75 83L73 81z"/>
<path style="fill:#2a2c2d; stroke:none;" d="M193 84L193 83C191.04 82.3466 190.446 82 193 82C190.473 81.126 190.016 83.3594 193 84z"/>
<path style="fill:#2f3132; stroke:none;" d="M369 81C368.425 83.3962 368.525 83.487 371 84L371 83L369 81z"/>
<path style="fill:#353739; stroke:none;" d="M545 82L545 83L548 84L548 81L545 82z"/>
<path style="fill:#27292a; stroke:none;" d="M70 83L71 84L70 83z"/>
<path style="fill:#2f3132; stroke:none;" d="M366 83L367 84L366 83z"/>
<path style="fill:#2a2c2d; stroke:none;" d="M54 85L54 88L57 87L57 86L54 85z"/>
<path style="fill:#2f3132; stroke:none;" d="M172 85L172 88L175 85L172 85z"/>
<path style="fill:#353739; stroke:none;" d="M350 85L350 88L353 87L353 86L350 85z"/>
<path style="fill:#3c3e40; stroke:none;" d="M527 85L530 88L527 85z"/>
<path style="fill:#353739; stroke:none;" d="M528 86L529 87L528 86z"/>
<path style="fill:#3c3e40; stroke:none;" d="M531 87L532 88L531 87z"/>
<path style="fill:#27292a; stroke:none;" d="M70 88L71 89L70 88M73 88L72 91L75 91L73 88z"/>
<path style="fill:#2a2c2d; stroke:none;" d="M191 88L190 91L193 91L191 88z"/>
<path style="fill:#2f3132; stroke:none;" d="M366 88L367 89L366 88M369 88L368 91L371 91L369 88z"/>
<path style="fill:#353739; stroke:none;" d="M547 88L545 91L549 91L547 88z"/>
<path style="fill:#2a2c2d; stroke:none;" d="M73 89L74 90L73 89z"/>
<path style="fill:#353739; stroke:none;" d="M369 89L370 90L369 89z"/>
<path style="fill:#2a2c2d; stroke:none;" d="M54 92L54 95L57 94L57 93L54 92z"/>
<path style="fill:#2f3132; stroke:none;" d="M172 92L173 96L172 92z"/>
<path style="fill:#353739; stroke:none;" d="M350 92L350 95L353 94L353 93L350 92z"/>
<path style="fill:#3c3e40; stroke:none;" d="M528 92L527 94L527 95C529.566 94.4493 529.86 93.8602 528 92M531 92L532 93L531 92z"/>
<path style="fill:#27292a; stroke:none;" d="M72 96L75 99L72 96z"/>
<path style="fill:#2f3132; stroke:none;" d="M368 96L371 99L368 96z"/>
<path style="fill:#353739; stroke:none;" d="M545 97L545 98L549 98L545 97z"/>
<path style="fill:#27292a; stroke:none;" d="M70 97L71 98L70 97z"/>
<path style="fill:#2a2c2d; stroke:none;" d="M190 97L190 98L194 98L190 97z"/>
<path style="fill:#2f3132; stroke:none;" d="M366 97L367 98L366 97M173 99L173 103L173 99z"/>
<path style="fill:#3c3e40; stroke:none;" d="M528 99L527 102L530 102L528 99z"/>
<path style="fill:#2a2c2d; stroke:none;" d="M53 101L53 102L57 102L53 101z"/>
<path style="fill:#353739; stroke:none;" d="M349 101L349 102L353 102L349 101M528 100L529 101L528 100z"/>
<path style="fill:#3c3e40; stroke:none;" d="M531 101L532 102L531 101z"/>
<path style="fill:#2a2c2d; stroke:none;" d="M190 106L194 104L190 106z"/>
<path style="fill:#353739; stroke:none;" d="M545 104L545 105L549 105L545 104z"/>
<path style="fill:#27292a; stroke:none;" d="M72 104L73 107L74 107L75 105L72 104z"/>
<path style="fill:#2f3132; stroke:none;" d="M368 104L369 107L370 107L371 105L368 104z"/>
<path style="fill:#2a2c2d; stroke:none;" d="M64 105L65 106L64 105z"/>
<path style="fill:#353739; stroke:none;" d="M360 105L361 106L360 105z"/>
<path style="fill:#27292a; stroke:none;" d="M70 106L71 107L70 106z"/>
<path style="fill:#2f3132; stroke:none;" d="M366 106L367 107L366 106z"/>
<path style="fill:#2a2c2d; stroke:none;" d="M53 108L53 109L57 109L53 108z"/>
<path style="fill:#2f3132; stroke:none;" d="M172 109L173 110L175 107L172 109z"/>
<path style="fill:#353739; stroke:none;" d="M349 108L349 109L353 109L349 108z"/>
<path style="fill:#3c3e40; stroke:none;" d="M529 107L527 110C529.259 109.538 530.212 109.145 529 107z"/>
<path style="fill:#27292a; stroke:none;" d="M70 111L71 112L70 111M72 111L73 114L74 114L75 111L72 111z"/>
<path style="fill:#2a2c2d; stroke:none;" d="M190 111L193 114L190 111z"/>
<path style="fill:#2f3132; stroke:none;" d="M366 111L367 112L366 111M368 111L369 114L370 114L371 111L368 111z"/>
<path style="fill:#353739; stroke:none;" d="M545 112L545 113L548 114L549 112L545 112z"/>
<path style="fill:#2a2c2d; stroke:none;" d="M73 112L74 113L73 112z"/>
<path style="fill:#353739; stroke:none;" d="M369 112L370 113L369 112z"/>
<path style="fill:#2a2c2d; stroke:none;" d="M53 115L53 116L57 116L53 115z"/>
<path style="fill:#2f3132; stroke:none;" d="M173 114L174 118L173 114z"/>
<path style="fill:#353739; stroke:none;" d="M349 115L349 116L353 116L349 115z"/>
<path style="fill:#3c3e40; stroke:none;" d="M527 115L527 116L528 118L529 118L530 115L527 115M531 115L532 116L531 115z"/>
<path style="fill:#353739; stroke:none;" d="M537 116L538 117L537 116z"/>
<path style="fill:#27292a; stroke:none;" d="M72 118L72 121L75 121L75 120C73.0399 119.347 72.446 119 75 119L72 118z"/>
<path style="fill:#2a2c2d; stroke:none;" d="M190 119L190 120L193 121L193 120C191.04 119.347 190.446 119 193 119L190 119z"/>
<path style="fill:#2f3132; stroke:none;" d="M368 118L368 121L371 121L371 120C369.04 119.347 368.446 119 371 119L368 118z"/>
<path style="fill:#353739; stroke:none;" d="M545 119L545 120L548 121L548 118L545 119z"/>
<path style="fill:#27292a; stroke:none;" d="M70 120L71 121L70 120z"/>
<path style="fill:#2f3132; stroke:none;" d="M366 120L367 121L366 120M173 121L174 125L173 121z"/>
<path style="fill:#2a2c2d; stroke:none;" d="M54 122L54 125L57 124L57 123L54 122z"/>
<path style="fill:#353739; stroke:none;" d="M350 122L350 125L353 124L353 123L350 122z"/>
<path style="fill:#3c3e40; stroke:none;" d="M527 122L528 125L529 125L530 122L527 122z"/>
<path style="fill:#353739; stroke:none;" d="M528 123L529 124L528 123z"/>
<path style="fill:#3c3e40; stroke:none;" d="M531 124L532 125L531 124z"/>
<path style="fill:#27292a; stroke:none;" d="M70 125L71 126L70 125M73 125L72 128L75 128L73 125z"/>
<path style="fill:#2a2c2d; stroke:none;" d="M191 125L190 126L190 127L190 128L193 125L191 125z"/>
<path style="fill:#2f3132; stroke:none;" d="M366 125L367 126L366 125M369 125L368 128L371 128L369 125z"/>
<path style="fill:#353739; stroke:none;" d="M545 126L545 127L549 128L549 127L548 125L545 126z"/>
<path style="fill:#2a2c2d; stroke:none;" d="M73 126L74 127L73 126z"/>
<path style="fill:#353739; stroke:none;" d="M369 126L370 127L369 126z"/>
<path style="fill:#2a2c2d; stroke:none;" d="M54 129L54 132L57 131L57 130L54 129z"/>
<path style="fill:#2f3132; stroke:none;" d="M172 129L172 132L175 131L175 130L172 129z"/>
<path style="fill:#353739; stroke:none;" d="M350 129L350 132L353 131L353 130L350 129z"/>
<path style="fill:#3c3e40; stroke:none;" d="M527 129L527 130C528.96 130.653 529.554 131 527 131L527 132L530 129L527 129M531 129L532 130L531 129z"/>
<path style="fill:#27292a; stroke:none;" d="M73 132C72.4254 134.396 72.5249 134.487 75 135L75 134L73 132z"/>
<path style="fill:#2f3132; stroke:none;" d="M369 132C368.425 134.396 368.525 134.487 371 135L371 134L369 132z"/>
<path style="fill:#2a2c2d; stroke:none;" d="M64 133L65 134L64 133M190 133L194 135L190 133z"/>
<path style="fill:#353739; stroke:none;" d="M360 133L361 134L360 133M545 134L545 135L549 135L545 134z"/>
<path style="fill:#27292a; stroke:none;" d="M70 134L71 135L70 134z"/>
<path style="fill:#2f3132; stroke:none;" d="M366 134L367 135L366 134z"/>
<path style="fill:#2a2c2d; stroke:none;" d="M54 136L53 138L53 139L57 138L57 137L54 136z"/>
<path style="fill:#2f3132; stroke:none;" d="M173 136L173 140L173 136z"/>
<path style="fill:#353739; stroke:none;" d="M350 136L349 138L349 139L353 138L353 137L350 136z"/>
<path style="fill:#3c3e40; stroke:none;" d="M528 136L527 139L530 139L528 136z"/>
<path style="fill:#353739; stroke:none;" d="M528 137L529 138L528 137z"/>
<path style="fill:#3c3e40; stroke:none;" d="M531 138L532 139L531 138z"/>
<path style="fill:#27292a; stroke:none;" d="M72 143L75 140L73 140L72 143z"/>
<path style="fill:#2a2c2d; stroke:none;" d="M190 141L190 142L194 142L190 141z"/>
<path style="fill:#2f3132; stroke:none;" d="M368 143L371 140L369 140L368 143z"/>
<path style="fill:#353739; stroke:none;" d="M545 141L545 142L549 142L545 141z"/>
<path style="fill:#2f3132; stroke:none;" d="M173 143L173 147L173 143z"/>
<path style="fill:#3c3e40; stroke:none;" d="M528 143L527 145L527 146C529.566 145.449 529.86 144.86 528 143M531 143L532 144L531 143z"/>
<path style="fill:#2a2c2d; stroke:none;" d="M53 145L53 146L57 146L53 145z"/>
<path style="fill:#353739; stroke:none;" d="M349 145L349 146L353 146L349 145M537 144L538 145L537 144M545 148L545 149L549 149L545 148z"/>
<path style="fill:#27292a; stroke:none;" d="M70 148L71 149L70 148M72 148L73 151L74 151L75 148L72 148z"/>
<path style="fill:#2a2c2d; stroke:none;" d="M190 148L191 151L192 151L193 148L190 148z"/>
<path style="fill:#2f3132; stroke:none;" d="M366 148L367 149L366 148M368 148L369 151L370 151L371 148L368 148z"/>
<path style="fill:#2a2c2d; stroke:none;" d="M73 149L74 150L73 149z"/>
<path style="fill:#353739; stroke:none;" d="M369 149L370 150L369 149z"/>
<path style="fill:#2a2c2d; stroke:none;" d="M53 152L53 153L57 153L53 152z"/>
<path style="fill:#2f3132; stroke:none;" d="M173 151L172 152L175 154L173 151z"/>
<path style="fill:#353739; stroke:none;" d="M349 152L349 153L353 153L349 152z"/>
<path style="fill:#3c3e40; stroke:none;" d="M527 151L530 154L527 151M531 152L532 153L531 152z"/>
<path style="fill:#27292a; stroke:none;" d="M72 155L73 158L74 158L75 156L72 155z"/>
<path style="fill:#2a2c2d; stroke:none;" d="M190 155L193 158L193 157C191.04 156.347 190.446 156 193 156L190 155z"/>
<path style="fill:#2f3132; stroke:none;" d="M368 155L369 158L370 158L371 156L368 155z"/>
<path style="fill:#353739; stroke:none;" d="M545 156L545 157L548 158L548 155L545 156z"/>
<path style="fill:#27292a; stroke:none;" d="M70 157L71 158L70 157z"/>
<path style="fill:#2f3132; stroke:none;" d="M366 157L367 158L366 157z"/>
<path style="fill:#2a2c2d; stroke:none;" d="M53 159L53 160L57 160L53 159z"/>
<path style="fill:#2f3132; stroke:none;" d="M173 158L174 162L173 158z"/>
<path style="fill:#353739; stroke:none;" d="M349 159L350 162L353 159L349 159z"/>
<path style="fill:#3c3e40; stroke:none;" d="M527 159L528 162L529 162L530 159L527 159z"/>
<path style="fill:#353739; stroke:none;" d="M528 160L529 161L528 160z"/>
<path style="fill:#3c3e40; stroke:none;" d="M531 161L532 162L531 161z"/>
<path style="fill:#27292a; stroke:none;" d="M70 162L71 163L70 162M72 162L72 165L75 165L75 162L72 162z"/>
<path style="fill:#2a2c2d; stroke:none;" d="M190 163L190 164L193 165L193 162L190 163z"/>
<path style="fill:#2f3132; stroke:none;" d="M366 162L367 163L366 162M368 162L368 165L371 165L371 162L368 162z"/>
<path style="fill:#353739; stroke:none;" d="M545 163L545 164L548 165L548 162L545 163z"/>
<path style="fill:#2a2c2d; stroke:none;" d="M73 163L74 164L73 163z"/>
<path style="fill:#353739; stroke:none;" d="M369 163L370 164L369 163z"/>
<path style="fill:#2a2c2d; stroke:none;" d="M54 166L54 169L57 168L57 167L54 166z"/>
<path style="fill:#2f3132; stroke:none;" d="M172 166L172 169L175 166L172 166z"/>
<path style="fill:#353739; stroke:none;" d="M350 166L350 169L353 168L353 167L350 166z"/>
<path style="fill:#3c3e40; stroke:none;" d="M527 166L527 167L528 169L529 169L530 166L527 166M531 166L532 167L531 166z"/>
<path style="fill:#27292a; stroke:none;" d="M73 169C72.4254 171.396 72.5249 171.487 75 172L75 171L73 169z"/>
<path style="fill:#2a2c2d; stroke:none;" d="M191 169C190.446 171.568 190.384 172.027 193 172L191 171L193 170L191 169z"/>
<path style="fill:#2f3132; stroke:none;" d="M369 169C368.425 171.396 368.525 171.487 371 172L371 171L369 169z"/>
<path style="fill:#353739; stroke:none;" d="M545 170L545 171L549 172L549 171L548 169L545 170z"/>
<path style="fill:#27292a; stroke:none;" d="M70 171L71 172L70 171z"/>
<path style="fill:#2f3132; stroke:none;" d="M366 171L367 172L366 171z"/>
<path style="fill:#2a2c2d; stroke:none;" d="M54 173L54 176L57 175L57 174L54 173z"/>
<path style="fill:#2f3132; stroke:none;" d="M172 173L172 176L175 175L175 174L172 173z"/>
<path style="fill:#353739; stroke:none;" d="M350 173L350 176L353 175L353 174L350 173z"/>
<path style="fill:#3c3e40; stroke:none;" d="M528 173L527 174L527 175L527 176L530 173L528 173z"/>
<path style="fill:#353739; stroke:none;" d="M528 174L529 175L528 174z"/>
<path style="fill:#3c3e40; stroke:none;" d="M531 175L532 176L531 175z"/>
<path style="fill:#27292a; stroke:none;" d="M70 176L71 177L70 176M73 176L72 180C74.1834 178.581 74.6427 178.079 73 176z"/>
<path style="fill:#2f3132; stroke:none;" d="M366 176L367 177L366 176M369 176L368 180C370.183 178.581 370.643 178.079 369 176z"/>
<path style="fill:#2a2c2d; stroke:none;" d="M73 177L74 178L73 177M190 178L190 179L194 179L190 178z"/>
<path style="fill:#353739; stroke:none;" d="M369 177L370 178L369 177M545 178L545 179L549 179L545 178z"/>
<path style="fill:#2a2c2d; stroke:none;" d="M54 180L53 182L53 183L57 182L57 181L54 180z"/>
<path style="fill:#2f3132; stroke:none;" d="M173 180L173 184L173 180z"/>
<path style="fill:#353739; stroke:none;" d="M350 180L349 182L349 183L353 182L353 181L350 180z"/>
<path style="fill:#3c3e40; stroke:none;" d="M528 180L527 182L527 183C529.566 182.449 529.86 181.86 528 180M531 180L532 181L531 180z"/>
<path style="fill:#27292a; stroke:none;" d="M72 184L75 187L72 184z"/>
<path style="fill:#2f3132; stroke:none;" d="M368 184L371 187L368 184z"/>
<path style="fill:#353739; stroke:none;" d="M545 185L545 186L549 186L545 185z"/>
<path style="fill:#27292a; stroke:none;" d="M70 185L71 186L70 185z"/>
<path style="fill:#2a2c2d; stroke:none;" d="M190 185L190 186L194 186L190 185z"/>
<path style="fill:#2f3132; stroke:none;" d="M366 185L367 186L366 185z"/>
<path style="fill:#2a2c2d; stroke:none;" d="M53 189L53 190L57 190L53 189z"/>
<path style="fill:#2f3132; stroke:none;" d="M172 190L173 191L175 188L172 190z"/>
<path style="fill:#353739; stroke:none;" d="M349 189L349 190L353 190L349 189z"/>
<path style="fill:#3c3e40; stroke:none;" d="M527 188L530 191L527 188M531 189L532 190L531 189z"/>
<path style="fill:#2a2c2d; stroke:none;" d="M191 191L191 195L192 195L193 192L191 191z"/>
<path style="fill:#353739; stroke:none;" d="M546 191L548 195L549 192L546 191z"/>
<path style="fill:#27292a; stroke:none;" d="M72 192L73 195L74 195L75 193L72 192z"/>
<path style="fill:#2f3132; stroke:none;" d="M368 192L369 195L370 195L371 193L368 192z"/>
<path style="fill:#27292a; stroke:none;" d="M70 194L71 195L70 194z"/>
<path style="fill:#2f3132; stroke:none;" d="M366 194L367 195L366 194z"/>
<path style="fill:#2a2c2d; stroke:none;" d="M53 196L53 197L57 197L53 196z"/>
<path style="fill:#2f3132; stroke:none;" d="M173 195L172 196L175 198L173 195z"/>
<path style="fill:#353739; stroke:none;" d="M349 196L349 197L353 197L349 196z"/>
<path style="fill:#3c3e40; stroke:none;" d="M529 195L528 199L529 199L529 195z"/>
<path style="fill:#353739; stroke:none;" d="M528 197L529 198L528 197z"/>
<path style="fill:#3c3e40; stroke:none;" d="M531 198L532 199L531 198z"/>
<path style="fill:#27292a; stroke:none;" d="M70 199L71 200L70 199M72 202L75 199L72 202z"/>
<path style="fill:#2a2c2d; stroke:none;" d="M190 200L190 201L193 202L193 199L190 200z"/>
<path style="fill:#2f3132; stroke:none;" d="M366 199L367 200L366 199M368 202L371 199L368 202z"/>
<path style="fill:#353739; stroke:none;" d="M545 200L545 201L548 202L548 199L545 200z"/>
<path style="fill:#2a2c2d; stroke:none;" d="M73 200L74 201L73 200z"/>
<path style="fill:#353739; stroke:none;" d="M369 200L370 201L369 200z"/>
<path style="fill:#2f3132; stroke:none;" d="M173 202L174 206L173 202z"/>
<path style="fill:#2a2c2d; stroke:none;" d="M53 203L53 204L54 206L57 205L57 204L53 203z"/>
<path style="fill:#353739; stroke:none;" d="M349 203L349 204L350 206L353 205L353 204L349 203z"/>
<path style="fill:#3c3e40; stroke:none;" d="M527 203L527 204L528 206L529 206L530 203L527 203M531 203L532 204L531 203z"/>
<path style="fill:#27292a; stroke:none;" d="M73 206C72.4254 208.396 72.5249 208.487 75 209L75 208L73 206z"/>
<path style="fill:#2a2c2d; stroke:none;" d="M193 209L193 208C191.04 207.347 190.446 207 193 207C190.473 206.126 190.016 208.359 193 209z"/>
<path style="fill:#2f3132; stroke:none;" d="M369 206C368.425 208.396 368.525 208.487 371 209L371 208L369 206z"/>
<path style="fill:#353739; stroke:none;" d="M545 207L545 208L548 209L548 206L545 207z"/>
<path style="fill:#27292a; stroke:none;" d="M70 208L71 209L70 208z"/>
<path style="fill:#2f3132; stroke:none;" d="M366 208L367 209L366 208z"/>
<path style="fill:#2a2c2d; stroke:none;" d="M54 210L54 213L57 212L57 211L54 210z"/>
<path style="fill:#2f3132; stroke:none;" d="M172 210L172 213L175 210L172 210z"/>
<path style="fill:#353739; stroke:none;" d="M350 210L350 213L353 212L353 211L350 210z"/>
<path style="fill:#3c3e40; stroke:none;" d="M527 210L530 213L527 210z"/>
<path style="fill:#353739; stroke:none;" d="M528 211L529 212L528 211z"/>
<path style="fill:#3c3e40; stroke:none;" d="M531 212L532 213L531 212z"/>
<path style="fill:#27292a; stroke:none;" d="M70 213L71 214L70 213M73 213L72 216L75 216L73 213z"/>
<path style="fill:#2a2c2d; stroke:none;" d="M191 213L190 216L193 216L191 213z"/>
<path style="fill:#2f3132; stroke:none;" d="M366 213L367 214L366 213M369 213L368 216L371 216L369 213z"/>
<path style="fill:#353739; stroke:none;" d="M547 213L545 216L549 216L547 213z"/>
<path style="fill:#2a2c2d; stroke:none;" d="M73 214L74 215L73 214z"/>
<path style="fill:#353739; stroke:none;" d="M369 214L370 215L369 214z"/>
<path style="fill:#2a2c2d; stroke:none;" d="M54 217L54 220L57 219L57 218L54 217z"/>
<path style="fill:#2f3132; stroke:none;" d="M172 217L173 221L172 217z"/>
<path style="fill:#353739; stroke:none;" d="M350 217L350 220L353 219L353 218L350 217z"/>
<path style="fill:#3c3e40; stroke:none;" d="M528 217L527 219L527 220C529.566 219.449 529.86 218.86 528 217M531 217L532 218L531 217z"/>
<path style="fill:#27292a; stroke:none;" d="M72 221L75 224L72 221z"/>
<path style="fill:#2f3132; stroke:none;" d="M368 221L371 224L368 221z"/>
<path style="fill:#353739; stroke:none;" d="M545 222L545 223L549 223L545 222z"/>
<path style="fill:#27292a; stroke:none;" d="M70 222L71 223L70 222z"/>
<path style="fill:#2a2c2d; stroke:none;" d="M190 222L190 223L194 223L190 222z"/>
<path style="fill:#2f3132; stroke:none;" d="M366 222L367 223L366 222M173 224L173 228L173 224z"/>
<path style="fill:#3c3e40; stroke:none;" d="M528 224L527 227L530 227L528 224z"/>
<path style="fill:#2a2c2d; stroke:none;" d="M53 226L53 227L57 227L53 226z"/>
<path style="fill:#353739; stroke:none;" d="M349 226L349 227L353 227L349 226M528 225L529 226L528 225z"/>
<path style="fill:#3c3e40; stroke:none;" d="M531 226L532 227L531 226z"/>
<path style="fill:#2a2c2d; stroke:none;" d="M190 231L194 229L190 231z"/>
<path style="fill:#353739; stroke:none;" d="M545 229L545 230L549 230L545 229z"/>
<path style="fill:#27292a; stroke:none;" d="M72 229L73 232L74 232L75 230L72 229z"/>
<path style="fill:#2f3132; stroke:none;" d="M368 229L369 232L370 232L371 230L368 229z"/>
<path style="fill:#2a2c2d; stroke:none;" d="M64 230L65 231L64 230z"/>
<path style="fill:#353739; stroke:none;" d="M360 230L361 231L360 230z"/>
<path style="fill:#27292a; stroke:none;" d="M70 231L71 232L70 231z"/>
<path style="fill:#2f3132; stroke:none;" d="M366 231L367 232L366 231z"/>
<path style="fill:#2a2c2d; stroke:none;" d="M53 233L53 234L57 234L53 233z"/>
<path style="fill:#2f3132; stroke:none;" d="M172 234L173 235L175 232L172 234z"/>
<path style="fill:#353739; stroke:none;" d="M349 233L349 234L353 234L349 233z"/>
<path style="fill:#3c3e40; stroke:none;" d="M529 232L527 235C529.259 234.538 530.212 234.145 529 232z"/>
<path style="fill:#27292a; stroke:none;" d="M70 236L71 237L70 236M72 236L73 239L74 239L75 236L72 236z"/>
<path style="fill:#2a2c2d; stroke:none;" d="M190 236L193 239L190 236z"/>
<path style="fill:#2f3132; stroke:none;" d="M366 236L367 237L366 236M368 236L369 239L370 239L371 236L368 236z"/>
<path style="fill:#353739; stroke:none;" d="M545 237L545 238L548 239L549 237L545 237z"/>
<path style="fill:#2a2c2d; stroke:none;" d="M73 237L74 238L73 237z"/>
<path style="fill:#353739; stroke:none;" d="M369 237L370 238L369 237z"/>
<path style="fill:#2a2c2d; stroke:none;" d="M53 240L53 241L57 241L53 240z"/>
<path style="fill:#2f3132; stroke:none;" d="M173 239L174 243L173 239z"/>
<path style="fill:#353739; stroke:none;" d="M349 240L349 241L353 241L349 240z"/>
<path style="fill:#3c3e40; stroke:none;" d="M527 240L527 241L528 243L529 243L530 240L527 240M531 240L532 241L531 240z"/>
<path style="fill:#353739; stroke:none;" d="M537 241L538 242L537 241z"/>
<path style="fill:#27292a; stroke:none;" d="M72 243L72 246L75 246L75 245C73.0399 244.347 72.446 244 75 244L72 243z"/>
<path style="fill:#2a2c2d; stroke:none;" d="M190 244L190 245L193 246L193 245C191.04 244.347 190.446 244 193 244L190 244z"/>
<path style="fill:#2f3132; stroke:none;" d="M368 243L368 246L371 246L371 245C369.04 244.347 368.446 244 371 244L368 243z"/>
<path style="fill:#353739; stroke:none;" d="M545 244L545 245L548 246L548 243L545 244z"/>
<path style="fill:#27292a; stroke:none;" d="M70 245L71 246L70 245z"/>
<path style="fill:#2f3132; stroke:none;" d="M366 245L367 246L366 245M173 246L174 250L173 246z"/>
<path style="fill:#2a2c2d; stroke:none;" d="M54 247L54 250L57 249L57 248L54 247z"/>
<path style="fill:#353739; stroke:none;" d="M350 247L350 250L353 249L353 248L350 247z"/>
<path style="fill:#3c3e40; stroke:none;" d="M527 247L528 250L529 250L530 247L527 247z"/>
<path style="fill:#353739; stroke:none;" d="M528 248L529 249L528 248z"/>
<path style="fill:#3c3e40; stroke:none;" d="M531 249L532 250L531 249z"/>
<path style="fill:#27292a; stroke:none;" d="M70 250L71 251L70 250M73 250L72 253L75 253L73 250z"/>
<path style="fill:#2a2c2d; stroke:none;" d="M191 250L190 251L190 252L190 253L193 250L191 250z"/>
<path style="fill:#2f3132; stroke:none;" d="M366 250L367 251L366 250M369 250L368 253L371 253L369 250z"/>
<path style="fill:#353739; stroke:none;" d="M545 251L545 252L549 253L549 252L548 250L545 251z"/>
<path style="fill:#2a2c2d; stroke:none;" d="M73 251L74 252L73 251z"/>
<path style="fill:#353739; stroke:none;" d="M369 251L370 252L369 251z"/>
<path style="fill:#2a2c2d; stroke:none;" d="M54 254L54 257L57 256L57 255L54 254z"/>
<path style="fill:#2f3132; stroke:none;" d="M172 254L172 257L175 256L175 255L172 254z"/>
<path style="fill:#353739; stroke:none;" d="M350 254L350 257L353 256L353 255L350 254z"/>
<path style="fill:#3c3e40; stroke:none;" d="M527 254L527 255C528.96 255.653 529.554 256 527 256L527 257L530 254L527 254M531 254L532 255L531 254z"/>
<path style="fill:#27292a; stroke:none;" d="M73 257C72.4254 259.396 72.5249 259.487 75 260L75 259L73 257z"/>
<path style="fill:#2f3132; stroke:none;" d="M369 257C368.425 259.396 368.525 259.487 371 260L371 259L369 257z"/>
<path style="fill:#2a2c2d; stroke:none;" d="M64 258L65 259L64 258M190 258L194 260L190 258z"/>
<path style="fill:#353739; stroke:none;" d="M360 258L361 259L360 258M545 259L545 260L549 260L545 259z"/>
<path style="fill:#27292a; stroke:none;" d="M70 259L71 260L70 259z"/>
<path style="fill:#2f3132; stroke:none;" d="M366 259L367 260L366 259z"/>
<path style="fill:#2a2c2d; stroke:none;" d="M54 261L53 263L53 264L57 263L57 262L54 261z"/>
<path style="fill:#2f3132; stroke:none;" d="M173 261L173 265L173 261z"/>
<path style="fill:#353739; stroke:none;" d="M350 261L349 263L349 264L353 263L353 262L350 261z"/>
<path style="fill:#3c3e40; stroke:none;" d="M528 261L527 264L530 264L528 261z"/>
<path style="fill:#353739; stroke:none;" d="M528 262L529 263L528 262z"/>
<path style="fill:#3c3e40; stroke:none;" d="M531 263L532 264L531 263z"/>
<path style="fill:#27292a; stroke:none;" d="M72 268L75 265L73 265L72 268z"/>
<path style="fill:#2a2c2d; stroke:none;" d="M190 266L190 267L194 267L190 266z"/>
<path style="fill:#2f3132; stroke:none;" d="M368 268L371 265L369 265L368 268z"/>
<path style="fill:#353739; stroke:none;" d="M545 266L545 267L549 267L545 266z"/>
<path style="fill:#2f3132; stroke:none;" d="M173 268L173 272L173 268z"/>
<path style="fill:#3c3e40; stroke:none;" d="M528 268L527 270L527 271C529.566 270.449 529.86 269.86 528 268M531 268L532 269L531 268z"/>
<path style="fill:#2a2c2d; stroke:none;" d="M53 270L53 271L57 271L53 270z"/>
<path style="fill:#353739; stroke:none;" d="M349 270L349 271L353 271L349 270M537 269L538 270L537 269M545 273L545 274L549 274L545 273z"/>
<path style="fill:#27292a; stroke:none;" d="M70 273L71 274L70 273M72 273L73 276L74 276L75 273L72 273z"/>
<path style="fill:#2a2c2d; stroke:none;" d="M190 273L191 276L192 276L193 273L190 273z"/>
<path style="fill:#2f3132; stroke:none;" d="M366 273L367 274L366 273M368 273L369 276L370 276L371 273L368 273z"/>
<path style="fill:#2a2c2d; stroke:none;" d="M73 274L74 275L73 274z"/>
<path style="fill:#353739; stroke:none;" d="M369 274L370 275L369 274z"/>
<path style="fill:#2a2c2d; stroke:none;" d="M53 277L53 278L57 278L53 277z"/>
<path style="fill:#2f3132; stroke:none;" d="M173 276L172 277L175 279L173 276z"/>
<path style="fill:#353739; stroke:none;" d="M349 277L349 278L353 278L349 277z"/>
<path style="fill:#3c3e40; stroke:none;" d="M527 276L530 279L527 276M531 277L532 278L531 277z"/>
<path style="fill:#27292a; stroke:none;" d="M72 280L73 283L74 283L75 281L72 280z"/>
<path style="fill:#2a2c2d; stroke:none;" d="M190 280L193 283L193 282C191.04 281.347 190.446 281 193 281L190 280z"/>
<path style="fill:#2f3132; stroke:none;" d="M368 280L369 283L370 283L371 281L368 280z"/>
<path style="fill:#353739; stroke:none;" d="M545 281L545 282L548 283L548 280L545 281z"/>
<path style="fill:#27292a; stroke:none;" d="M70 282L71 283L70 282z"/>
<path style="fill:#2f3132; stroke:none;" d="M366 282L367 283L366 282z"/>
<path style="fill:#2a2c2d; stroke:none;" d="M53 284L53 285L57 285L53 284z"/>
<path style="fill:#2f3132; stroke:none;" d="M173 283L174 287L173 283z"/>
<path style="fill:#353739; stroke:none;" d="M349 284L350 287L353 284L349 284z"/>
<path style="fill:#3c3e40; stroke:none;" d="M527 284L528 287L529 287L530 284L527 284z"/>
<path style="fill:#353739; stroke:none;" d="M528 285L529 286L528 285z"/>
<path style="fill:#3c3e40; stroke:none;" d="M531 286L532 287L531 286z"/>
<path style="fill:#27292a; stroke:none;" d="M70 287L71 288L70 287M72 287L72 290L75 290L75 287L72 287z"/>
<path style="fill:#2a2c2d; stroke:none;" d="M190 288L190 289L193 290L193 287L190 288z"/>
<path style="fill:#2f3132; stroke:none;" d="M366 287L367 288L366 287M368 287L368 290L371 290L371 287L368 287z"/>
<path style="fill:#353739; stroke:none;" d="M545 288L545 289L548 290L548 287L545 288z"/>
<path style="fill:#2a2c2d; stroke:none;" d="M73 288L74 289L73 288z"/>
<path style="fill:#353739; stroke:none;" d="M369 288L370 289L369 288z"/>
<path style="fill:#2a2c2d; stroke:none;" d="M54 291L54 294L57 293L57 292L54 291z"/>
<path style="fill:#2f3132; stroke:none;" d="M172 291L172 294L175 291L172 291z"/>
<path style="fill:#353739; stroke:none;" d="M350 291L350 294L353 293L353 292L350 291z"/>
<path style="fill:#3c3e40; stroke:none;" d="M527 291L527 292L528 294L529 294L530 291L527 291M531 291L532 292L531 291z"/>
<path style="fill:#27292a; stroke:none;" d="M73 294C72.4254 296.396 72.5249 296.487 75 297L75 296L73 294z"/>
<path style="fill:#2a2c2d; stroke:none;" d="M191 294C190.446 296.568 190.384 297.027 193 297L191 296L193 295L191 294z"/>
<path style="fill:#2f3132; stroke:none;" d="M369 294C368.425 296.396 368.525 296.487 371 297L371 296L369 294z"/>
<path style="fill:#353739; stroke:none;" d="M545 295L545 296L549 297L549 296L548 294L545 295z"/>
<path style="fill:#27292a; stroke:none;" d="M70 296L71 297L70 296z"/>
<path style="fill:#2f3132; stroke:none;" d="M366 296L367 297L366 296z"/>
<path style="fill:#2a2c2d; stroke:none;" d="M54 298L54 301L57 300L57 299L54 298z"/>
<path style="fill:#2f3132; stroke:none;" d="M172 298L172 301L175 300L175 299L172 298z"/>
<path style="fill:#353739; stroke:none;" d="M350 298L350 301L353 300L353 299L350 298z"/>
<path style="fill:#3c3e40; stroke:none;" d="M528 298L527 299L527 300L527 301L530 298L528 298z"/>
<path style="fill:#353739; stroke:none;" d="M528 299L529 300L528 299z"/>
<path style="fill:#3c3e40; stroke:none;" d="M531 300L532 301L531 300z"/>
<path style="fill:#27292a; stroke:none;" d="M70 301L71 302L70 301M73 301L72 305C74.1834 303.581 74.6428 303.079 73 301z"/>
<path style="fill:#2f3132; stroke:none;" d="M366 301L367 302L366 301M369 301L368 305C370.183 303.581 370.643 303.079 369 301z"/>
<path style="fill:#2a2c2d; stroke:none;" d="M73 302L74 303L73 302M190 303L190 304L194 304L190 303z"/>
<path style="fill:#353739; stroke:none;" d="M369 302L370 303L369 302M545 303L545 304L549 304L545 303z"/>
<path style="fill:#2a2c2d; stroke:none;" d="M54 305L53 307L53 308L57 307L57 306L54 305z"/>
<path style="fill:#2f3132; stroke:none;" d="M173 305L173 309L173 305z"/>
<path style="fill:#353739; stroke:none;" d="M350 305L349 307L349 308L353 307L353 306L350 305z"/>
<path style="fill:#3c3e40; stroke:none;" d="M528 305L527 307L527 308C529.566 307.449 529.86 306.86 528 305M531 305L532 306L531 305z"/>
<path style="fill:#27292a; stroke:none;" d="M72 309L75 312L72 309z"/>
<path style="fill:#2f3132; stroke:none;" d="M368 309L371 312L368 309z"/>
<path style="fill:#353739; stroke:none;" d="M545 310L545 311L549 311L545 310z"/>
<path style="fill:#27292a; stroke:none;" d="M70 310L71 311L70 310z"/>
<path style="fill:#2a2c2d; stroke:none;" d="M190 310L190 311L194 311L190 310z"/>
<path style="fill:#2f3132; stroke:none;" d="M366 310L367 311L366 310z"/>
<path style="fill:#2a2c2d; stroke:none;" d="M53 314L53 315L57 315L53 314z"/>
<path style="fill:#2f3132; stroke:none;" d="M172 315L173 316L175 313L172 315z"/>
<path style="fill:#353739; stroke:none;" d="M349 314L349 315L353 315L349 314z"/>
<path style="fill:#3c3e40; stroke:none;" d="M527 313L530 316L527 313M531 314L532 315L531 314z"/>
<path style="fill:#2a2c2d; stroke:none;" d="M191 316L191 320L192 320L193 317L191 316z"/>
<path style="fill:#353739; stroke:none;" d="M546 316L548 320L549 317L546 316z"/>
<path style="fill:#27292a; stroke:none;" d="M72 317L73 320L74 320L75 318L72 317z"/>
<path style="fill:#2f3132; stroke:none;" d="M368 317L369 320L370 320L371 318L368 317z"/>
<path style="fill:#27292a; stroke:none;" d="M70 319L71 320L70 319z"/>
<path style="fill:#2f3132; stroke:none;" d="M366 319L367 320L366 319z"/>
<path style="fill:#2a2c2d; stroke:none;" d="M53 321L53 322L57 322L53 321z"/>
<path style="fill:#2f3132; stroke:none;" d="M173 320L172 321L175 323L173 320z"/>
<path style="fill:#353739; stroke:none;" d="M349 321L349 322L353 322L349 321z"/>
<path style="fill:#3c3e40; stroke:none;" d="M529 320L528 324L529 324L529 320z"/>
<path style="fill:#353739; stroke:none;" d="M528 322L529 323L528 322z"/>
<path style="fill:#3c3e40; stroke:none;" d="M531 323L532 324L531 323z"/>
<path style="fill:#27292a; stroke:none;" d="M70 324L71 325L70 324M72 327L75 324L72 327z"/>
<path style="fill:#2a2c2d; stroke:none;" d="M190 325L190 326L193 327L193 324L190 325z"/>
<path style="fill:#2f3132; stroke:none;" d="M366 324L367 325L366 324M368 327L371 324L368 327z"/>
<path style="fill:#353739; stroke:none;" d="M545 325L545 326L548 327L548 324L545 325z"/>
<path style="fill:#2a2c2d; stroke:none;" d="M73 325L74 326L73 325z"/>
<path style="fill:#353739; stroke:none;" d="M369 325L370 326L369 325z"/>
<path style="fill:#2f3132; stroke:none;" d="M173 327L174 331L173 327z"/>
<path style="fill:#2a2c2d; stroke:none;" d="M53 328L53 329L54 331L57 330L57 329L53 328z"/>
<path style="fill:#353739; stroke:none;" d="M349 328L349 329L350 331L353 330L353 329L349 328z"/>
<path style="fill:#3c3e40; stroke:none;" d="M527 328L527 329L528 331L529 331L530 328L527 328M531 328L532 329L531 328z"/>
<path style="fill:#27292a; stroke:none;" d="M73 331C72.4254 333.396 72.5249 333.487 75 334L75 333L73 331z"/>
<path style="fill:#2a2c2d; stroke:none;" d="M193 334L193 333C191.04 332.347 190.446 332 193 332C190.473 331.126 190.016 333.359 193 334z"/>
<path style="fill:#2f3132; stroke:none;" d="M369 331C368.425 333.396 368.525 333.487 371 334L371 333L369 331z"/>
<path style="fill:#353739; stroke:none;" d="M545 332L545 333L548 334L548 331L545 332z"/>
<path style="fill:#27292a; stroke:none;" d="M70 333L71 334L70 333z"/>
<path style="fill:#2f3132; stroke:none;" d="M366 333L367 334L366 333z"/>
<path style="fill:#2a2c2d; stroke:none;" d="M54 335L54 338L57 337L57 336L54 335z"/>
<path style="fill:#2f3132; stroke:none;" d="M172 335L172 338L175 335L172 335z"/>
<path style="fill:#353739; stroke:none;" d="M350 335L350 338L353 337L353 336L350 335z"/>
<path style="fill:#3c3e40; stroke:none;" d="M527 335L530 338L527 335z"/>
<path style="fill:#353739; stroke:none;" d="M528 336L529 337L528 336z"/>
<path style="fill:#3c3e40; stroke:none;" d="M531 337L532 338L531 337z"/>
<path style="fill:#27292a; stroke:none;" d="M70 338L71 339L70 338M73 338L72 341L75 341L73 338z"/>
<path style="fill:#2a2c2d; stroke:none;" d="M191 338L190 341L193 341L191 338z"/>
<path style="fill:#2f3132; stroke:none;" d="M366 338L367 339L366 338M369 338L368 341L371 341L369 338z"/>
<path style="fill:#353739; stroke:none;" d="M547 338L545 341L549 341L547 338z"/>
<path style="fill:#2a2c2d; stroke:none;" d="M73 339L74 340L73 339z"/>
<path style="fill:#353739; stroke:none;" d="M369 339L370 340L369 339z"/>
<path style="fill:#2a2c2d; stroke:none;" d="M54 342L54 345L57 344L57 343L54 342z"/>
<path style="fill:#2f3132; stroke:none;" d="M172 342L173 346L172 342z"/>
<path style="fill:#353739; stroke:none;" d="M350 342L350 345L353 344L353 343L350 342z"/>
<path style="fill:#3c3e40; stroke:none;" d="M528 342L527 344L527 345C529.566 344.449 529.86 343.86 528 342M531 342L532 343L531 342z"/>
<path style="fill:#27292a; stroke:none;" d="M72 346L75 349L72 346z"/>
<path style="fill:#2f3132; stroke:none;" d="M368 346L371 349L368 346z"/>
<path style="fill:#353739; stroke:none;" d="M545 347L545 348L549 348L545 347z"/>
<path style="fill:#27292a; stroke:none;" d="M70 347L71 348L70 347z"/>
<path style="fill:#2a2c2d; stroke:none;" d="M190 347L190 348L194 348L190 347z"/>
<path style="fill:#2f3132; stroke:none;" d="M366 347L367 348L366 347M173 349L173 353L173 349z"/>
<path style="fill:#3c3e40; stroke:none;" d="M528 349L527 352L530 352L528 349z"/>
<path style="fill:#2a2c2d; stroke:none;" d="M53 351L53 352L57 352L53 351z"/>
<path style="fill:#353739; stroke:none;" d="M349 351L349 352L353 352L349 351M528 350L529 351L528 350z"/>
<path style="fill:#3c3e40; stroke:none;" d="M531 351L532 352L531 351z"/>
<path style="fill:#2a2c2d; stroke:none;" d="M190 356L194 354L190 356z"/>
<path style="fill:#353739; stroke:none;" d="M545 354L545 355L549 355L545 354z"/>
<path style="fill:#27292a; stroke:none;" d="M72 354L73 357L74 357L75 355L72 354z"/>
<path style="fill:#2f3132; stroke:none;" d="M368 354L369 357L370 357L371 355L368 354z"/>
<path style="fill:#2a2c2d; stroke:none;" d="M64 355L65 356L64 355z"/>
<path style="fill:#353739; stroke:none;" d="M360 355L361 356L360 355z"/>
<path style="fill:#27292a; stroke:none;" d="M70 356L71 357L70 356z"/>
<path style="fill:#2f3132; stroke:none;" d="M366 356L367 357L366 356z"/>
<path style="fill:#2a2c2d; stroke:none;" d="M53 358L53 359L57 359L53 358z"/>
<path style="fill:#2f3132; stroke:none;" d="M172 359L173 360L175 357L172 359z"/>
<path style="fill:#353739; stroke:none;" d="M349 358L349 359L353 359L349 358z"/>
<path style="fill:#3c3e40; stroke:none;" d="M529 357L527 360C529.259 359.538 530.212 359.145 529 357z"/>
<path style="fill:#27292a; stroke:none;" d="M70 361L71 362L70 361M72 361L73 364L74 364L75 361L72 361z"/>
<path style="fill:#2a2c2d; stroke:none;" d="M190 361L193 364L190 361z"/>
<path style="fill:#2f3132; stroke:none;" d="M366 361L367 362L366 361M368 361L369 364L370 364L371 361L368 361z"/>
<path style="fill:#353739; stroke:none;" d="M545 362L545 363L548 364L549 362L545 362z"/>
<path style="fill:#2a2c2d; stroke:none;" d="M73 362L74 363L73 362z"/>
<path style="fill:#353739; stroke:none;" d="M369 362L370 363L369 362z"/>
<path style="fill:#2a2c2d; stroke:none;" d="M53 365L53 366L57 366L53 365z"/>
<path style="fill:#2f3132; stroke:none;" d="M173 364L174 368L173 364z"/>
<path style="fill:#353739; stroke:none;" d="M349 365L349 366L353 366L349 365z"/>
<path style="fill:#3c3e40; stroke:none;" d="M527 365L527 366L528 368L529 368L530 365L527 365M531 365L532 366L531 365z"/>
<path style="fill:#353739; stroke:none;" d="M537 366L538 367L537 366z"/>
<path style="fill:#27292a; stroke:none;" d="M72 368L72 371L75 371L75 370C73.0399 369.347 72.446 369 75 369L72 368z"/>
<path style="fill:#2a2c2d; stroke:none;" d="M190 369L190 370L193 371L193 370C191.04 369.347 190.446 369 193 369L190 369z"/>
<path style="fill:#2f3132; stroke:none;" d="M368 368L368 371L371 371L371 370C369.04 369.347 368.446 369 371 369L368 368z"/>
<path style="fill:#353739; stroke:none;" d="M545 369L545 370L548 371L548 368L545 369z"/>
<path style="fill:#27292a; stroke:none;" d="M70 370L71 371L70 370z"/>
<path style="fill:#2f3132; stroke:none;" d="M366 370L367 371L366 370M173 371L174 375L173 371z"/>
<path style="fill:#2a2c2d; stroke:none;" d="M54 372L54 375L57 374L57 373L54 372z"/>
<path style="fill:#353739; stroke:none;" d="M350 372L350 375L353 374L353 373L350 372z"/>
<path style="fill:#3c3e40; stroke:none;" d="M527 372L528 375L529 375L530 372L527 372z"/>
<path style="fill:#353739; stroke:none;" d="M528 373L529 374L528 373z"/>
<path style="fill:#3c3e40; stroke:none;" d="M531 374L532 375L531 374z"/>
<path style="fill:#27292a; stroke:none;" d="M70 375L71 376L70 375M73 375L72 378L75 378L73 375z"/>
<path style="fill:#2a2c2d; stroke:none;" d="M191 375L190 376L190 377L190 378L193 375L191 375z"/>
<path style="fill:#2f3132; stroke:none;" d="M366 375L367 376L366 375M369 375L368 378L371 378L369 375z"/>
<path style="fill:#353739; stroke:none;" d="M545 376L545 377L549 378L549 377L548 375L545 376z"/>
<path style="fill:#2a2c2d; stroke:none;" d="M73 376L74 377L73 376z"/>
<path style="fill:#353739; stroke:none;" d="M369 376L370 377L369 376z"/>
<path style="fill:#2a2c2d; stroke:none;" d="M54 379L54 382L57 381L57 380L54 379z"/>
<path style="fill:#2f3132; stroke:none;" d="M172 379L172 382L175 381L175 380L172 379z"/>
<path style="fill:#353739; stroke:none;" d="M350 379L350 382L353 381L353 380L350 379z"/>
<path style="fill:#3c3e40; stroke:none;" d="M527 379L527 380C528.96 380.653 529.554 381 527 381L527 382L530 379L527 379M531 379L532 380L531 379z"/>
<path style="fill:#27292a; stroke:none;" d="M73 382C72.4254 384.396 72.5249 384.487 75 385L75 384L73 382z"/>
<path style="fill:#2f3132; stroke:none;" d="M369 382C368.425 384.396 368.525 384.487 371 385L371 384L369 382z"/>
<path style="fill:#2a2c2d; stroke:none;" d="M64 383L65 384L64 383M190 383L194 385L190 383z"/>
<path style="fill:#353739; stroke:none;" d="M360 383L361 384L360 383M545 384L545 385L549 385L545 384z"/>
<path style="fill:#27292a; stroke:none;" d="M70 384L71 385L70 384z"/>
<path style="fill:#2f3132; stroke:none;" d="M366 384L367 385L366 384z"/>
<path style="fill:#2a2c2d; stroke:none;" d="M54 386L53 388L53 389L57 388L57 387L54 386z"/>
<path style="fill:#2f3132; stroke:none;" d="M173 386L173 390L173 386z"/>
<path style="fill:#353739; stroke:none;" d="M350 386L349 388L349 389L353 388L353 387L350 386z"/>
<path style="fill:#3c3e40; stroke:none;" d="M528 386L527 389L530 389L528 386z"/>
<path style="fill:#353739; stroke:none;" d="M528 387L529 388L528 387z"/>
<path style="fill:#3c3e40; stroke:none;" d="M531 388L532 389L531 388z"/>
<path style="fill:#27292a; stroke:none;" d="M72 393L75 390L73 390L72 393z"/>
<path style="fill:#2a2c2d; stroke:none;" d="M190 391L190 392L194 392L190 391z"/>
<path style="fill:#2f3132; stroke:none;" d="M368 393L371 390L369 390L368 393z"/>
<path style="fill:#353739; stroke:none;" d="M545 391L545 392L549 392L545 391z"/>
<path style="fill:#2f3132; stroke:none;" d="M173 393L173 397L173 393z"/>
<path style="fill:#3c3e40; stroke:none;" d="M528 393L527 395L527 396C529.566 395.449 529.86 394.86 528 393M531 393L532 394L531 393z"/>
<path style="fill:#2a2c2d; stroke:none;" d="M53 395L53 396L57 396L53 395z"/>
<path style="fill:#353739; stroke:none;" d="M349 395L349 396L353 396L349 395M537 394L538 395L537 394M545 398L545 399L549 399L545 398z"/>
<path style="fill:#27292a; stroke:none;" d="M70 398L71 399L70 398M72 398L73 401L74 401L75 398L72 398z"/>
<path style="fill:#2a2c2d; stroke:none;" d="M190 398L191 401L192 401L193 398L190 398z"/>
<path style="fill:#2f3132; stroke:none;" d="M366 398L367 399L366 398M368 398L369 401L370 401L371 398L368 398z"/>
<path style="fill:#2a2c2d; stroke:none;" d="M73 399L74 400L73 399z"/>
<path style="fill:#353739; stroke:none;" d="M369 399L370 400L369 399z"/>
<path style="fill:#2a2c2d; stroke:none;" d="M53 402L53 403L57 403L53 402z"/>
<path style="fill:#2f3132; stroke:none;" d="M173 401L172 402L175 404L173 401z"/>
<path style="fill:#353739; stroke:none;" d="M349 402L349 403L353 403L349 402z"/>
<path style="fill:#3c3e40; stroke:none;" d="M527 401L530 404L527 401M531 402L532 403L531 402z"/>
<path style="fill:#27292a; stroke:none;" d="M72 405L73 408L74 408L75 406L72 405z"/>
<path style="fill:#2a2c2d; stroke:none;" d="M190 405L193 408L193 407C191.04 406.347 190.446 406 193 406L190 405z"/>
<path style="fill:#2f3132; stroke:none;" d="M368 405L369 408L370 408L371 406L368 405z"/>
<path style="fill:#353739; stroke:none;" d="M545 406L545 407L548 408L548 405L545 406z"/>
<path style="fill:#27292a; stroke:none;" d="M70 407L71 408L70 407z"/>
<path style="fill:#2f3132; stroke:none;" d="M366 407L367 408L366 407z"/>
<path style="fill:#2a2c2d; stroke:none;" d="M53 409L53 410L57 410L53 409z"/>
<path style="fill:#2f3132; stroke:none;" d="M173 408L174 412L173 408z"/>
<path style="fill:#353739; stroke:none;" d="M349 409L350 412L353 409L349 409z"/>
<path style="fill:#3c3e40; stroke:none;" d="M527 409L528 412L529 412L530 409L527 409z"/>
<path style="fill:#353739; stroke:none;" d="M528 410L529 411L528 410z"/>
<path style="fill:#3c3e40; stroke:none;" d="M531 411L532 412L531 411z"/>
<path style="fill:#27292a; stroke:none;" d="M70 412L71 413L70 412M72 412L72 415L75 415L75 412L72 412z"/>
<path style="fill:#2a2c2d; stroke:none;" d="M190 413L190 414L193 415L193 412L190 413z"/>
<path style="fill:#2f3132; stroke:none;" d="M366 412L367 413L366 412M368 412L368 415L371 415L371 412L368 412z"/>
<path style="fill:#353739; stroke:none;" d="M545 413L545 414L548 415L548 412L545 413z"/>
<path style="fill:#2a2c2d; stroke:none;" d="M73 413L74 414L73 413z"/>
<path style="fill:#353739; stroke:none;" d="M369 413L370 414L369 413z"/>
<path style="fill:#2a2c2d; stroke:none;" d="M54 416L54 419L57 418L57 417L54 416z"/>
<path style="fill:#2f3132; stroke:none;" d="M172 416L172 419L175 416L172 416z"/>
<path style="fill:#353739; stroke:none;" d="M350 416L350 419L353 418L353 417L350 416z"/>
<path style="fill:#3c3e40; stroke:none;" d="M527 416L527 417L528 419L529 419L530 416L527 416M531 416L532 417L531 416z"/>
<path style="fill:#27292a; stroke:none;" d="M73 419C72.4254 421.396 72.5249 421.487 75 422L75 421L73 419z"/>
<path style="fill:#2a2c2d; stroke:none;" d="M191 419C190.446 421.568 190.384 422.027 193 422L191 421L193 420L191 419z"/>
<path style="fill:#2f3132; stroke:none;" d="M369 419C368.425 421.396 368.525 421.487 371 422L371 421L369 419z"/>
<path style="fill:#353739; stroke:none;" d="M545 420L545 421L549 422L549 421L548 419L545 420z"/>
<path style="fill:#27292a; stroke:none;" d="M70 421L71 422L70 421z"/>
<path style="fill:#2f3132; stroke:none;" d="M366 421L367 422L366 421z"/>
<path style="fill:#2a2c2d; stroke:none;" d="M54 423L54 426L57 425L57 424L54 423z"/>
<path style="fill:#2f3132; stroke:none;" d="M172 423L172 426L175 425L175 424L172 423z"/>
<path style="fill:#353739; stroke:none;" d="M350 423L350 426L353 425L353 424L350 423z"/>
<path style="fill:#3c3e40; stroke:none;" d="M528 423L527 424L527 425L527 426L530 423L528 423z"/>
<path style="fill:#353739; stroke:none;" d="M528 424L529 425L528 424z"/>
<path style="fill:#3c3e40; stroke:none;" d="M531 425L532 426L531 425z"/>
<path style="fill:#27292a; stroke:none;" d="M70 426L71 427L70 426M73 426L72 430C74.1834 428.581 74.6427 428.079 73 426z"/>
<path style="fill:#2f3132; stroke:none;" d="M366 426L367 427L366 426M369 426L368 430C370.183 428.581 370.643 428.079 369 426z"/>
<path style="fill:#2a2c2d; stroke:none;" d="M73 427L74 428L73 427M190 428L190 429L194 429L190 428z"/>
<path style="fill:#353739; stroke:none;" d="M369 427L370 428L369 427M545 428L545 429L549 429L545 428z"/>
<path style="fill:#2a2c2d; stroke:none;" d="M54 430L53 432L53 433L57 432L57 431L54 430z"/>
<path style="fill:#2f3132; stroke:none;" d="M173 430L173 434L173 430z"/>
<path style="fill:#353739; stroke:none;" d="M350 430L349 432L349 433L353 432L353 431L350 430z"/>
<path style="fill:#3c3e40; stroke:none;" d="M528 430L527 432L527 433C529.566 432.449 529.86 431.86 528 430M531 430L532 431L531 430z"/>
<path style="fill:#27292a; stroke:none;" d="M72 434L75 437L72 434z"/>
<path style="fill:#2f3132; stroke:none;" d="M368 434L371 437L368 434z"/>
<path style="fill:#353739; stroke:none;" d="M545 435L545 436L549 436L545 435z"/>
<path style="fill:#27292a; stroke:none;" d="M70 435L71 436L70 435z"/>
<path style="fill:#2a2c2d; stroke:none;" d="M190 435L190 436L194 436L190 435z"/>
<path style="fill:#2f3132; stroke:none;" d="M366 435L367 436L366 435z"/>
<path style="fill:#2a2c2d; stroke:none;" d="M53 439L53 440L57 440L53 439z"/>
<path style="fill:#2f3132; stroke:none;" d="M172 440L173 441L175 438L172 440z"/>
<path style="fill:#353739; stroke:none;" d="M349 439L349 440L353 440L349 439z"/>
<path style="fill:#3c3e40; stroke:none;" d="M527 438L530 441L527 438M531 439L532 440L531 439z"/>
<path style="fill:#2a2c2d; stroke:none;" d="M191 441L191 445L192 445L193 442L191 441z"/>
<path style="fill:#353739; stroke:none;" d="M546 441L548 445L549 442L546 441z"/>
<path style="fill:#27292a; stroke:none;" d="M72 442L73 445L74 445L75 443L72 442z"/>
<path style="fill:#2f3132; stroke:none;" d="M368 442L369 445L370 445L371 443L368 442z"/>
<path style="fill:#27292a; stroke:none;" d="M70 444L71 445L70 444z"/>
<path style="fill:#2f3132; stroke:none;" d="M366 444L367 445L366 444z"/>
<path style="fill:#2a2c2d; stroke:none;" d="M53 446L53 447L57 447L53 446z"/>
<path style="fill:#2f3132; stroke:none;" d="M173 445L172 446L175 448L173 445z"/>
<path style="fill:#353739; stroke:none;" d="M349 446L349 447L353 447L349 446z"/>
<path style="fill:#3c3e40; stroke:none;" d="M529 445L528 449L529 449L529 445z"/>
<path style="fill:#353739; stroke:none;" d="M528 447L529 448L528 447z"/>
<path style="fill:#3c3e40; stroke:none;" d="M531 448L532 449L531 448z"/>
<path style="fill:#27292a; stroke:none;" d="M70 449L71 450L70 449M72 452L75 449L72 452z"/>
<path style="fill:#2a2c2d; stroke:none;" d="M190 450L190 451L193 452L193 449L190 450z"/>
<path style="fill:#2f3132; stroke:none;" d="M366 449L367 450L366 449M368 452L371 449L368 452z"/>
<path style="fill:#353739; stroke:none;" d="M545 450L545 451L548 452L548 449L545 450z"/>
<path style="fill:#2a2c2d; stroke:none;" d="M73 450L74 451L73 450z"/>
<path style="fill:#353739; stroke:none;" d="M369 450L370 451L369 450z"/>
<path style="fill:#2f3132; stroke:none;" d="M173 452L174 456L173 452z"/>
<path style="fill:#2a2c2d; stroke:none;" d="M53 453L53 454L54 456L57 455L57 454L53 453z"/>
<path style="fill:#353739; stroke:none;" d="M349 453L349 454L350 456L353 455L353 454L349 453z"/>
<path style="fill:#3c3e40; stroke:none;" d="M527 453L527 454L528 456L529 456L530 453L527 453M531 453L532 454L531 453z"/>
<path style="fill:#27292a; stroke:none;" d="M73 456C72.4254 458.396 72.5249 458.487 75 459L75 458L73 456z"/>
<path style="fill:#2a2c2d; stroke:none;" d="M193 459L193 458C191.04 457.347 190.446 457 193 457C190.473 456.126 190.016 458.359 193 459z"/>
<path style="fill:#2f3132; stroke:none;" d="M369 456C368.425 458.396 368.525 458.487 371 459L371 458L369 456z"/>
<path style="fill:#353739; stroke:none;" d="M545 457L545 458L548 459L548 456L545 457z"/>
<path style="fill:#27292a; stroke:none;" d="M70 458L71 459L70 458z"/>
<path style="fill:#2f3132; stroke:none;" d="M366 458L367 459L366 458z"/>
<path style="fill:#2a2c2d; stroke:none;" d="M54 460L54 463L57 462L57 461L54 460z"/>
<path style="fill:#2f3132; stroke:none;" d="M172 460L172 463L175 460L172 460z"/>
<path style="fill:#353739; stroke:none;" d="M350 460L350 463L353 462L353 461L350 460z"/>
<path style="fill:#3c3e40; stroke:none;" d="M527 460L530 463L527 460z"/>
<path style="fill:#353739; stroke:none;" d="M528 461L529 462L528 461z"/>
<path style="fill:#3c3e40; stroke:none;" d="M531 462L532 463L531 462z"/>
<path style="fill:#27292a; stroke:none;" d="M70 463L71 464L70 463M73 463L72 466L75 466L73 463z"/>
<path style="fill:#2a2c2d; stroke:none;" d="M191 463L190 466L193 466L191 463z"/>
<path style="fill:#2f3132; stroke:none;" d="M366 463L367 464L366 463M369 463L368 466L371 466L369 463z"/>
<path style="fill:#353739; stroke:none;" d="M547 463L545 466L549 466L547 463z"/>
<path style="fill:#2a2c2d; stroke:none;" d="M73 464L74 465L73 464z"/>
<path style="fill:#353739; stroke:none;" d="M369 464L370 465L369 464z"/>
<path style="fill:#2a2c2d; stroke:none;" d="M54 467L54 470L57 469L57 468L54 467z"/>
<path style="fill:#2f3132; stroke:none;" d="M172 467L173 471L172 467z"/>
<path style="fill:#353739; stroke:none;" d="M350 467L350 470L353 469L353 468L350 467z"/>
<path style="fill:#3c3e40; stroke:none;" d="M528 467L527 469L527 470C529.566 469.449 529.86 468.86 528 467M531 467L532 468L531 467z"/>
<path style="fill:#27292a; stroke:none;" d="M72 471L75 474L72 471z"/>
<path style="fill:#2f3132; stroke:none;" d="M368 471L371 474L368 471z"/>
<path style="fill:#353739; stroke:none;" d="M545 472L545 473L549 473L545 472z"/>
<path style="fill:#27292a; stroke:none;" d="M70 472L71 473L70 472z"/>
<path style="fill:#2a2c2d; stroke:none;" d="M190 472L190 473L194 473L190 472z"/>
<path style="fill:#2f3132; stroke:none;" d="M366 472L367 473L366 472M173 474L173 478L173 474z"/>
<path style="fill:#3c3e40; stroke:none;" d="M528 474L527 477L530 477L528 474z"/>
<path style="fill:#2a2c2d; stroke:none;" d="M53 476L53 477L57 477L53 476z"/>
<path style="fill:#353739; stroke:none;" d="M349 476L349 477L353 477L349 476M528 475L529 476L528 475z"/>
<path style="fill:#3c3e40; stroke:none;" d="M531 476L532 477L531 476z"/>
<path style="fill:#2a2c2d; stroke:none;" d="M190 481L194 479L190 481z"/>
<path style="fill:#353739; stroke:none;" d="M545 479L545 480L549 480L545 479z"/>
<path style="fill:#27292a; stroke:none;" d="M72 479L73 482L74 482L75 480L72 479z"/>
<path style="fill:#2f3132; stroke:none;" d="M368 479L369 482L370 482L371 480L368 479z"/>
<path style="fill:#2a2c2d; stroke:none;" d="M64 480L65 481L64 480z"/>
<path style="fill:#353739; stroke:none;" d="M360 480L361 481L360 480z"/>
<path style="fill:#27292a; stroke:none;" d="M70 481L71 482L70 481z"/>
<path style="fill:#2f3132; stroke:none;" d="M366 481L367 482L366 481z"/>
<path style="fill:#2a2c2d; stroke:none;" d="M53 483L53 484L57 484L53 483z"/>
<path style="fill:#2f3132; stroke:none;" d="M172 484L173 485L175 482L172 484z"/>
<path style="fill:#353739; stroke:none;" d="M349 483L349 484L353 484L349 483z"/>
<path style="fill:#3c3e40; stroke:none;" d="M529 482L527 485C529.259 484.538 530.212 484.145 529 482z"/>
<path style="fill:#27292a; stroke:none;" d="M70 486L71 487L70 486M72 486L73 489L74 489L75 486L72 486z"/>
<path style="fill:#2a2c2d; stroke:none;" d="M190 486L193 489L190 486z"/>
<path style="fill:#2f3132; stroke:none;" d="M366 486L367 487L366 486M368 486L369 489L370 489L371 486L368 486z"/>
<path style="fill:#353739; stroke:none;" d="M545 487L545 488L548 489L549 487L545 487z"/>
<path style="fill:#2a2c2d; stroke:none;" d="M73 487L74 488L73 487z"/>
<path style="fill:#353739; stroke:none;" d="M369 487L370 488L369 487z"/>
<path style="fill:#2a2c2d; stroke:none;" d="M53 490L53 491L57 491L53 490z"/>
<path style="fill:#2f3132; stroke:none;" d="M173 489L174 493L173 489z"/>
<path style="fill:#353739; stroke:none;" d="M349 490L349 491L353 491L349 490z"/>
<path style="fill:#3c3e40; stroke:none;" d="M527 490L527 491L528 493L529 493L530 490L527 490M531 490L532 491L531 490z"/>
<path style="fill:#353739; stroke:none;" d="M537 491L538 492L537 491z"/>
<path style="fill:#27292a; stroke:none;" d="M72 493L72 496L75 496L75 495C73.0399 494.347 72.446 494 75 494L72 493z"/>
<path style="fill:#2a2c2d; stroke:none;" d="M190 494L190 495L193 496L193 495C191.04 494.347 190.446 494 193 494L190 494z"/>
<path style="fill:#2f3132; stroke:none;" d="M368 493L368 496L371 496L371 495C369.04 494.347 368.446 494 371 494L368 493z"/>
<path style="fill:#353739; stroke:none;" d="M545 494L545 495L548 496L548 493L545 494z"/>
<path style="fill:#27292a; stroke:none;" d="M70 495L71 496L70 495z"/>
<path style="fill:#2f3132; stroke:none;" d="M366 495L367 496L366 495M173 496L174 500L173 496z"/>
<path style="fill:#2a2c2d; stroke:none;" d="M54 497L54 500L57 499L57 498L54 497z"/>
<path style="fill:#353739; stroke:none;" d="M350 497L350 500L353 499L353 498L350 497z"/>
<path style="fill:#3c3e40; stroke:none;" d="M527 499L530 499L528 497L527 499M528 499L529 500L528 499M531 499L532 500L531 499z"/>
</svg>
