<?xml version="1.0" standalone="yes"?>
<svg xmlns="http://www.w3.org/2000/svg" width="750" height="500">
<path style="fill:#fc581e; stroke:none;" d="M0 0L0 500L59 500C70.7103 500 81.7732 501.584 92 496L92 495C90.0399 494.347 89.446 494 92 494L92 493L88 490L92 489L92 486C90.2671 484.106 89.9083 483.582 92 482L92 481L90 480C92.1076 478.569 89.7982 477.841 88 477L92 473L88 467L92 466L92 463L88 463L92 457L92 456L88 453L92 452L92 449L88 449L92 445L92 444L90 443C92.1076 441.569 89.7982 440.841 88 440L88 439L92 438L92 435L88 430L92 429L92 426L88 426L92 420L92 419L88 416L92 415L92 412L88 412L92 408L92 407L90 406C92.1076 404.569 89.7982 403.841 88 403L88 402L92 401L92 398L88 393L92 391L88 389L92 383L92 382L88 379L92 378L92 375L88 375L92 371L92 370C90.0399 369.347 89.446 369 92 369L92 368L88 365L92 364L92 361C90.2671 359.106 89.9083 358.582 92 357L92 356L90 355C92.1076 353.569 89.7982 352.841 88 352L92 348L88 342L92 341L92 338L88 338L92 332L92 331L88 328L92 327L92 324L88 324L92 320L92 319L90 318C92.1076 316.569 89.7982 315.841 88 315L88 314L92 313L92 310L88 305L92 304L92 301L88 301L92 295L92 294L88 291L92 290L92 287L88 287L92 283L92 282L90 281C92.1076 279.569 89.7982 278.841 88 278L88 277L92 276L92 273L88 268L92 266L88 264L92 258L92 257L88 254L92 253L92 250L88 250L92 246L92 245C90.0399 244.347 89.446 244 92 244L92 243L88 240L92 239L92 236C90.2671 234.106 89.9084 233.582 92 232L92 231L90 230C92.1076 228.569 89.7982 227.841 88 227L92 223L88 217L92 216L92 213L88 213L92 207L92 206L88 203L92 202L92 199L88 199L92 195L92 194L90 193C92.1077 191.569 89.7981 190.841 88 190L88 189L92 188L92 185L88 180L92 179L92 176L88 176L92 170L92 169L88 166L92 165L92 162L88 162L92 158L92 157L90 156C92.1076 154.569 89.7982 153.841 88 153L88 152L92 151L92 148L88 143L92 141L88 139L92 133L92 132L88 129L92 128L92 125L88 125L92 121L92 120C90.0399 119.347 89.446 119 92 119L92 118L88 115L92 114L92 111C90.2671 109.106 89.9084 108.582 92 107L92 106L90 105C92.1077 103.569 89.7981 102.841 88 102L92 98L88 92L92 91L92 88L88 88L92 82L92 81L88 78L92 77L92 74L88 74L92 70L92 69L90 68C92.1077 66.5692 89.7981 65.8408 88 65L88 64L92 63L92 60L88 55L92 54L92 51L88 51L92 45L92 44L88 41L92 40L92 37L88 37L92 33L92 32L90 31C92.1077 29.5692 89.7981 28.8408 88 28L88 27L92 26L92 23L88 18L92 16L88 14L92 8L92 7L88 4L92 3L92 0L0 0z"/>
<path style="fill:#fb6420; stroke:none;" d="M92 3L88 4L92 7L92 8L90 9L88 14L92 16L88 18L92 23L92 26L88 27L88 28L92 32L92 33L88 37L92 37L92 40L88 41L92 44L92 45L90 46L88 51L92 51L92 54L88 55L92 60L92 63L88 64L88 65L92 69L92 70L88 74L92 74L92 77L88 78L92 81L92 82L90 83L88 88L92 88L92 91L88 92L92 98L88 102L92 106L92 107C88.5169 107.75 89.1017 109.722 92 111L92 114L88 115L92 118L92 119C89.4714 119.506 89.4714 119.494 92 120L92 121L88 125L92 125L92 128L88 129L92 132L92 133L90 134L88 139L92 141L88 143L92 148L92 151L88 152L88 153L92 157L92 158L88 162L92 162L92 165L88 166L92 169L92 170L90 171L88 176L92 176L92 179L88 180L92 185L92 188L88 189L88 190L92 194L92 195L88 199L92 199L92 202L88 203L92 206L92 207L90 208L88 213L92 213L92 216L88 217L92 223L88 227L92 231L92 232C88.5169 232.75 89.1017 234.722 92 236L92 239L88 240L92 243L92 244C89.4714 244.506 89.4715 244.494 92 245L92 246L88 250L92 250L92 253L88 254L92 257L92 258L90 259L88 264L92 266L88 268L92 273L92 276L88 277L88 278L92 282L92 283L88 287L92 287L92 290L88 291L92 294L92 295L90 296L88 301L92 301L92 304L88 305L92 310L92 313L88 314L88 315L92 319L92 320L88 324L92 324L92 327L88 328L92 331L92 332L90 333L88 338L92 338L92 341L88 342L92 348L88 352L92 356L92 357C88.517 357.75 89.1016 359.722 92 361L92 364L88 365L92 368L92 369C89.4714 369.506 89.4714 369.494 92 370L92 371L88 375L92 375L92 378L88 379L92 382L92 383L90 384L88 389L92 391L88 393L92 398L92 401L88 402L88 403L92 407L92 408L88 412L92 412L92 415L88 416L92 419L92 420L90 421L88 426L92 426L92 429L88 430L92 435L92 438L88 439L88 440L92 444L92 445L88 449L92 449L92 452L88 453L92 456L92 457L90 458L88 463L92 463L92 466L88 467L92 473L88 477L92 481L92 482C88.517 482.75 89.1016 484.722 92 486L92 489L88 490L92 493L92 494C89.4714 494.506 89.4714 494.494 92 495L92 496L88 500L202 500C202.712 496.843 204.876 496.039 208 496L208 493L201 490L208 488L208 486L207 485L201 484L201 483L207 482L208 478L201 477L201 475L208 474L207 471C202.186 470.911 202.36 467.502 207 467L208 464L201 462L201 461L208 459L208 456L201 453L208 452L201 446L207 445L208 442L201 440L201 439L208 437L207 434L201 433L208 427L201 425L201 424L208 422L207 419L202 419L202 415C205.194 414.987 207.271 415.403 208 412L201 411L201 409L208 408L208 405L207 404L201 403L201 402L208 400L208 398L207 397L201 396L208 390L201 389L208 385L207 382L202 382L207 379L208 376L201 374L201 373L208 371L208 368L201 365L208 363L208 361L207 360L201 359L201 358L207 357L208 353L201 352L201 350L208 349L207 346C202.186 345.911 202.36 342.502 207 342L208 339L201 337L201 336L208 334L208 331L201 328L208 327L201 321L207 320L208 317L201 315L201 314L208 312L207 309L201 308L208 302L201 300L201 299L208 297L207 294L202 294L202 290C205.194 289.987 207.271 290.403 208 287L201 286L201 284L208 283L208 280L207 279L201 278L201 277L208 275L208 273L207 272L201 271L208 265L201 264L208 260L207 257L202 257L207 254L208 251L201 249L201 248L208 246L208 243L201 240L208 238L208 236L207 235L201 234L201 233L207 232L208 228L201 227L201 225L208 224L207 221C202.186 220.911 202.36 217.502 207 217L208 214L201 212L201 211L208 209L208 206L201 203L208 202L201 196L207 195L208 192L201 190L201 189L208 187L207 184L201 183L208 177L201 175L201 174L208 172L207 169L202 169L202 165C205.194 164.987 207.271 165.403 208 162L201 161L201 159L208 158L208 155L207 154L201 153L201 152L208 150L208 148L207 147L201 146L208 140L201 139L208 135L207 132L202 132L207 129L208 126L201 124L201 123L208 121L208 118L201 115L208 113L208 111L207 110L201 109L201 108L207 107L208 103L201 102L201 100L208 99L207 96C202.186 95.9112 202.36 92.5023 207 92L208 89L201 87L201 86L208 84L208 81L201 78L208 77L201 71L207 70L208 67L201 65L201 64L208 62L207 59L201 58L208 52L201 50L201 49L208 47L207 44L202 44L202 40C205.194 39.9865 207.271 40.4028 208 37L201 36L201 34L208 33L208 30L207 29L201 28L201 27L208 25L208 23L207 22L201 21L208 15L201 14L208 10L207 7L202 7L207 4L208 1C198.819 -1.66455 187.513 0 178 0L119 0C113.876 0 92.6987 -2.56055 92 3z"/>
<path style="fill:#fb7625; stroke:none;" d="M205 0L206 1L205 0M207 0L207 4C203.908 3.47803 202.86 3.91922 202 7L207 7L208 10L201 14L208 15L207 18L201 21L207 22L208 25L201 27L201 28L207 29L208 30L208 33L201 34L201 36L208 37L202 40L202 44L207 44L208 47L201 49L201 50L208 52L207 55L201 58L208 62L201 64L201 65L208 67L207 70L201 71L208 77L201 78L208 81L208 84L201 86L201 87L208 89L208 91L207 92C198.681 91.1492 205.526 96.6869 208 99L201 100L201 102L208 103L207 107L201 108L201 109L207 110L208 113L201 115L208 118L208 121L201 123L201 124L208 126L208 128L207 129C203.908 128.478 202.86 128.919 202 132L207 132L208 135L201 139L208 140L207 143L201 146L207 147L208 150L201 152L201 153L207 154L208 155L208 158L201 159L201 161L208 162L202 165L202 169L207 169L208 172L201 174L201 175L208 177L207 180L201 183L208 187L201 189L201 190L208 192L207 195L201 196L208 202L201 203L208 206L208 209L201 211L201 212L208 214L208 216L207 217C198.681 216.149 205.526 221.687 208 224L201 225L201 227L208 228L207 232L201 233L201 234L207 235L208 238L201 240L208 243L208 246L201 248L201 249L208 251L208 253L207 254C203.908 253.478 202.86 253.919 202 257L207 257L208 260L201 264L208 265L207 268L201 271L207 272L208 275L201 277L201 278L207 279L208 280L208 283L201 284L201 286L208 287L202 290L202 294L207 294L208 297L201 299L201 300L208 302L207 305L201 308L208 312L201 314L201 315L208 317L207 320L201 321L208 327L201 328L208 331L208 334L201 336L201 337L208 339L208 341L207 342C198.681 341.149 205.526 346.687 208 349L201 350L201 352L208 353L207 357L201 358L201 359L207 360L208 363L201 365L208 368L208 371L201 373L201 374L208 376L208 378L207 379C203.908 378.478 202.86 378.919 202 382L207 382L208 385L201 389L208 390L207 393L201 396L207 397L208 400L201 402L201 403L207 404L208 405L208 408L201 409L201 411L208 412L202 415L202 419L207 419L208 422L201 424L201 425L208 427L207 430L201 433L208 437L201 439L201 440L208 442L207 445L201 446L208 452L201 453L208 456L208 459L201 461L201 462L208 464L208 466L207 467C198.681 466.149 205.526 471.687 208 474L201 475L201 477L208 478L207 482L201 483L201 484L207 485L208 488L201 490L208 493L208 496L201 498L201 499C217.373 503.84 239.906 500 257 500L342 500C354.751 500 370.72 502.564 383 499L383 498L380 498L386 496L383 491L379 491L379 490L386 486L383 486L383 484L380 484L380 483L386 482L386 479L379 477L379 476L383 476L386 473L386 472L380 469L383 469L383 466L385 467L386 466L386 463L380 463L380 460L386 459L383 454L379 454L379 453L386 449L383 447L380 447L386 445L386 442L385 441L383 442L379 440L379 439L386 435L380 432L383 432L386 429L386 426L379 426L379 425L380 423L386 422L383 417L379 417L379 416L386 415L386 412L383 410L380 410L386 408L386 405L383 403L379 403L379 402L386 398L380 395L383 395L386 392L386 391L379 389L379 388L383 388L386 385L380 382L379 380L379 379L385 379L386 378L386 375L383 373L380 373L386 371L383 366L379 366L379 365L386 361L383 361L383 359L380 359L380 358L386 357L386 354L379 352L379 351L383 351L386 348L386 347L380 344L383 344L383 341L385 342L386 341L386 338L380 338L380 335L386 334L383 329L379 329L379 328L386 324L383 322L380 322L386 320L386 317L385 316L383 317L379 315L379 314L386 310L380 307L383 307L386 304L386 301L379 301L379 300L380 298L386 297L383 292L379 292L379 291L386 290L386 287L383 285L380 285L386 283L386 280L383 278L379 278L379 277L386 273L380 270L383 270L386 267L386 266L379 264L379 263L383 263L386 260L380 257L379 255L379 254L385 254L386 253L386 250L383 248L380 248L386 246L383 241L379 241L379 240L386 236L383 236L383 234L380 234L380 233L386 232L386 229L379 227L379 226L383 226L386 223L386 222L380 219L383 219L383 216L385 217L386 216L386 213L380 213L380 210L386 209L383 204L379 204L379 203L386 199L383 197L380 197L386 195L386 192L385 191L383 192L379 190L379 189L386 185L380 182L383 182L386 179L386 176L379 176L379 175L380 173L386 172L383 167L379 167L379 166L386 165L386 162L383 160L380 160L386 158L386 155L383 153L379 153L379 152L386 148L380 145L383 145L386 142L386 141L379 139L379 138L383 138L386 135L380 132L379 130L379 129L385 129L386 128L386 125L383 123L380 123L386 121L383 116L379 116L379 115L386 111L383 111L383 109L380 109L380 108L386 107L386 104L379 102L379 101L383 101L386 98L386 97L380 94L383 94L383 91L385 92L386 91L386 88L380 88L380 85L386 84L383 79L379 79L379 78L386 74L383 72L380 72L386 70L386 67L385 66L383 67L379 65L379 64L386 60L380 57L383 57L386 54L386 51L379 51L379 50L380 48L386 47L383 42L379 42L379 41L386 40L386 37L383 35L380 35L386 33L386 30L383 28L379 28L379 27L386 23L380 20L383 20L386 17L386 16L379 14L379 13L383 13L386 10L380 7L379 5L379 4L385 4L386 3L386 0L207 0z"/>
<path style="fill:#fb6420; stroke:none;" d="M213 0L214 1L213 0z"/>
<path style="fill:#f98e2a; stroke:none;" d="M386 3L385 4L379 4L379 5L380 7L386 10L383 13L379 13L379 14L386 16L386 17L383 20L380 20L386 23L379 27L379 28L383 28L386 30L386 33L380 35L383 35L386 37L386 40L379 41L379 42L383 42L386 47L380 48L379 50L379 51L386 51L386 54L383 57L380 57L386 60L379 64L379 65L385 66L386 67L386 70L380 72L383 72L386 74L379 78L379 79L383 79L386 84L380 85L380 88L386 88L386 91L385 92L383 91L382 92L383 94L380 94L386 97L386 98L383 101L379 101L379 102L386 104L386 107L380 108L380 109L383 109L383 111L386 111L379 115L379 116L383 116L386 121L380 123L383 123L386 125L386 128L385 129L379 129L379 130L380 132L386 135L383 138L379 138L379 139L386 141L386 142L383 145L380 145L386 148L379 152L379 153L383 153L386 155L386 158L380 160L383 160L386 162L386 165L379 166L379 167L383 167L386 172L380 173L379 175L379 176L386 176L386 179L383 182L380 182L386 185L379 189L379 190L385 191L386 192L386 195L380 197L383 197L386 199L379 203L379 204L383 204L386 209L380 210L380 213L386 213L386 216L385 217L383 216L382 217L383 219L380 219L386 222L386 223L383 226L379 226L379 227L386 229L386 232L380 233L380 234L383 234L383 236L386 236L379 240L379 241L383 241L386 246L380 248L383 248L386 250L386 253L385 254L379 254L379 255L380 257L386 260L383 263L379 263L379 264L386 266L386 267L383 270L380 270L386 273L379 277L379 278L383 278L386 280L386 283L380 285L383 285L386 287L386 290L379 291L379 292L383 292L386 297L380 298L379 300L379 301L386 301L386 304L383 307L380 307L386 310L379 314L379 315L385 316L386 317L386 320L380 322L383 322L386 324L379 328L379 329L383 329L386 334L380 335L380 338L386 338L386 341L385 342L383 341L382 342L383 344L380 344L386 347L386 348L383 351L379 351L379 352L386 354L386 357L380 358L380 359L383 359L383 361L386 361L379 365L379 366L383 366L386 371L380 373L383 373L386 375L386 378L385 379L379 379L379 380L380 382L386 385L383 388L379 388L379 389L386 391L386 392L383 395L380 395L386 398L379 402L379 403L383 403L386 405L386 408L380 410L383 410L386 412L386 415L379 416L379 417L383 417L386 422L380 423L379 425L379 426L386 426L386 429L383 432L380 432L386 435L379 439L379 440L385 441L386 442L386 445L380 447L383 447L386 449L379 453L379 454L383 454L386 459L380 460L380 463L386 463L386 466L385 467L383 466L382 467L383 469L380 469L386 472L386 473L383 476L379 476L379 477L386 479L386 482L380 483L380 484L383 484L383 486L386 486L379 490L379 491L383 491L386 496L380 498L383 498C383.562 501.374 390.993 500 394 500L428 500L531 500C545.185 500 564.54 503.383 578 499L577 497C579.75 495.519 580.552 493.747 577 493L577 490C579.946 487.878 579.946 486.122 577 484L577 483C579.946 480.878 579.946 479.122 577 477L577 474L580 471L577 470L577 467C580.457 466.259 580.457 463.741 577 463L577 460C580.457 459.259 580.457 456.741 577 456L577 453C579.75 451.519 580.552 449.747 577 449L577 446C579.946 443.878 579.946 442.122 577 440L577 439C579.946 436.878 579.946 435.122 577 433L577 430C580.457 429.259 580.457 426.741 577 426L577 423C580.457 422.259 580.457 419.741 577 419L577 416C579.75 414.519 580.552 412.747 577 412L577 409C579.946 406.878 579.946 405.122 577 403L577 402C579.946 399.878 579.946 398.122 577 396L577 393L580 390L577 389L577 386C580.457 385.259 580.457 382.741 577 382L577 379C580.457 378.259 580.457 375.741 577 375L577 372C579.75 370.519 580.552 368.747 577 368L577 365C579.946 362.878 579.946 361.122 577 359L577 358C579.946 355.878 579.946 354.122 577 352L577 349L580 346L577 345L577 342C580.457 341.259 580.457 338.741 577 338L577 335C580.457 334.259 580.457 331.741 577 331L577 328C579.75 326.519 580.552 324.747 577 324L577 321C579.946 318.878 579.946 317.122 577 315L577 314C579.946 311.878 579.946 310.122 577 308L577 305C580.457 304.259 580.457 301.741 577 301L577 298C580.457 297.259 580.457 294.741 577 294L577 291C579.75 289.519 580.552 287.747 577 287L577 284C579.946 281.878 579.946 280.122 577 278L577 277C579.946 274.878 579.946 273.122 577 271L577 268L580 265L577 264L577 261C580.457 260.259 580.457 257.741 577 257L577 254C580.457 253.259 580.457 250.741 577 250L577 247C579.75 245.519 580.552 243.747 577 243L577 240C579.946 237.878 579.946 236.122 577 234L577 233C579.946 230.878 579.946 229.122 577 227L577 224L580 221L577 220L577 217C580.457 216.259 580.457 213.741 577 213L577 210C580.457 209.259 580.457 206.741 577 206L577 203C579.75 201.519 580.552 199.747 577 199L577 196C579.946 193.878 579.946 192.122 577 190L577 189C579.946 186.878 579.946 185.122 577 183L577 180C580.457 179.259 580.457 176.741 577 176L577 173C580.457 172.259 580.457 169.741 577 169L577 166C579.75 164.519 580.552 162.747 577 162L577 159C579.946 156.878 579.946 155.122 577 153L577 152C579.946 149.878 579.946 148.122 577 146L577 143L580 140L577 139L577 136C580.457 135.259 580.457 132.741 577 132L577 129C580.457 128.259 580.457 125.741 577 125L577 122C579.75 120.519 580.552 118.747 577 118L577 115C579.946 112.878 579.946 111.122 577 109L577 108C579.946 105.878 579.946 104.122 577 102L577 99L580 96L577 95L577 92C580.457 91.2592 580.457 88.7408 577 88L577 85C580.457 84.2592 580.457 81.7408 577 81L577 78C579.75 76.5191 580.552 74.7469 577 74L577 71C579.946 68.8784 579.946 67.1216 577 65L577 64C579.946 61.8784 579.946 60.1216 577 58L577 55C580.457 54.2592 580.457 51.7408 577 51L577 48C580.457 47.2592 580.457 44.7408 577 44L577 41C579.75 39.5191 580.552 37.7469 577 37L577 34C579.946 31.8784 579.946 30.1216 577 28L577 27C579.946 24.8784 579.946 23.1216 577 21L577 18L580 15L577 14L577 11C580.457 10.2592 580.457 7.74081 577 7L577 4L580 0L431 0L397 0C393.323 0 386.56 -1.45993 386 3z"/>
<path style="fill:#f9a52f; stroke:none;" d="M580 0L577 4L577 7C579.326 8.55615 579.326 9.44388 577 11L577 14C578.851 15.9756 579.431 16.5698 577 18L577 21C579.261 23.5691 579.261 24.4309 577 27L577 28C579.261 30.5691 579.261 31.4309 577 34L577 37L580 40L577 41L577 44C579.326 45.5562 579.326 46.4439 577 48L577 51C579.326 52.5561 579.326 53.4439 577 55L577 58C579.261 60.5691 579.261 61.4309 577 64L577 65C579.261 67.5691 579.261 68.4309 577 71L577 74L580 77L577 78L577 81C579.326 82.5561 579.326 83.4438 577 85L577 88C579.326 89.5561 579.326 90.4438 577 92L577 95C578.851 96.9756 579.431 97.5698 577 99L577 102C579.261 104.569 579.261 105.431 577 108L577 109C579.261 111.569 579.261 112.431 577 115L577 118L580 121L577 122L577 125C579.326 126.556 579.326 127.444 577 129L577 132C579.326 133.556 579.326 134.444 577 136L577 139C578.851 140.976 579.431 141.57 577 143L577 146C579.261 148.569 579.261 149.431 577 152L577 153C579.261 155.569 579.261 156.431 577 159L577 162L580 165L577 166L577 169C579.326 170.556 579.326 171.444 577 173L577 176C579.326 177.556 579.326 178.444 577 180L577 183C579.261 185.569 579.261 186.431 577 189L577 190C579.261 192.569 579.261 193.431 577 196L577 199L580 202L577 203L577 206C579.326 207.556 579.326 208.444 577 210L577 213C579.326 214.556 579.326 215.444 577 217L577 220C578.851 221.976 579.431 222.57 577 224L577 227C579.261 229.569 579.261 230.431 577 233L577 234C579.261 236.569 579.261 237.431 577 240L577 243L580 246L577 247L577 250C579.326 251.556 579.326 252.444 577 254L577 257C579.326 258.556 579.326 259.444 577 261L577 264C578.851 265.976 579.431 266.57 577 268L577 271C579.261 273.569 579.261 274.431 577 277L577 278C579.261 280.569 579.261 281.431 577 284L577 287L580 290L577 291L577 294C579.326 295.556 579.326 296.444 577 298L577 301C579.326 302.556 579.326 303.444 577 305L577 308C579.261 310.569 579.261 311.431 577 314L577 315C579.261 317.569 579.261 318.431 577 321L577 324L580 327L577 328L577 331C579.326 332.556 579.326 333.444 577 335L577 338C579.326 339.556 579.326 340.444 577 342L577 345C578.851 346.976 579.431 347.57 577 349L577 352C579.261 354.569 579.261 355.431 577 358L577 359C579.261 361.569 579.261 362.431 577 365L577 368L580 371L577 372L577 375C579.326 376.556 579.326 377.444 577 379L577 382C579.326 383.556 579.326 384.444 577 386L577 389C578.851 390.976 579.431 391.57 577 393L577 396C579.261 398.569 579.261 399.431 577 402L577 403C579.261 405.569 579.261 406.431 577 409L577 412L580 415L577 416L577 419C579.326 420.556 579.326 421.444 577 423L577 426C579.326 427.556 579.326 428.444 577 430L577 433C579.261 435.569 579.261 436.431 577 439L577 440C579.261 442.569 579.261 443.431 577 446L577 449L580 452L577 453L577 456C579.326 457.556 579.326 458.444 577 460L577 463C579.326 464.556 579.326 465.444 577 467L577 470C578.851 471.976 579.431 472.57 577 474L577 477C579.261 479.569 579.261 480.431 577 483L577 484C579.261 486.569 579.261 487.431 577 490L577 493L580 496L577 497L577 500L750 500L750 0L580 0z"/>
<path style="fill:#fb6420; stroke:none;" d="M213 2L214 3L213 2z"/>
<path style="fill:#fb7625; stroke:none;" d="M382 5L383 6L382 5M204 8L205 9L204 8z"/>
<path style="fill:#fb6420; stroke:none;" d="M213 9L214 10L213 9z"/>
<path style="fill:#f98e2a; stroke:none;" d="M380 11L381 12L380 11z"/>
<path style="fill:#fb6420; stroke:none;" d="M213 16L214 17L213 16z"/>
<path style="fill:#f98e2a; stroke:none;" d="M380 18L381 19L380 18z"/>
<path style="fill:#fb6420; stroke:none;" d="M213 23L214 24L213 23M213 30L214 31L213 30z"/>
<path style="fill:#fb7625; stroke:none;" d="M204 31L205 32L204 31z"/>
<path style="fill:#fb6420; stroke:none;" d="M213 32L214 33L213 32z"/>
<path style="fill:#f98e2a; stroke:none;" d="M380 36L381 37L380 36z"/>
<path style="fill:#fb6420; stroke:none;" d="M213 37L214 38L213 37M213 39L214 40L213 39z"/>
<path style="fill:#f98e2a; stroke:none;" d="M380 43L381 44L380 43z"/>
<path style="fill:#fb6420; stroke:none;" d="M213 44L214 45L213 44z"/>
<path style="fill:#fb7625; stroke:none;" d="M204 45L205 46L204 45z"/>
<path style="fill:#fb6420; stroke:none;" d="M213 46L214 47L213 46z"/>
<path style="fill:#fb7625; stroke:none;" d="M382 49L383 50L382 49z"/>
<path style="fill:#fb6420; stroke:none;" d="M213 53L214 54L213 53z"/>
<path style="fill:#f98e2a; stroke:none;" d="M380 55L381 56L380 55z"/>
<path style="fill:#fb6420; stroke:none;" d="M213 60L214 61L213 60M213 67L214 68L213 67z"/>
<path style="fill:#fb7625; stroke:none;" d="M204 68L205 69L204 68z"/>
<path style="fill:#fb6420; stroke:none;" d="M213 69L214 70L213 69M213 74L214 75L213 74M213 76L214 77L213 76z"/>
<path style="fill:#f98e2a; stroke:none;" d="M380 80L381 81L380 80z"/>
<path style="fill:#fb6420; stroke:none;" d="M213 81L214 82L213 81z"/>
<path style="fill:#fb7625; stroke:none;" d="M204 82L205 83L204 82z"/>
<path style="fill:#fb6420; stroke:none;" d="M213 83L214 84L213 83z"/>
<path style="fill:#fb7625; stroke:none;" d="M382 86L383 87L382 86z"/>
<path style="fill:#fb6420; stroke:none;" d="M213 90L214 91L213 90z"/>
<path style="fill:#f98e2a; stroke:none;" d="M380 92L381 93L380 92z"/>
<path style="fill:#fb6420; stroke:none;" d="M213 97L214 98L213 97z"/>
<path style="fill:#f98e2a; stroke:none;" d="M380 99L381 100L380 99z"/>
<path style="fill:#fb6420; stroke:none;" d="M213 104L214 105L213 104z"/>
<path style="fill:#fb7625; stroke:none;" d="M204 105L205 106L204 105z"/>
<path style="fill:#fb6420; stroke:none;" d="M213 111L214 112L213 111M213 113L214 114L213 113z"/>
<path style="fill:#f98e2a; stroke:none;" d="M380 117L381 118L380 117z"/>
<path style="fill:#fb6420; stroke:none;" d="M213 118L214 119L213 118z"/>
<path style="fill:#fb7625; stroke:none;" d="M204 119L205 120L204 119z"/>
<path style="fill:#fb6420; stroke:none;" d="M213 120L214 121L213 120z"/>
<path style="fill:#f98e2a; stroke:none;" d="M380 124L381 125L380 124z"/>
<path style="fill:#fb6420; stroke:none;" d="M213 125L214 126L213 125M213 127L214 128L213 127z"/>
<path style="fill:#fb7625; stroke:none;" d="M382 130L383 131L382 130M204 133L205 134L204 133z"/>
<path style="fill:#fb6420; stroke:none;" d="M213 134L214 135L213 134z"/>
<path style="fill:#f98e2a; stroke:none;" d="M380 136L381 137L380 136z"/>
<path style="fill:#fb6420; stroke:none;" d="M213 141L214 142L213 141z"/>
<path style="fill:#f98e2a; stroke:none;" d="M380 143L381 144L380 143z"/>
<path style="fill:#fb6420; stroke:none;" d="M213 148L214 149L213 148M213 155L214 156L213 155z"/>
<path style="fill:#fb7625; stroke:none;" d="M204 156L205 157L204 156z"/>
<path style="fill:#fb6420; stroke:none;" d="M213 157L214 158L213 157z"/>
<path style="fill:#f98e2a; stroke:none;" d="M380 161L381 162L380 161z"/>
<path style="fill:#fb6420; stroke:none;" d="M213 162L214 163L213 162M213 164L214 165L213 164z"/>
<path style="fill:#f98e2a; stroke:none;" d="M380 168L381 169L380 168z"/>
<path style="fill:#fb6420; stroke:none;" d="M213 169L214 170L213 169z"/>
<path style="fill:#fb7625; stroke:none;" d="M204 170L205 171L204 170z"/>
<path style="fill:#fb6420; stroke:none;" d="M213 171L214 172L213 171z"/>
<path style="fill:#fb7625; stroke:none;" d="M382 174L383 175L382 174z"/>
<path style="fill:#fb6420; stroke:none;" d="M213 178L214 179L213 178z"/>
<path style="fill:#f98e2a; stroke:none;" d="M380 180L381 181L380 180z"/>
<path style="fill:#fb6420; stroke:none;" d="M213 185L214 186L213 185M213 192L214 193L213 192z"/>
<path style="fill:#fb7625; stroke:none;" d="M204 193L205 194L204 193z"/>
<path style="fill:#fb6420; stroke:none;" d="M213 194L214 195L213 194M213 199L214 200L213 199M213 201L214 202L213 201z"/>
<path style="fill:#f98e2a; stroke:none;" d="M380 205L381 206L380 205z"/>
<path style="fill:#fb6420; stroke:none;" d="M213 206L214 207L213 206z"/>
<path style="fill:#fb7625; stroke:none;" d="M204 207L205 208L204 207z"/>
<path style="fill:#fb6420; stroke:none;" d="M213 208L214 209L213 208z"/>
<path style="fill:#fb7625; stroke:none;" d="M382 211L383 212L382 211z"/>
<path style="fill:#fb6420; stroke:none;" d="M213 215L214 216L213 215z"/>
<path style="fill:#f98e2a; stroke:none;" d="M380 217L381 218L380 217z"/>
<path style="fill:#fb6420; stroke:none;" d="M213 222L214 223L213 222z"/>
<path style="fill:#f98e2a; stroke:none;" d="M380 224L381 225L380 224z"/>
<path style="fill:#fb6420; stroke:none;" d="M213 229L214 230L213 229z"/>
<path style="fill:#fb7625; stroke:none;" d="M204 230L205 231L204 230z"/>
<path style="fill:#fb6420; stroke:none;" d="M213 236L214 237L213 236M213 238L214 239L213 238z"/>
<path style="fill:#f98e2a; stroke:none;" d="M380 242L381 243L380 242z"/>
<path style="fill:#fb6420; stroke:none;" d="M213 243L214 244L213 243z"/>
<path style="fill:#fb7625; stroke:none;" d="M204 244L205 245L204 244z"/>
<path style="fill:#fb6420; stroke:none;" d="M213 245L214 246L213 245z"/>
<path style="fill:#f98e2a; stroke:none;" d="M380 249L381 250L380 249z"/>
<path style="fill:#fb6420; stroke:none;" d="M213 250L214 251L213 250M213 252L214 253L213 252z"/>
<path style="fill:#fb7625; stroke:none;" d="M382 255L383 256L382 255M204 258L205 259L204 258z"/>
<path style="fill:#fb6420; stroke:none;" d="M213 259L214 260L213 259z"/>
<path style="fill:#f98e2a; stroke:none;" d="M380 261L381 262L380 261z"/>
<path style="fill:#fb6420; stroke:none;" d="M213 266L214 267L213 266z"/>
<path style="fill:#f98e2a; stroke:none;" d="M380 268L381 269L380 268z"/>
<path style="fill:#fb6420; stroke:none;" d="M213 273L214 274L213 273M213 280L214 281L213 280z"/>
<path style="fill:#fb7625; stroke:none;" d="M204 281L205 282L204 281z"/>
<path style="fill:#fb6420; stroke:none;" d="M213 282L214 283L213 282z"/>
<path style="fill:#f98e2a; stroke:none;" d="M380 286L381 287L380 286z"/>
<path style="fill:#fb6420; stroke:none;" d="M213 287L214 288L213 287M213 289L214 290L213 289z"/>
<path style="fill:#f98e2a; stroke:none;" d="M380 293L381 294L380 293z"/>
<path style="fill:#fb6420; stroke:none;" d="M213 294L214 295L213 294z"/>
<path style="fill:#fb7625; stroke:none;" d="M204 295L205 296L204 295z"/>
<path style="fill:#fb6420; stroke:none;" d="M213 296L214 297L213 296z"/>
<path style="fill:#fb7625; stroke:none;" d="M382 299L383 300L382 299z"/>
<path style="fill:#fb6420; stroke:none;" d="M213 303L214 304L213 303z"/>
<path style="fill:#f98e2a; stroke:none;" d="M380 305L381 306L380 305z"/>
<path style="fill:#fb6420; stroke:none;" d="M213 310L214 311L213 310M213 317L214 318L213 317z"/>
<path style="fill:#fb7625; stroke:none;" d="M204 318L205 319L204 318z"/>
<path style="fill:#fb6420; stroke:none;" d="M213 319L214 320L213 319M213 324L214 325L213 324M213 326L214 327L213 326z"/>
<path style="fill:#f98e2a; stroke:none;" d="M380 330L381 331L380 330z"/>
<path style="fill:#fb6420; stroke:none;" d="M213 331L214 332L213 331z"/>
<path style="fill:#fb7625; stroke:none;" d="M204 332L205 333L204 332z"/>
<path style="fill:#fb6420; stroke:none;" d="M213 333L214 334L213 333z"/>
<path style="fill:#fb7625; stroke:none;" d="M382 336L383 337L382 336z"/>
<path style="fill:#fb6420; stroke:none;" d="M213 340L214 341L213 340z"/>
<path style="fill:#f98e2a; stroke:none;" d="M380 342L381 343L380 342z"/>
<path style="fill:#fb6420; stroke:none;" d="M213 347L214 348L213 347z"/>
<path style="fill:#f98e2a; stroke:none;" d="M380 349L381 350L380 349z"/>
<path style="fill:#fb6420; stroke:none;" d="M213 354L214 355L213 354z"/>
<path style="fill:#fb7625; stroke:none;" d="M204 355L205 356L204 355z"/>
<path style="fill:#fb6420; stroke:none;" d="M213 361L214 362L213 361M213 363L214 364L213 363z"/>
<path style="fill:#f98e2a; stroke:none;" d="M380 367L381 368L380 367z"/>
<path style="fill:#fb6420; stroke:none;" d="M213 368L214 369L213 368z"/>
<path style="fill:#fb7625; stroke:none;" d="M204 369L205 370L204 369z"/>
<path style="fill:#fb6420; stroke:none;" d="M213 370L214 371L213 370z"/>
<path style="fill:#f98e2a; stroke:none;" d="M380 374L381 375L380 374z"/>
<path style="fill:#fb6420; stroke:none;" d="M213 375L214 376L213 375M213 377L214 378L213 377z"/>
<path style="fill:#fb7625; stroke:none;" d="M382 380L383 381L382 380M204 383L205 384L204 383z"/>
<path style="fill:#fb6420; stroke:none;" d="M213 384L214 385L213 384z"/>
<path style="fill:#f98e2a; stroke:none;" d="M380 386L381 387L380 386z"/>
<path style="fill:#fb6420; stroke:none;" d="M213 391L214 392L213 391z"/>
<path style="fill:#f98e2a; stroke:none;" d="M380 393L381 394L380 393z"/>
<path style="fill:#fb6420; stroke:none;" d="M213 398L214 399L213 398M213 405L214 406L213 405z"/>
<path style="fill:#fb7625; stroke:none;" d="M204 406L205 407L204 406z"/>
<path style="fill:#fb6420; stroke:none;" d="M213 407L214 408L213 407z"/>
<path style="fill:#f98e2a; stroke:none;" d="M380 411L381 412L380 411z"/>
<path style="fill:#fb6420; stroke:none;" d="M213 412L214 413L213 412M213 414L214 415L213 414z"/>
<path style="fill:#f98e2a; stroke:none;" d="M380 418L381 419L380 418z"/>
<path style="fill:#fb6420; stroke:none;" d="M213 419L214 420L213 419z"/>
<path style="fill:#fb7625; stroke:none;" d="M204 420L205 421L204 420z"/>
<path style="fill:#fb6420; stroke:none;" d="M213 421L214 422L213 421z"/>
<path style="fill:#fb7625; stroke:none;" d="M382 424L383 425L382 424z"/>
<path style="fill:#fb6420; stroke:none;" d="M213 428L214 429L213 428z"/>
<path style="fill:#f98e2a; stroke:none;" d="M380 430L381 431L380 430z"/>
<path style="fill:#fb6420; stroke:none;" d="M213 435L214 436L213 435M213 442L214 443L213 442z"/>
<path style="fill:#fb7625; stroke:none;" d="M204 443L205 444L204 443z"/>
<path style="fill:#fb6420; stroke:none;" d="M213 444L214 445L213 444M213 449L214 450L213 449M213 451L214 452L213 451z"/>
<path style="fill:#f98e2a; stroke:none;" d="M380 455L381 456L380 455z"/>
<path style="fill:#fb6420; stroke:none;" d="M213 456L214 457L213 456z"/>
<path style="fill:#fb7625; stroke:none;" d="M204 457L205 458L204 457z"/>
<path style="fill:#fb6420; stroke:none;" d="M213 458L214 459L213 458z"/>
<path style="fill:#fb7625; stroke:none;" d="M382 461L383 462L382 461z"/>
<path style="fill:#fb6420; stroke:none;" d="M213 465L214 466L213 465z"/>
<path style="fill:#f98e2a; stroke:none;" d="M380 467L381 468L380 467z"/>
<path style="fill:#fb6420; stroke:none;" d="M213 472L214 473L213 472z"/>
<path style="fill:#f98e2a; stroke:none;" d="M380 474L381 475L380 474z"/>
<path style="fill:#fb6420; stroke:none;" d="M213 479L214 480L213 479z"/>
<path style="fill:#fb7625; stroke:none;" d="M204 480L205 481L204 480z"/>
<path style="fill:#fb6420; stroke:none;" d="M213 486L214 487L213 486M213 488L214 489L213 488z"/>
<path style="fill:#f98e2a; stroke:none;" d="M380 492L381 493L380 492z"/>
<path style="fill:#fb6420; stroke:none;" d="M213 493L214 494L213 493z"/>
<path style="fill:#fb7625; stroke:none;" d="M204 494L205 495L204 494z"/>
<path style="fill:#fb6420; stroke:none;" d="M213 495L214 496L213 495z"/>
<path style="fill:#f98e2a; stroke:none;" d="M380 499L381 500L380 499z"/>
</svg>
